<svg xmlns="http://www.w3.org/2000/svg" viewBox="0 0 97.74 97.74"><defs><style>.cls-1{fill:#fff;opacity:0;}</style></defs><g id="Livello_2" data-name="Livello 2"><g id="Livello_1-2" data-name="Livello 1"><rect class="cls-1" width="97.74" height="97.74"/><path d="M71.19,48.87a64.41,64.41,0,0,0-9.82-12.5,64.66,64.66,0,0,0-12.49-9.82,63.7,63.7,0,0,0-12.51,9.82,64.41,64.41,0,0,0-9.82,12.5,63.94,63.94,0,0,0,9.82,12.5,63.7,63.7,0,0,0,12.51,9.82,64.66,64.66,0,0,0,12.49-9.82A63.94,63.94,0,0,0,71.19,48.87Z"/></g></g></svg>