<svg xmlns="http://www.w3.org/2000/svg" viewBox="0 0 97.74 97.74"><defs><style>.cls-1{fill:#fff;opacity:0;}.cls-2{fill:#f2f2f2;}</style></defs><g id="Livello_2" data-name="Livello 2"><g id="Livello_1-2" data-name="Livello 1"><rect class="cls-1" width="97.74" height="97.74"/><path class="cls-2" d="M75.83,59.65h0a41.81,41.81,0,0,0-4.64-10.77,63.94,63.94,0,0,1-9.82,12.5,64.66,64.66,0,0,1-12.49,9.82,41.56,41.56,0,0,0,10.76,4.64h0A76.3,76.3,0,0,0,75.83,59.65Z"/><path class="cls-2" d="M48.88,26.55a41.71,41.71,0,0,0-10.77-4.63A74,74,0,0,0,29.4,29.4a75,75,0,0,0-7.49,8.7,42.11,42.11,0,0,0,4.64,10.77,64.41,64.41,0,0,1,9.82-12.5A63.7,63.7,0,0,1,48.88,26.55Z"/><path class="cls-2" d="M48.88,71.19a63.7,63.7,0,0,1-12.51-9.82,63.94,63.94,0,0,1-9.82-12.5,41.81,41.81,0,0,0-4.64,10.77h0a76,76,0,0,0,7.49,8.7,75.9,75.9,0,0,0,8.7,7.48A41.33,41.33,0,0,0,48.88,71.19Z"/><path d="M71.19,48.87a64.41,64.41,0,0,0-9.82-12.5,64.66,64.66,0,0,0-12.49-9.82,63.7,63.7,0,0,0-12.51,9.82,64.41,64.41,0,0,0-9.82,12.5,63.94,63.94,0,0,0,9.82,12.5,63.7,63.7,0,0,0,12.51,9.82,64.66,64.66,0,0,0,12.49-9.82A63.94,63.94,0,0,0,71.19,48.87Z"/><path class="cls-2" d="M75.83,38.1a75.9,75.9,0,0,0-7.48-8.7,74.12,74.12,0,0,0-8.72-7.48h0a41.6,41.6,0,0,0-10.74,4.63,64.66,64.66,0,0,1,12.49,9.82,64.41,64.41,0,0,1,9.82,12.5A41.42,41.42,0,0,0,75.83,38.1Z"/></g></g></svg>