<svg xmlns="http://www.w3.org/2000/svg" viewBox="0 0 97.74 97.74"><defs><style>.cls-1{fill:#fff;opacity:0;}.cls-2{fill:#f2f2f2;}</style></defs><g id="Livello_2" data-name="Livello 2"><g id="Livello_1-2" data-name="Livello 1"><rect class="cls-1" width="97.74" height="97.74"/><path d="M48.88,26.55a41.6,41.6,0,0,1,10.74-4.63,63.7,63.7,0,0,0-10.75-6.46,64.17,64.17,0,0,0-10.76,6.46A41.71,41.71,0,0,1,48.88,26.55Z"/><path d="M48.88,26.55a41.6,41.6,0,0,1,10.74-4.63,63.7,63.7,0,0,0-10.75-6.46,64.17,64.17,0,0,0-10.76,6.46A41.71,41.71,0,0,1,48.88,26.55Z"/><path class="cls-2" d="M48.87,15.46C36,9.38,23.44,9.25,16.35,16.35s-7,19.64-.89,32.52A64.84,64.84,0,0,1,21.91,38.1c-1.49-5.85-.87-10.89,2.21-14s8.13-3.7,14-2.2A64.17,64.17,0,0,1,48.87,15.46Z"/><path d="M26.55,48.87A42.11,42.11,0,0,1,21.91,38.1a64.84,64.84,0,0,0-6.45,10.77,64.84,64.84,0,0,0,6.45,10.77A41.81,41.81,0,0,1,26.55,48.87Z"/><path d="M59.64,75.83a41.56,41.56,0,0,1-10.76-4.64A41.33,41.33,0,0,1,38.1,75.83a64.92,64.92,0,0,0,10.77,6.46A64.51,64.51,0,0,0,59.64,75.83Z"/><path class="cls-2" d="M82.29,48.87a64.51,64.51,0,0,1-6.46,10.77h0c1.49,5.85.88,10.89-2.21,14s-8.12,3.7-14,2.21h0a64.51,64.51,0,0,1-10.77,6.46C61.75,88.37,74.3,88.5,81.4,81.4S88.37,61.75,82.29,48.87Z"/><path d="M48.88,26.55a41.6,41.6,0,0,1,10.74-4.63,63.7,63.7,0,0,0-10.75-6.46,64.17,64.17,0,0,0-10.76,6.46A41.71,41.71,0,0,1,48.88,26.55Z"/><path d="M82.29,48.87A64.92,64.92,0,0,0,75.83,38.1a41.42,41.42,0,0,1-4.64,10.77,41.81,41.81,0,0,1,4.64,10.77A64.51,64.51,0,0,0,82.29,48.87Z"/><path d="M75.83,59.65A76.3,76.3,0,0,1,59.65,75.83c5.85,1.49,10.89.88,14-2.21S77.32,65.5,75.83,59.65Z"/><path class="cls-2" d="M75.83,59.65h0a41.81,41.81,0,0,0-4.64-10.77,63.94,63.94,0,0,1-9.82,12.5,64.66,64.66,0,0,1-12.49,9.82,41.56,41.56,0,0,0,10.76,4.64h0A76.3,76.3,0,0,0,75.83,59.65Z"/><path class="cls-2" d="M48.88,26.55a41.71,41.71,0,0,0-10.77-4.63A74,74,0,0,0,29.4,29.4a75,75,0,0,0-7.49,8.7,42.11,42.11,0,0,0,4.64,10.77,64.41,64.41,0,0,1,9.82-12.5A63.7,63.7,0,0,1,48.88,26.55Z"/><path d="M38.11,21.92c-5.86-1.5-10.9-.89-14,2.2s-3.7,8.13-2.21,14a75,75,0,0,1,7.49-8.7A74,74,0,0,1,38.11,21.92Z"/><path class="cls-2" d="M48.88,71.19a63.7,63.7,0,0,1-12.51-9.82,63.94,63.94,0,0,1-9.82-12.5,41.81,41.81,0,0,0-4.64,10.77h0a76,76,0,0,0,7.49,8.7,75.9,75.9,0,0,0,8.7,7.48A41.33,41.33,0,0,0,48.88,71.19Z"/><path d="M71.19,48.87a64.41,64.41,0,0,0-9.82-12.5,64.66,64.66,0,0,0-12.49-9.82,63.7,63.7,0,0,0-12.51,9.82,64.41,64.41,0,0,0-9.82,12.5,63.94,63.94,0,0,0,9.82,12.5,63.7,63.7,0,0,0,12.51,9.82,64.66,64.66,0,0,0,12.49-9.82A63.94,63.94,0,0,0,71.19,48.87Z"/><path class="cls-2" d="M75.83,38.1a75.9,75.9,0,0,0-7.48-8.7,74.12,74.12,0,0,0-8.72-7.48h0a41.6,41.6,0,0,0-10.74,4.63,64.66,64.66,0,0,1,12.49,9.82,64.41,64.41,0,0,1,9.82,12.5A41.42,41.42,0,0,0,75.83,38.1Z"/></g></g></svg>