<?xml version="1.0" encoding="utf-8"?>
<!-- Generator: Adobe Illustrator 26.1.0, SVG Export Plug-In . SVG Version: 6.00 Build 0)  -->
<svg version="1.1" id="Livello_1" xmlns="http://www.w3.org/2000/svg" xmlns:xlink="http://www.w3.org/1999/xlink" x="0px" y="0px"
	 viewBox="0 0 216.3 92" style="enable-background:new 0 0 216.3 92;" xml:space="preserve">
<style type="text/css">
	.st0{fill:#F2F2F2;}
	.st1{enable-background:new    ;}
	.st2{fill:#FFFFFF;}
</style>
<g id="Livello_2_00000087411520583086436570000010877799175093093546_">
	<g id="Livello_1-2">
		<path d="M78.5,78.5c-7.1,7.1-19.7,7-32.5,0.9c-12.9,6.1-25.4,6.2-32.5-0.9C31.4,96.5,60.6,96.5,78.5,78.5z"/>
		<path d="M13.5,13.5c-18,18-18,47.1,0,65.1c-7.1-7.1-7-19.7-0.9-32.5C6.5,33.1,6.4,20.6,13.5,13.5z"/>
		<path d="M78.5,13.5c-18-17.9-47-17.9-65,0c7.1-7.1,19.6-7,32.5-0.9C58.9,6.5,71.4,6.4,78.5,13.5z"/>
		<path d="M46,23.7c3.3-2,7-3.6,10.7-4.6c-3.4-2.5-7-4.7-10.7-6.5c-3.8,1.8-7.4,4-10.8,6.5C39,20.1,42.6,21.6,46,23.7z"/>
		<path d="M78.5,13.5c7.1,7.1,7,19.6,0.9,32.5c6.1,12.9,6.2,25.4-0.9,32.5C96.5,60.6,96.5,31.5,78.5,13.5L78.5,13.5z"/>
		<path class="st0" d="M46,79.4c-3.8-1.8-7.4-3.9-10.8-6.4c-5.9,1.5-10.9,0.9-14-2.2s-3.7-8.1-2.2-14l0,0c-2.5-3.4-4.6-7-6.4-10.8
			c-6.1,12.9-6.2,25.4,0.9,32.5S33.1,85.5,46,79.4z"/>
		<path class="st0" d="M78.5,13.5c-7.1-7.1-19.7-7-32.5-0.9c3.8,1.8,7.4,4,10.8,6.5l0,0c5.8-1.5,10.9-0.9,14,2.2s3.7,8.1,2.2,14
			c2.5,3.4,4.7,7,6.5,10.8C85.5,33.1,85.6,20.6,78.5,13.5z"/>
		<path d="M46,23.7c3.3-2,7-3.6,10.7-4.6c-3.4-2.5-7-4.7-10.7-6.5c-3.8,1.8-7.4,4-10.8,6.5C39,20.1,42.6,21.6,46,23.7z"/>
		<path class="st0" d="M46,12.6c-12.9-6.1-25.4-6.2-32.5,0.9s-7,19.6-0.9,32.5c1.8-3.8,3.9-7.4,6.4-10.8c-1.5-5.9-0.9-10.9,2.2-14
			s8.1-3.7,14-2.2C38.6,16.5,42.2,14.4,46,12.6z"/>
		<path d="M23.7,46c-2.1-3.4-3.6-7-4.7-10.8c-2.5,3.4-4.6,7-6.4,10.8c1.8,3.8,3.9,7.4,6.4,10.8C20,53,21.6,49.4,23.7,46z"/>
		<path d="M56.8,73c-3.8-1-7.4-2.6-10.8-4.7c-3.3,2.1-7,3.6-10.8,4.7c3.4,2.5,7,4.6,10.8,6.4C49.8,77.6,53.4,75.5,56.8,73z"/>
		<path class="st0" d="M79.4,46c-1.8,3.8-3.9,7.4-6.4,10.8l0,0c1.5,5.8,0.9,10.9-2.2,14s-8.1,3.7-14,2.2l0,0
			c-3.4,2.5-7,4.6-10.8,6.4c12.9,6.1,25.4,6.2,32.5-0.9S85.5,58.9,79.4,46z"/>
		<path d="M46,23.7c3.3-2,7-3.6,10.7-4.6c-3.4-2.5-7-4.7-10.7-6.5c-3.8,1.8-7.4,4-10.8,6.5C39,20.1,42.6,21.6,46,23.7z"/>
		<path d="M79.4,46c-1.8-3.8-3.9-7.4-6.4-10.8c-1,3.8-2.6,7.4-4.7,10.8c2.1,3.4,3.6,7,4.7,10.8C75.5,53.4,77.6,49.8,79.4,46z"/>
		<path d="M73,56.8C68.4,63,63,68.4,56.8,73c5.8,1.5,10.9,0.9,14-2.2S74.4,62.6,73,56.8z"/>
		<path class="st0" d="M73,56.8L73,56.8c-1-3.8-2.6-7.4-4.7-10.8c-2.7,4.6-6,8.8-9.8,12.5c-3.7,3.8-7.9,7.1-12.5,9.8
			c3.4,2.1,7,3.6,10.8,4.7l0,0C63,68.4,68.4,63,73,56.8z"/>
		<path class="st0" d="M46,23.7c-3.4-2-7-3.6-10.8-4.6c-3.1,2.3-6,4.8-8.7,7.5s-5.2,5.6-7.5,8.7c1,3.8,2.6,7.4,4.7,10.8
			c2.7-4.6,6-8.8,9.8-12.5C37.2,29.7,41.4,26.4,46,23.7z"/>
		<path d="M35.2,19.1c-5.9-1.5-10.9-0.9-14,2.2s-3.7,8.1-2.2,14c2.3-3.1,4.8-6,7.5-8.7C29.2,23.8,32.1,21.3,35.2,19.1z"/>
		<path class="st0" d="M46,68.3c-4.6-2.7-8.8-6-12.5-9.8c-3.8-3.7-7.1-7.9-9.8-12.5c-2.1,3.4-3.6,7-4.7,10.8l0,0
			c2.3,3.1,4.8,6,7.5,8.7s5.6,5.2,8.7,7.5C39,72,42.7,70.4,46,68.3z"/>
		<path d="M35.2,73c-3.1-2.3-6-4.8-8.7-7.5c-2.7-2.7-5.2-5.6-7.5-8.7c-1.5,5.8-0.9,10.9,2.2,14S29.4,74.5,35.2,73z"/>
		<path d="M68.3,46c-2.7-4.6-6-8.8-9.8-12.5c-3.7-3.8-7.9-7.1-12.5-9.8c-4.6,2.7-8.8,6-12.5,9.8c-3.8,3.7-7.1,7.9-9.8,12.5
			c2.7,4.6,6,8.8,9.8,12.5c3.7,3.8,7.9,7.1,12.5,9.8c4.6-2.7,8.8-6,12.5-9.8C62.3,54.8,65.6,50.6,68.3,46z"/>
		<path d="M70.8,21.3c-3.1-3.1-8.1-3.7-14-2.2c3.1,2.3,6,4.8,8.7,7.5s5.2,5.6,7.5,8.7C74.4,29.4,73.8,24.3,70.8,21.3z"/>
		<path class="st0" d="M73,35.2c-2.3-3.1-4.8-6-7.5-8.7c-2.7-2.7-5.6-5.2-8.7-7.5l0,0c-3.8,1-7.4,2.6-10.8,4.6
			c4.6,2.7,8.8,6,12.5,9.8c3.8,3.7,7.1,7.9,9.8,12.5C70.4,42.7,72,39,73,35.2z"/>
	</g>
</g>
<g class="st1">
	<path class="st2" d="M122,28.3c1.1,0.9,1.7,2.2,1.7,3.7c0,1.7-0.8,3-2.5,3.8v0.1c0.9,0.4,1.7,1,2.3,1.7c0.6,0.7,0.9,1.6,0.9,2.6
		c0,1.8-0.6,3.3-1.7,4.3c-1.2,1-2.8,1.5-4.8,1.5h-11.1V26.9h10.6C119.3,26.9,120.8,27.3,122,28.3z M115.9,34.4
		c0.6,0,1.1-0.2,1.4-0.5c0.3-0.3,0.5-0.7,0.5-1.2s-0.2-0.9-0.5-1.2c-0.3-0.3-0.8-0.5-1.4-0.5h-3.4v3.4H115.9z M117.7,41.2
		c0.3-0.3,0.5-0.7,0.5-1.3c0-0.6-0.2-1-0.5-1.3c-0.3-0.3-0.9-0.5-1.5-0.5h-3.7v3.5h3.7C116.9,41.7,117.4,41.5,117.7,41.2z"/>
	<path class="st2" d="M138.8,33.4c1.4,1.3,2.1,3.2,2.1,5.5c0,2.4-0.7,4.2-2.1,5.5c-1.4,1.3-3.3,2-5.9,2c-2.5,0-4.5-0.7-5.9-2
		c-1.4-1.3-2.1-3.1-2.1-5.5c0-2.4,0.7-4.2,2.1-5.5c1.4-1.3,3.3-2,5.9-2C135.5,31.4,137.5,32,138.8,33.4z M134.7,41.7
		c0.4-0.5,0.6-1.5,0.6-2.8s-0.2-2.3-0.6-2.8c-0.4-0.6-1-0.8-1.7-0.8s-1.3,0.3-1.7,0.8c-0.4,0.6-0.6,1.5-0.6,2.8s0.2,2.3,0.6,2.8
		c0.4,0.5,1,0.8,1.7,0.8S134.3,42.2,134.7,41.7z"/>
	<path class="st2" d="M147.9,26.6V46h-5.5V26.6H147.9z"/>
	<path class="st2" d="M166,29.2c1.9,1.5,2.8,4,2.8,7.3c0,3.3-0.9,5.7-2.8,7.3c-1.8,1.5-4.4,2.3-7.6,2.3h-8.2V26.9h8.2
		C161.6,26.9,164.2,27.6,166,29.2z M160.4,41.2c0.8-0.3,1.4-0.8,1.8-1.5s0.6-1.8,0.6-3.2s-0.2-2.5-0.6-3.2s-1-1.3-1.8-1.5
		c-0.8-0.3-1.8-0.4-3-0.4h-1.3v10.3h1.3C158.6,41.6,159.6,41.4,160.4,41.2z"/>
	<path class="st2" d="M188.7,46h-5.9v-7.3h-6.3V46h-5.9V26.9h5.9v7.1h6.3v-7.1h5.9V46z"/>
</g>
<g class="st1">
	<path class="st2" d="M111,52.6c0.5,0.3,0.9,0.6,1.1,1.2c0.3,0.5,0.4,1.1,0.4,1.9s-0.1,1.4-0.4,1.9c-0.3,0.5-0.6,0.9-1.1,1.2
		c-0.5,0.3-1,0.4-1.7,0.4h-2.5v-6.9h2.5C110,52.2,110.5,52.3,111,52.6z M111.1,57.8c0.5-0.5,0.7-1.2,0.7-2.1c0-0.9-0.2-1.6-0.7-2.1
		c-0.5-0.5-1.1-0.7-1.9-0.7h-1.7v5.7h1.7C110,58.5,110.7,58.3,111.1,57.8z"/>
	<path class="st2" d="M114.2,52.1v0.8h-0.7v-0.8H114.2z M114.2,54v5h-0.6v-5H114.2z"/>
	<path class="st2" d="M119.6,58.8c0,0.7-0.2,1.3-0.6,1.7s-1,0.5-1.6,0.5c-0.5,0-1-0.1-1.4-0.4c-0.4-0.2-0.6-0.6-0.8-1.1l0.6-0.2
		c0.1,0.4,0.3,0.6,0.6,0.8s0.6,0.3,1,0.3c0.5,0,0.9-0.1,1.2-0.4c0.3-0.3,0.4-0.7,0.4-1.3v-0.9h0c-0.1,0.3-0.3,0.5-0.7,0.7
		c-0.3,0.2-0.6,0.2-1,0.2c-0.4,0-0.8-0.1-1.2-0.3c-0.3-0.2-0.6-0.5-0.8-0.9c-0.2-0.4-0.3-0.8-0.3-1.3c0-0.5,0.1-0.9,0.3-1.3
		s0.4-0.7,0.8-0.9s0.7-0.3,1.2-0.3c0.4,0,0.7,0.1,1,0.3c0.3,0.2,0.5,0.4,0.7,0.7h0V54h0.6V58.8z M118.2,58c0.2-0.2,0.4-0.4,0.6-0.7
		c0.1-0.3,0.2-0.6,0.2-1c0-0.4-0.1-0.7-0.2-1c-0.1-0.3-0.3-0.5-0.6-0.7c-0.2-0.2-0.5-0.2-0.8-0.2c-0.5,0-0.9,0.2-1.2,0.5
		c-0.3,0.4-0.5,0.8-0.5,1.4c0,0.6,0.2,1,0.5,1.4s0.7,0.5,1.2,0.5C117.7,58.3,118,58.2,118.2,58z"/>
	<path class="st2" d="M121.4,52.1v0.8h-0.7v-0.8H121.4z M121.4,54v5h-0.6v-5H121.4z"/>
	<path class="st2" d="M124.8,58.5v0.6c-0.2,0-0.4,0-0.6,0c-0.3,0-0.6,0-0.7-0.1c-0.2-0.1-0.3-0.2-0.4-0.3c-0.1-0.2-0.1-0.4-0.1-0.7
		v-3.4h-0.9V54h0.9v-1.5h0.6V54h1.2v0.5h-1.2v3.3c0,0.3,0,0.5,0.1,0.5c0.1,0.1,0.3,0.1,0.5,0.1C124.5,58.6,124.7,58.5,124.8,58.5z"
		/>
	<path class="st2" d="M128.8,58.3c-0.2,0.3-0.5,0.5-0.8,0.7c-0.3,0.1-0.7,0.2-1.1,0.2c-0.3,0-0.6-0.1-0.8-0.2
		c-0.2-0.1-0.4-0.3-0.6-0.5c-0.1-0.2-0.2-0.5-0.2-0.8c0-0.5,0.2-0.9,0.6-1.1s0.9-0.4,1.6-0.5c0.4-0.1,0.7-0.1,0.8-0.1
		s0.3-0.1,0.4-0.2c0.1-0.1,0.1-0.2,0.1-0.3c0-0.3-0.1-0.6-0.3-0.8c-0.2-0.2-0.5-0.3-0.9-0.3c-0.3,0-0.6,0.1-0.9,0.2
		c-0.2,0.2-0.4,0.4-0.5,0.8l-0.6-0.1c0.1-0.5,0.4-0.8,0.7-1.1c0.4-0.2,0.8-0.4,1.3-0.4c0.6,0,1.1,0.1,1.4,0.4
		c0.3,0.3,0.5,0.7,0.5,1.1v2.4c0,0.3,0,0.6,0,0.8c0,0.2,0.1,0.3,0.1,0.5H129C128.9,59,128.8,58.8,128.8,58.3z M128.4,56.5
		c-0.2,0-0.5,0.1-1,0.2c-0.4,0.1-0.7,0.2-1,0.3s-0.4,0.4-0.4,0.8c0,0.3,0.1,0.5,0.3,0.7c0.2,0.2,0.4,0.2,0.8,0.2
		c0.4,0,0.8-0.1,1.2-0.4s0.5-0.7,0.5-1.2v-0.8C128.7,56.4,128.6,56.4,128.4,56.5z"/>
	<path class="st2" d="M131.2,52.1v7h-0.6v-7H131.2z"/>
	<path class="st2" d="M139.8,59.1h-0.7v-3.2h-3.9v3.2h-0.7v-6.9h0.7v3.1h3.9v-3.1h0.7V59.1z"/>
	<path class="st2" d="M144.4,58.3c-0.1,0.2-0.3,0.5-0.6,0.6c-0.3,0.2-0.6,0.3-1,0.3c-0.5,0-1-0.2-1.3-0.5c-0.3-0.3-0.5-0.7-0.5-1.3
		V54h0.6v3.1c0,0.5,0.1,0.9,0.3,1.1c0.2,0.2,0.5,0.4,1,0.4c0.4,0,0.8-0.1,1.1-0.4c0.3-0.3,0.4-0.7,0.4-1.3V54h0.6v5h-0.6L144.4,58.3
		L144.4,58.3z"/>
	<path class="st2" d="M152.6,54.4c0.3,0.3,0.5,0.7,0.5,1.3v3.4h-0.6V56c0-0.5-0.1-0.9-0.3-1.1c-0.2-0.2-0.5-0.4-0.9-0.4
		c-0.4,0-0.7,0.1-1,0.4c-0.3,0.3-0.4,0.7-0.4,1.3v2.9h-0.6V56c0-0.5-0.1-0.9-0.3-1.1c-0.2-0.2-0.5-0.4-0.9-0.4c-0.4,0-0.7,0.1-1,0.4
		c-0.3,0.3-0.4,0.7-0.4,1.3v2.8h-0.6v-5h0.6v0.8h0c0.1-0.3,0.3-0.5,0.6-0.6c0.3-0.2,0.6-0.3,0.9-0.3c0.3,0,0.6,0.1,0.9,0.2
		c0.3,0.2,0.4,0.4,0.6,0.7c0.2-0.3,0.4-0.5,0.7-0.7c0.3-0.2,0.6-0.3,1-0.3C151.9,53.9,152.3,54.1,152.6,54.4z"/>
	<path class="st2" d="M157.3,58.3c-0.2,0.3-0.5,0.5-0.8,0.7c-0.3,0.1-0.7,0.2-1.1,0.2c-0.3,0-0.6-0.1-0.8-0.2s-0.4-0.3-0.6-0.5
		c-0.1-0.2-0.2-0.5-0.2-0.8c0-0.5,0.2-0.9,0.6-1.1s0.9-0.4,1.6-0.5c0.4-0.1,0.7-0.1,0.8-0.1s0.3-0.1,0.4-0.2
		c0.1-0.1,0.1-0.2,0.1-0.3c0-0.3-0.1-0.6-0.3-0.8c-0.2-0.2-0.5-0.3-0.9-0.3c-0.3,0-0.6,0.1-0.9,0.2c-0.2,0.2-0.4,0.4-0.5,0.8
		l-0.6-0.1c0.1-0.5,0.4-0.8,0.7-1.1s0.8-0.4,1.3-0.4c0.6,0,1.1,0.1,1.4,0.4s0.5,0.7,0.5,1.1v2.4c0,0.3,0,0.6,0,0.8s0.1,0.3,0.1,0.5
		h-0.6C157.4,59,157.3,58.8,157.3,58.3z M156.9,56.5c-0.2,0-0.5,0.1-1,0.2c-0.4,0.1-0.7,0.2-1,0.3c-0.3,0.2-0.4,0.4-0.4,0.8
		c0,0.3,0.1,0.5,0.3,0.7c0.2,0.2,0.4,0.2,0.8,0.2c0.4,0,0.8-0.1,1.2-0.4c0.4-0.2,0.5-0.7,0.5-1.2v-0.8
		C157.2,56.4,157.1,56.4,156.9,56.5z"/>
	<path class="st2" d="M159.7,54.8c0.1-0.3,0.3-0.5,0.6-0.6c0.3-0.2,0.6-0.3,1-0.3c0.5,0,1,0.2,1.3,0.5c0.3,0.3,0.5,0.7,0.5,1.3v3.4
		h-0.6V56c0-0.5-0.1-0.9-0.3-1.1c-0.2-0.2-0.5-0.4-1-0.4c-0.4,0-0.8,0.1-1.1,0.4c-0.3,0.3-0.4,0.7-0.4,1.3v2.8h-0.6v-5h0.6
		L159.7,54.8L159.7,54.8z"/>
	<path class="st2" d="M164.9,52.1v0.8h-0.7v-0.8H164.9z M164.9,54v5h-0.6v-5H164.9z"/>
	<path class="st2" d="M168.3,58.5v0.6c-0.2,0-0.4,0-0.6,0c-0.3,0-0.6,0-0.7-0.1c-0.2-0.1-0.3-0.2-0.4-0.3c-0.1-0.2-0.1-0.4-0.1-0.7
		v-3.4h-0.9V54h0.9v-1.5h0.6V54h1.2v0.5h-1.2v3.3c0,0.3,0,0.5,0.1,0.5c0.1,0.1,0.3,0.1,0.5,0.1C168,58.6,168.1,58.5,168.3,58.5z"/>
	<path class="st2" d="M169.8,52.1v0.8h-0.7v-0.8H169.8z M169.8,54v5h-0.6v-5H169.8z"/>
	<path class="st2" d="M174.4,58.8c-0.4,0.3-0.8,0.4-1.5,0.4c-0.4,0-0.8-0.1-1.2-0.3c-0.3-0.2-0.6-0.5-0.8-0.9s-0.3-0.9-0.3-1.4
		c0-0.5,0.1-1,0.3-1.4c0.2-0.4,0.5-0.7,0.8-0.9c0.3-0.2,0.7-0.3,1.2-0.3c0.5,0,0.8,0.1,1.2,0.3s0.6,0.5,0.8,1
		c0.2,0.4,0.3,0.9,0.3,1.5h-3.9c0,0.6,0.2,1,0.5,1.4c0.3,0.4,0.7,0.5,1.1,0.5c0.4,0,0.8-0.1,1-0.3c0.3-0.2,0.4-0.5,0.5-0.8l0.6,0.1
		C175,58.1,174.8,58.5,174.4,58.8z M171.8,55c-0.3,0.3-0.5,0.7-0.5,1.2h3.2c0-0.5-0.2-0.9-0.5-1.2c-0.3-0.3-0.7-0.5-1.1-0.5
		S172.1,54.6,171.8,55z"/>
	<path class="st2" d="M178.7,54.7c-0.3-0.2-0.6-0.3-0.9-0.3c-0.4,0-0.7,0.1-0.9,0.2c-0.2,0.2-0.3,0.4-0.3,0.6c0,0.2,0.1,0.4,0.3,0.5
		c0.2,0.1,0.5,0.2,0.8,0.3l0.6,0.1c0.5,0.1,0.9,0.2,1.2,0.4c0.3,0.2,0.4,0.5,0.4,1c0,0.5-0.2,0.9-0.6,1.1c-0.4,0.3-0.9,0.4-1.4,0.4
		c-0.6,0-1.1-0.1-1.5-0.4c-0.4-0.3-0.6-0.7-0.7-1.1l0.6-0.1c0.1,0.4,0.2,0.7,0.5,0.9c0.3,0.2,0.6,0.3,1,0.3c0.4,0,0.7-0.1,1-0.3
		c0.3-0.2,0.4-0.4,0.4-0.7c0-0.3-0.1-0.5-0.3-0.6c-0.2-0.1-0.5-0.2-0.9-0.3l-0.5-0.1c-0.5-0.1-0.8-0.2-1.1-0.4
		c-0.3-0.2-0.4-0.5-0.4-0.9c0-0.4,0.2-0.8,0.5-1c0.3-0.3,0.8-0.4,1.3-0.4c0.3,0,0.6,0.1,0.9,0.2c0.3,0.1,0.5,0.3,0.7,0.5
		c0.2,0.2,0.3,0.5,0.3,0.7l-0.6,0.1C179.1,55.2,178.9,54.9,178.7,54.7z"/>
</g>
<g class="st1">
	<path class="st2" d="M113.3,70.1h-0.6v-5.9h0l-2.3,5.9h-0.5l-2.3-5.9h0v5.9h-0.6v-6.9h0.9l2.3,5.9h0l2.3-5.9h0.9V70.1z"/>
	<path class="st2" d="M117.7,69.3c-0.2,0.3-0.5,0.5-0.8,0.7c-0.3,0.1-0.7,0.2-1.1,0.2c-0.3,0-0.6-0.1-0.8-0.2s-0.4-0.3-0.6-0.5
		c-0.1-0.2-0.2-0.5-0.2-0.8c0-0.5,0.2-0.9,0.6-1.1s0.9-0.4,1.6-0.5c0.4-0.1,0.7-0.1,0.8-0.1s0.3-0.1,0.4-0.2
		c0.1-0.1,0.1-0.2,0.1-0.3c0-0.3-0.1-0.6-0.3-0.8c-0.2-0.2-0.5-0.3-0.9-0.3c-0.3,0-0.6,0.1-0.9,0.2c-0.2,0.2-0.4,0.4-0.5,0.8
		l-0.6-0.1c0.1-0.5,0.4-0.8,0.7-1.1s0.8-0.4,1.3-0.4c0.6,0,1.1,0.1,1.4,0.4s0.5,0.7,0.5,1.1v2.4c0,0.3,0,0.6,0,0.8s0.1,0.3,0.1,0.5
		h-0.6C117.7,70,117.7,69.8,117.7,69.3z M117.3,67.5c-0.2,0-0.5,0.1-1,0.2c-0.4,0.1-0.7,0.2-1,0.3c-0.3,0.2-0.4,0.4-0.4,0.8
		c0,0.3,0.1,0.5,0.3,0.7c0.2,0.2,0.4,0.2,0.8,0.2c0.4,0,0.8-0.1,1.2-0.4c0.4-0.2,0.5-0.7,0.5-1.2v-0.8
		C117.6,67.4,117.5,67.4,117.3,67.5z"/>
	<path class="st2" d="M122.5,65.2c0.3,0.2,0.5,0.4,0.7,0.7h0v-2.8h0.6v7h-0.6v-0.9h0c-0.1,0.3-0.4,0.5-0.7,0.7
		c-0.3,0.2-0.7,0.3-1.1,0.3c-0.4,0-0.8-0.1-1.2-0.3s-0.6-0.5-0.8-0.9c-0.2-0.4-0.3-0.9-0.3-1.4s0.1-1,0.3-1.4
		c0.2-0.4,0.5-0.7,0.8-0.9c0.3-0.2,0.7-0.3,1.2-0.3C121.8,64.9,122.2,65,122.5,65.2z M122.4,69.4c0.3-0.2,0.5-0.4,0.6-0.7
		s0.2-0.7,0.2-1.1c0-0.4-0.1-0.8-0.2-1.1c-0.1-0.3-0.3-0.6-0.6-0.7c-0.3-0.2-0.5-0.3-0.9-0.3c-0.5,0-0.9,0.2-1.2,0.6
		c-0.3,0.4-0.5,0.9-0.5,1.5c0,0.6,0.2,1.2,0.5,1.5c0.3,0.4,0.7,0.6,1.2,0.6C121.9,69.7,122.1,69.6,122.4,69.4z"/>
	<path class="st2" d="M128.4,69.8c-0.4,0.3-0.8,0.4-1.5,0.4c-0.4,0-0.8-0.1-1.2-0.3s-0.6-0.5-0.8-0.9c-0.2-0.4-0.3-0.9-0.3-1.4
		c0-0.5,0.1-1,0.3-1.4c0.2-0.4,0.5-0.7,0.8-0.9c0.3-0.2,0.7-0.3,1.2-0.3c0.4,0,0.8,0.1,1.2,0.3c0.3,0.2,0.6,0.5,0.8,1
		c0.2,0.4,0.3,0.9,0.3,1.5h-3.9c0,0.6,0.2,1,0.5,1.4c0.3,0.4,0.7,0.5,1.1,0.5c0.4,0,0.8-0.1,1-0.3c0.3-0.2,0.4-0.5,0.5-0.8l0.6,0.1
		C129,69.1,128.8,69.5,128.4,69.8z M125.8,66c-0.3,0.3-0.5,0.7-0.5,1.2h3.2c0-0.5-0.2-0.9-0.5-1.2c-0.3-0.3-0.7-0.5-1.1-0.5
		C126.5,65.5,126.1,65.6,125.8,66z"/>
	<path class="st2" d="M132.8,63.1v0.8h-0.7v-0.8H132.8z M132.8,65v5h-0.6v-5H132.8z"/>
	<path class="st2" d="M134.6,65.8c0.1-0.3,0.3-0.5,0.6-0.6c0.3-0.2,0.6-0.3,1-0.3c0.5,0,1,0.2,1.3,0.5c0.3,0.3,0.5,0.7,0.5,1.3v3.4
		h-0.6V67c0-0.5-0.1-0.9-0.3-1.1c-0.2-0.2-0.5-0.4-1-0.4c-0.4,0-0.8,0.1-1.1,0.4c-0.3,0.3-0.4,0.7-0.4,1.3v2.8H134v-5h0.6
		L134.6,65.8L134.6,65.8z"/>
	<path class="st2" d="M145.5,63.7c0.3,0.3,0.5,0.8,0.5,1.3c0,0.4-0.1,0.7-0.2,0.9s-0.4,0.4-0.7,0.6v0c0.8,0.2,1.2,0.8,1.2,1.7
		c0,0.6-0.2,1.1-0.5,1.4s-0.9,0.5-1.5,0.5h-2.9v-6.9h2.9C144.7,63.2,145.2,63.4,145.5,63.7z M144,66.3c0.4,0,0.8-0.1,1-0.3
		c0.2-0.2,0.3-0.5,0.3-0.9s-0.1-0.7-0.3-0.9c-0.2-0.2-0.6-0.3-1-0.3h-2.1v2.5H144z M145.2,69.2c0.3-0.2,0.4-0.6,0.4-1
		c0-0.4-0.1-0.8-0.4-1c-0.3-0.2-0.6-0.3-1.1-0.3h-2.2v2.7h2.2C144.5,69.5,144.9,69.4,145.2,69.2z"/>
	<path class="st2" d="M150.5,65.2c0.4,0.2,0.6,0.5,0.8,0.9c0.2,0.4,0.3,0.9,0.3,1.4s-0.1,1-0.3,1.4s-0.5,0.7-0.8,0.9
		s-0.8,0.3-1.2,0.3c-0.5,0-0.9-0.1-1.2-0.3s-0.6-0.5-0.8-0.9s-0.3-0.9-0.3-1.4s0.1-1,0.3-1.4c0.2-0.4,0.5-0.7,0.8-0.9
		c0.4-0.2,0.8-0.3,1.2-0.3C149.8,64.9,150.2,65,150.5,65.2z M150.5,69.1c0.3-0.4,0.5-0.9,0.5-1.5s-0.2-1.2-0.5-1.5s-0.7-0.6-1.2-0.6
		s-0.9,0.2-1.2,0.6s-0.5,0.9-0.5,1.5s0.2,1.2,0.5,1.5s0.7,0.6,1.2,0.6S150.2,69.5,150.5,69.1z"/>
	<path class="st2" d="M153.2,63.1v7h-0.6v-7H153.2z"/>
	<path class="st2" d="M157.7,65.2c0.4,0.2,0.6,0.5,0.8,0.9c0.2,0.4,0.3,0.9,0.3,1.4s-0.1,1-0.3,1.4c-0.2,0.4-0.5,0.7-0.8,0.9
		c-0.4,0.2-0.8,0.3-1.2,0.3c-0.5,0-0.9-0.1-1.2-0.3s-0.6-0.5-0.8-0.9c-0.2-0.4-0.3-0.9-0.3-1.4s0.1-1,0.3-1.4
		c0.2-0.4,0.5-0.7,0.8-0.9c0.4-0.2,0.8-0.3,1.2-0.3C157,64.9,157.4,65,157.7,65.2z M157.7,69.1c0.3-0.4,0.5-0.9,0.5-1.5
		s-0.2-1.2-0.5-1.5c-0.3-0.4-0.7-0.6-1.2-0.6c-0.5,0-0.9,0.2-1.2,0.6s-0.5,0.9-0.5,1.5s0.2,1.2,0.5,1.5s0.7,0.6,1.2,0.6
		C157,69.7,157.4,69.5,157.7,69.1z"/>
	<path class="st2" d="M164.1,69.8c0,0.7-0.2,1.3-0.6,1.7s-1,0.5-1.6,0.5c-0.5,0-1-0.1-1.4-0.4c-0.4-0.2-0.6-0.6-0.8-1.1l0.6-0.2
		c0.1,0.4,0.3,0.6,0.6,0.8c0.3,0.2,0.6,0.3,1,0.3c0.5,0,0.9-0.1,1.2-0.4c0.3-0.3,0.4-0.7,0.4-1.3v-0.9h0c-0.1,0.3-0.3,0.5-0.7,0.7
		s-0.6,0.2-1,0.2c-0.4,0-0.8-0.1-1.2-0.3c-0.3-0.2-0.6-0.5-0.8-0.9c-0.2-0.4-0.3-0.8-0.3-1.3c0-0.5,0.1-0.9,0.3-1.3
		c0.2-0.4,0.4-0.7,0.8-0.9c0.3-0.2,0.7-0.3,1.2-0.3c0.4,0,0.7,0.1,1,0.3c0.3,0.2,0.5,0.4,0.7,0.7h0V65h0.6V69.8z M162.7,69
		c0.2-0.2,0.4-0.4,0.6-0.7s0.2-0.6,0.2-1c0-0.4-0.1-0.7-0.2-1s-0.3-0.5-0.6-0.7c-0.2-0.2-0.5-0.2-0.8-0.2c-0.5,0-0.9,0.2-1.2,0.5
		c-0.3,0.4-0.5,0.8-0.5,1.4c0,0.6,0.2,1,0.5,1.4c0.3,0.3,0.7,0.5,1.2,0.5C162.2,69.3,162.4,69.2,162.7,69z"/>
	<path class="st2" d="M165.8,65.8c0.1-0.3,0.3-0.5,0.6-0.6c0.3-0.2,0.6-0.3,1-0.3c0.5,0,1,0.2,1.3,0.5c0.3,0.3,0.5,0.7,0.5,1.3v3.4
		h-0.6V67c0-0.5-0.1-0.9-0.3-1.1c-0.2-0.2-0.5-0.4-1-0.4c-0.4,0-0.8,0.1-1.1,0.4c-0.3,0.3-0.4,0.7-0.4,1.3v2.8h-0.6v-5h0.6
		L165.8,65.8L165.8,65.8z"/>
	<path class="st2" d="M173.5,69.3c-0.2,0.3-0.5,0.5-0.8,0.7c-0.3,0.1-0.7,0.2-1.1,0.2c-0.3,0-0.6-0.1-0.8-0.2
		c-0.2-0.1-0.4-0.3-0.6-0.5c-0.1-0.2-0.2-0.5-0.2-0.8c0-0.5,0.2-0.9,0.6-1.1s0.9-0.4,1.6-0.5c0.4-0.1,0.7-0.1,0.8-0.1
		s0.3-0.1,0.4-0.2c0.1-0.1,0.1-0.2,0.1-0.3c0-0.3-0.1-0.6-0.3-0.8c-0.2-0.2-0.5-0.3-0.9-0.3c-0.3,0-0.6,0.1-0.9,0.2
		c-0.2,0.2-0.4,0.4-0.5,0.8l-0.6-0.1c0.1-0.5,0.4-0.8,0.7-1.1s0.8-0.4,1.3-0.4c0.6,0,1.1,0.1,1.4,0.4c0.3,0.3,0.5,0.7,0.5,1.1v2.4
		c0,0.3,0,0.6,0,0.8s0.1,0.3,0.1,0.5h-0.6C173.6,70,173.5,69.8,173.5,69.3z M173.1,67.5c-0.2,0-0.5,0.1-1,0.2
		c-0.4,0.1-0.7,0.2-1,0.3c-0.3,0.2-0.4,0.4-0.4,0.8c0,0.3,0.1,0.5,0.3,0.7c0.2,0.2,0.4,0.2,0.8,0.2c0.4,0,0.8-0.1,1.2-0.4
		s0.5-0.7,0.5-1.2v-0.8C173.4,67.4,173.3,67.4,173.1,67.5z"/>
</g>
</svg>
