<?xml version="1.0" encoding="utf-8"?>
<!-- Generator: Adobe Illustrator 26.1.0, SVG Export Plug-In . SVG Version: 6.00 Build 0)  -->
<svg version="1.1" id="Livello_1" xmlns="http://www.w3.org/2000/svg" xmlns:xlink="http://www.w3.org/1999/xlink" x="0px" y="0px"
	 viewBox="0 0 216.3 92" style="enable-background:new 0 0 216.3 92;" xml:space="preserve">
<style type="text/css">
	.st0{fill:#F2F2F2;}
	.st1{fill:#FFFFFF;}
	.st2{font-family:'SequelSans-BlackBody';}
	.st3{font-size:26.8176px;}
	.st4{letter-spacing:-1;}
	.st5{font-family:'SequelSans-LightHead';}
	.st6{font-size:9.6325px;}
</style>
<g id="Livello_2_00000087411520583086436570000010877799175093093546_">
	<g id="Livello_1-2">
		<path d="M78.5,78.5c-7.1,7.1-19.7,7-32.5,0.9c-12.9,6.1-25.4,6.2-32.5-0.9C31.4,96.5,60.6,96.5,78.5,78.5z"/>
		<path d="M13.5,13.5c-18,18-18,47.1,0,65.1c-7.1-7.1-7-19.7-0.9-32.5C6.5,33.1,6.4,20.6,13.5,13.5z"/>
		<path d="M78.5,13.5c-18-17.9-47-17.9-65,0c7.1-7.1,19.6-7,32.5-0.9C58.9,6.5,71.4,6.4,78.5,13.5z"/>
		<path d="M46,23.7c3.3-2,7-3.6,10.7-4.6c-3.4-2.5-7-4.7-10.7-6.5c-3.8,1.8-7.4,4-10.8,6.5C39,20.1,42.6,21.6,46,23.7z"/>
		<path d="M78.5,13.5c7.1,7.1,7,19.6,0.9,32.5c6.1,12.9,6.2,25.4-0.9,32.5C96.5,60.6,96.5,31.5,78.5,13.5L78.5,13.5z"/>
		<path class="st0" d="M46,79.4c-3.8-1.8-7.4-3.9-10.8-6.4c-5.9,1.5-10.9,0.9-14-2.2s-3.7-8.1-2.2-14l0,0c-2.5-3.4-4.6-7-6.4-10.8
			c-6.1,12.9-6.2,25.4,0.9,32.5S33.1,85.5,46,79.4z"/>
		<path class="st0" d="M78.5,13.5c-7.1-7.1-19.7-7-32.5-0.9c3.8,1.8,7.4,4,10.8,6.5l0,0c5.8-1.5,10.9-0.9,14,2.2s3.7,8.1,2.2,14
			c2.5,3.4,4.7,7,6.5,10.8C85.5,33.1,85.6,20.6,78.5,13.5z"/>
		<path d="M46,23.7c3.3-2,7-3.6,10.7-4.6c-3.4-2.5-7-4.7-10.7-6.5c-3.8,1.8-7.4,4-10.8,6.5C39,20.1,42.6,21.6,46,23.7z"/>
		<path class="st0" d="M46,12.6c-12.9-6.1-25.4-6.2-32.5,0.9s-7,19.6-0.9,32.5c1.8-3.8,3.9-7.4,6.4-10.8c-1.5-5.9-0.9-10.9,2.2-14
			s8.1-3.7,14-2.2C38.6,16.5,42.2,14.4,46,12.6z"/>
		<path d="M23.7,46c-2.1-3.4-3.6-7-4.7-10.8c-2.5,3.4-4.6,7-6.4,10.8c1.8,3.8,3.9,7.4,6.4,10.8C20,53,21.6,49.4,23.7,46z"/>
		<path d="M56.8,73c-3.8-1-7.4-2.6-10.8-4.7c-3.3,2.1-7,3.6-10.8,4.7c3.4,2.5,7,4.6,10.8,6.4C49.8,77.6,53.4,75.5,56.8,73z"/>
		<path class="st0" d="M79.4,46c-1.8,3.8-3.9,7.4-6.4,10.8l0,0c1.5,5.8,0.9,10.9-2.2,14s-8.1,3.7-14,2.2l0,0
			c-3.4,2.5-7,4.6-10.8,6.4c12.9,6.1,25.4,6.2,32.5-0.9S85.5,58.9,79.4,46z"/>
		<path d="M46,23.7c3.3-2,7-3.6,10.7-4.6c-3.4-2.5-7-4.7-10.7-6.5c-3.8,1.8-7.4,4-10.8,6.5C39,20.1,42.6,21.6,46,23.7z"/>
		<path d="M79.4,46c-1.8-3.8-3.9-7.4-6.4-10.8c-1,3.8-2.6,7.4-4.7,10.8c2.1,3.4,3.6,7,4.7,10.8C75.5,53.4,77.6,49.8,79.4,46z"/>
		<path d="M73,56.8C68.4,63,63,68.4,56.8,73c5.8,1.5,10.9,0.9,14-2.2S74.4,62.6,73,56.8z"/>
		<path class="st0" d="M73,56.8L73,56.8c-1-3.8-2.6-7.4-4.7-10.8c-2.7,4.6-6,8.8-9.8,12.5c-3.7,3.8-7.9,7.1-12.5,9.8
			c3.4,2.1,7,3.6,10.8,4.7l0,0C63,68.4,68.4,63,73,56.8z"/>
		<path class="st0" d="M46,23.7c-3.4-2-7-3.6-10.8-4.6c-3.1,2.3-6,4.8-8.7,7.5c-2.7,2.7-5.2,5.6-7.5,8.7c1,3.8,2.6,7.4,4.7,10.8
			c2.7-4.6,6-8.8,9.8-12.5C37.2,29.7,41.4,26.4,46,23.7z"/>
		<path d="M35.2,19.1c-5.9-1.5-10.9-0.9-14,2.2s-3.7,8.1-2.2,14c2.3-3.1,4.8-6,7.5-8.7C29.2,23.8,32.1,21.3,35.2,19.1z"/>
		<path class="st0" d="M46,68.3c-4.6-2.7-8.8-6-12.5-9.8c-3.8-3.7-7.1-7.9-9.8-12.5c-2.1,3.4-3.6,7-4.7,10.8l0,0
			c2.3,3.1,4.8,6,7.5,8.7c2.7,2.7,5.6,5.2,8.7,7.5C39,72,42.7,70.4,46,68.3z"/>
		<path d="M35.2,73c-3.1-2.3-6-4.8-8.7-7.5c-2.7-2.7-5.2-5.6-7.5-8.7c-1.5,5.8-0.9,10.9,2.2,14S29.4,74.5,35.2,73z"/>
		<path d="M68.3,46c-2.7-4.6-6-8.8-9.8-12.5c-3.7-3.8-7.9-7.1-12.5-9.8c-4.6,2.7-8.8,6-12.5,9.8c-3.8,3.7-7.1,7.9-9.8,12.5
			c2.7,4.6,6,8.8,9.8,12.5c3.7,3.8,7.9,7.1,12.5,9.8c4.6-2.7,8.8-6,12.5-9.8C62.3,54.8,65.6,50.6,68.3,46z"/>
		<path d="M70.8,21.3c-3.1-3.1-8.1-3.7-14-2.2c3.1,2.3,6,4.8,8.7,7.5c2.7,2.7,5.2,5.6,7.5,8.7C74.4,29.4,73.8,24.3,70.8,21.3z"/>
		<path class="st0" d="M73,35.2c-2.3-3.1-4.8-6-7.5-8.7c-2.7-2.7-5.6-5.2-8.7-7.5l0,0c-3.8,1-7.4,2.6-10.8,4.6
			c4.6,2.7,8.8,6,12.5,9.8c3.8,3.7,7.1,7.9,9.8,12.5C70.4,42.7,72,39,73,35.2z"/>
	</g>
</g>
<text transform="matrix(1 0 0 1 104.8574 46.0076)" class="st1 st2 st3 st4">BolDH</text>
<text transform="matrix(1 0 0 1 106.2217 59.0902)"><tspan x="0" y="0" class="st1 st5 st6">Digital Humanities</tspan><tspan x="0" y="11" class="st1 st5 st6">Made in Bologna</tspan></text>
</svg>
