<svg xmlns="http://www.w3.org/2000/svg" viewBox="0 0 92 92"><defs><style>.cls-1{fill:#f2f2f2;}</style></defs><g id="Livello_2" data-name="Livello 2"><g id="Livello_1-2" data-name="Livello 1"><path d="M78.53,78.53c-7.1,7.1-19.65,7-32.53.89-12.88,6.08-25.43,6.21-32.52-.89a46,46,0,0,0,65.05,0Z"/><path d="M13.48,13.48a46,46,0,0,0,0,65.05c-7.1-7.09-7-19.65-.89-32.53C6.51,33.12,6.38,20.57,13.48,13.48Z"/><path d="M78.53,13.48a46,46,0,0,0-65,0c7.09-7.1,19.64-7,32.52-.89C58.88,6.51,71.43,6.38,78.53,13.48Z"/><path d="M46,23.68a41.6,41.6,0,0,1,10.74-4.63A63.7,63.7,0,0,0,46,12.59a64.17,64.17,0,0,0-10.76,6.46A41.71,41.71,0,0,1,46,23.68Z"/><path d="M78.53,13.48c7.1,7.09,7,19.64.89,32.52,6.08,12.88,6.21,25.44-.89,32.53a46,46,0,0,0,0-65Z"/><path class="cls-1" d="M46,79.42A64.92,64.92,0,0,1,35.23,73c-5.85,1.49-10.89.88-14-2.21s-3.7-8.12-2.21-14h0A64.84,64.84,0,0,1,12.59,46c-6.08,12.88-6.21,25.44.89,32.53S33.12,85.5,46,79.42Z"/><path class="cls-1" d="M78.53,13.48c-7.1-7.1-19.65-7-32.53-.89a63.7,63.7,0,0,1,10.75,6.46h0c5.85-1.5,10.9-.89,14,2.2s3.7,8.13,2.21,14A64.92,64.92,0,0,1,79.42,46C85.5,33.12,85.63,20.57,78.53,13.48Z"/><path d="M46,23.68a41.6,41.6,0,0,1,10.74-4.63A63.7,63.7,0,0,0,46,12.59a64.17,64.17,0,0,0-10.76,6.46A41.71,41.71,0,0,1,46,23.68Z"/><path class="cls-1" d="M46,12.59c-12.88-6.08-25.43-6.21-32.52.89s-7,19.64-.89,32.52A64.84,64.84,0,0,1,19,35.23c-1.49-5.85-.87-10.89,2.21-14s8.13-3.7,14-2.2A64.17,64.17,0,0,1,46,12.59Z"/><path d="M23.68,46A42.11,42.11,0,0,1,19,35.23,64.84,64.84,0,0,0,12.59,46,64.84,64.84,0,0,0,19,56.77,41.81,41.81,0,0,1,23.68,46Z"/><path d="M56.77,73A41.56,41.56,0,0,1,46,68.32,41.33,41.33,0,0,1,35.23,73,64.92,64.92,0,0,0,46,79.42,64.51,64.51,0,0,0,56.77,73Z"/><path class="cls-1" d="M79.42,46A64.51,64.51,0,0,1,73,56.77h0c1.49,5.85.88,10.89-2.21,14s-8.12,3.7-14,2.21h0A64.51,64.51,0,0,1,46,79.42c12.88,6.08,25.43,6.21,32.53-.89S85.5,58.88,79.42,46Z"/><path d="M46,23.68a41.6,41.6,0,0,1,10.74-4.63A63.7,63.7,0,0,0,46,12.59a64.17,64.17,0,0,0-10.76,6.46A41.71,41.71,0,0,1,46,23.68Z"/><path d="M79.42,46A64.92,64.92,0,0,0,73,35.23,41.42,41.42,0,0,1,68.32,46,41.81,41.81,0,0,1,73,56.77,64.51,64.51,0,0,0,79.42,46Z"/><path d="M73,56.78A76.3,76.3,0,0,1,56.78,73c5.85,1.49,10.89.88,14-2.21S74.45,62.63,73,56.78Z"/><path class="cls-1" d="M73,56.78h0A41.81,41.81,0,0,0,68.32,46,63.94,63.94,0,0,1,58.5,58.5,64.66,64.66,0,0,1,46,68.32,41.56,41.56,0,0,0,56.77,73h0A76.3,76.3,0,0,0,73,56.78Z"/><path class="cls-1" d="M46,23.68a41.71,41.71,0,0,0-10.77-4.63,74,74,0,0,0-8.71,7.48A75,75,0,0,0,19,35.23,42.11,42.11,0,0,0,23.68,46,64.41,64.41,0,0,1,33.5,33.5,63.7,63.7,0,0,1,46,23.68Z"/><path d="M35.24,19.05c-5.86-1.5-10.9-.89-14,2.2s-3.7,8.13-2.21,14a75,75,0,0,1,7.49-8.7A74,74,0,0,1,35.24,19.05Z"/><path class="cls-1" d="M46,68.32A63.7,63.7,0,0,1,33.5,58.5,63.94,63.94,0,0,1,23.68,46,41.81,41.81,0,0,0,19,56.77h0a76,76,0,0,0,7.49,8.7A75.9,75.9,0,0,0,35.23,73,41.33,41.33,0,0,0,46,68.32Z"/><path d="M35.23,73a75.9,75.9,0,0,1-8.7-7.48A76,76,0,0,1,19,56.78c-1.49,5.85-.87,10.89,2.21,14S29.38,74.45,35.23,73Z"/><path d="M68.32,46A64.41,64.41,0,0,0,58.5,33.5,64.66,64.66,0,0,0,46,23.68,63.7,63.7,0,0,0,33.5,33.5,64.41,64.41,0,0,0,23.68,46,63.94,63.94,0,0,0,33.5,58.5,63.7,63.7,0,0,0,46,68.32,64.66,64.66,0,0,0,58.5,58.5,63.94,63.94,0,0,0,68.32,46Z"/><path d="M70.75,21.25c-3.09-3.09-8.14-3.7-14-2.2a74.12,74.12,0,0,1,8.72,7.48A75.9,75.9,0,0,1,73,35.23C74.45,29.38,73.84,24.34,70.75,21.25Z"/><path class="cls-1" d="M73,35.23a75.9,75.9,0,0,0-7.48-8.7,74.12,74.12,0,0,0-8.72-7.48h0A41.6,41.6,0,0,0,46,23.68,64.66,64.66,0,0,1,58.5,33.5,64.41,64.41,0,0,1,68.32,46,41.42,41.42,0,0,0,73,35.23Z"/></g></g></svg>