<svg viewBox="0 0 1154 311" fill="none" xmlns="http://www.w3.org/2000/svg">
<path d="M151.233 5.11998C181.193 5.11998 204.573 12.4 221.373 26.96C238.453 41.52 246.993 61.12 246.993 85.76C246.993 113.2 234.253 132.8 208.773 144.56V146.24C223.893 152.4 235.653 161.36 244.053 173.12C252.733 184.88 257.073 199.3 257.073 216.38C257.073 244.1 248.253 265.8 230.613 281.48C213.253 297.16 188.753 305 157.113 305H0.033191V5.11998H151.233ZM136.113 127.76C149.273 127.76 159.213 124.82 165.933 118.94C172.653 112.78 176.013 104.24 176.013 93.32C176.013 82.4 172.653 74 165.933 68.12C159.213 61.96 149.273 58.88 136.113 58.88H71.4332V127.76H136.113ZM141.573 249.98C155.573 249.98 166.213 246.76 173.493 240.32C180.773 233.88 184.413 224.78 184.413 213.02C184.413 201.26 180.773 192.16 173.493 185.72C166.213 179.28 155.573 176.06 141.573 176.06H71.4332V249.98H141.573ZM380.999 76.94C405.079 76.94 425.799 81.7 443.159 91.22C460.799 100.74 474.239 114.32 483.479 131.96C492.719 149.32 497.339 169.9 497.339 193.7C497.339 229.82 486.979 258.38 466.259 279.38C445.539 300.1 417.119 310.46 380.999 310.46C344.319 310.46 315.619 300.1 294.899 279.38C274.459 258.66 264.239 230.1 264.239 193.7C264.239 157.58 274.459 129.16 294.899 108.44C315.619 87.44 344.319 76.94 380.999 76.94ZM380.999 261.32C396.119 261.32 407.879 255.72 416.279 244.52C424.959 233.32 429.299 216.38 429.299 193.7C429.299 171.3 424.959 154.5 416.279 143.3C407.879 131.82 396.119 126.08 380.999 126.08C365.599 126.08 353.559 131.82 344.879 143.3C336.199 154.5 331.859 171.3 331.859 193.7C331.859 216.38 336.199 233.32 344.879 244.52C353.559 255.72 365.599 261.32 380.999 261.32ZM577.865 0.919985V305H511.085V0.919985H577.865ZM718.42 5.11998C765.74 5.11998 803.12 17.58 830.56 42.5C858.28 67.42 872.14 104.94 872.14 155.06C872.14 205.18 858.28 242.7 830.56 267.62C803.12 292.54 765.74 305 718.42 305H597.04V5.11998H718.42ZM707.5 249.56C737.74 249.56 760.56 242.28 775.96 227.72C791.64 212.88 799.48 188.66 799.48 155.06C799.48 121.46 791.64 97.38 775.96 82.82C760.56 67.98 737.74 60.56 707.5 60.56H668.44V249.56H707.5ZM1153.91 305H1082.51V182.36H959.454V305H888.054V5.11998H959.454V123.98H1082.51V5.11998H1153.91V305Z" fill="#F2F2F2"/>
</svg>
