<svg width="191" height="92" viewBox="0 0 191 92" fill="none" xmlns="http://www.w3.org/2000/svg">
<path d="M78.6993 78.5125C71.5993 85.6125 59.0493 85.5125 46.1693 79.4025C33.2893 85.4825 20.7393 85.6125 13.6493 78.5125C22.2758 87.138 33.9753 91.9837 46.1743 91.9837C58.3733 91.9837 70.0728 87.138 78.6993 78.5125Z" fill="#181616"/>
<path d="M13.6493 13.4625C5.02377 22.089 0.178101 33.7884 0.178101 45.9875C0.178101 58.1865 5.02377 69.8859 13.6493 78.5125C6.54928 71.4225 6.64928 58.8625 12.7593 45.9825C6.67928 33.1025 6.54928 20.5525 13.6493 13.4625Z" fill="#181616"/>
<path d="M78.6992 13.4625C70.0747 4.85227 58.386 0.0162964 46.1992 0.0162964C34.0124 0.0162964 22.3237 4.85227 13.6992 13.4625C20.7892 6.36249 33.3392 6.46249 46.2192 12.5725C59.0492 6.49249 71.5992 6.36249 78.6992 13.4625Z" fill="#181616"/>
<path d="M46.1693 23.6625C49.5134 21.6211 53.1291 20.0624 56.9093 19.0325C53.5504 16.5314 49.9529 14.3676 46.1693 12.5725C42.3802 14.3691 38.7763 16.5328 35.4093 19.0325C39.1959 20.062 42.8183 21.6207 46.1693 23.6625Z" fill="#181616"/>
<path d="M78.6992 13.4625C85.7992 20.5525 85.6992 33.1025 79.5892 45.9825C85.6692 58.8625 85.7992 71.4225 78.6992 78.5125C87.3094 69.888 92.1454 58.1992 92.1454 46.0125C92.1454 33.8257 87.3094 22.1369 78.6992 13.5125V13.4625Z" fill="#181616"/>
<path d="M46.1693 79.4025C42.3806 77.615 38.7738 75.465 35.3993 72.9825C29.5493 74.4725 24.5093 73.8625 21.3993 70.7725C18.2893 67.6825 17.6993 62.6525 19.1893 56.7725C16.7018 53.3924 14.5484 49.7788 12.7593 45.9825C6.6793 58.8625 6.5493 71.4225 13.6493 78.5125C20.7493 85.6025 33.2893 85.4825 46.1693 79.4025Z" fill="#F2F2F2"/>
<path d="M78.6993 13.4625C71.5993 6.36251 59.0493 6.46251 46.1693 12.5725C49.9564 14.367 53.5572 16.5308 56.9193 19.0325C62.7693 17.5325 67.8193 18.1425 70.9193 21.2325C74.0193 24.3225 74.6193 29.3625 73.1293 35.2325C75.6245 38.599 77.788 42.1991 79.5893 45.9825C85.6693 33.1025 85.7993 20.5525 78.6993 13.4625Z" fill="#F2F2F2"/>
<path d="M46.1693 23.6625C49.5134 21.6211 53.1291 20.0624 56.9093 19.0325C53.5504 16.5314 49.9529 14.3676 46.1693 12.5725C42.3802 14.3691 38.7763 16.5328 35.4093 19.0325C39.1959 20.062 42.8183 21.6207 46.1693 23.6625Z" fill="#181616"/>
<path d="M46.1693 12.5725C33.2893 6.49247 20.7393 6.36247 13.6493 13.4625C6.55931 20.5625 6.64931 33.1025 12.7593 45.9825C14.5432 42.1939 16.6899 38.5871 19.1693 35.2125C17.6793 29.3625 18.2993 24.3225 21.3793 21.2125C24.4593 18.1025 29.5093 17.5125 35.3793 19.0125C38.7566 16.518 42.3706 14.361 46.1693 12.5725Z" fill="#F2F2F2"/>
<path d="M23.8493 45.9825C21.7939 42.6287 20.2186 39.0034 19.1693 35.2125C16.6898 38.5871 14.5432 42.1939 12.7593 45.9825C14.5432 49.771 16.6898 53.3779 19.1693 56.7525C20.2148 52.9602 21.7904 49.3344 23.8493 45.9825Z" fill="#181616"/>
<path d="M56.9393 72.9825C53.1459 71.9401 49.5197 70.3644 46.1693 68.3025C42.8203 70.3671 39.1937 71.943 35.3993 72.9825C38.7737 75.465 42.3806 77.615 46.1693 79.4025C49.9592 77.6173 53.5663 75.4671 56.9393 72.9825Z" fill="#181616"/>
<path d="M79.5893 45.9825C77.8041 49.7724 75.6539 53.3795 73.1693 56.7525C74.6593 62.6025 74.0493 67.6425 70.9593 70.7525C67.8693 73.8625 62.8393 74.4525 56.9593 72.9625C53.5808 75.4552 49.967 77.6121 46.1693 79.4025C59.0493 85.4825 71.5993 85.6125 78.6993 78.5125C85.7993 71.4125 85.6693 58.8625 79.5893 45.9825Z" fill="#F2F2F2"/>
<path d="M46.1693 23.6625C49.5134 21.6211 53.1291 20.0624 56.9093 19.0325C53.5504 16.5314 49.9529 14.3676 46.1693 12.5725C42.3802 14.3691 38.7763 16.5328 35.4093 19.0325C39.1959 20.062 42.8183 21.6207 46.1693 23.6625Z" fill="#181616"/>
<path d="M79.5893 45.9825C77.8018 42.1937 75.6517 38.5869 73.1693 35.2125C72.1287 39.0065 70.5528 42.6329 68.4893 45.9825C70.5481 49.3344 72.1237 52.9602 73.1693 56.7525C75.6539 53.3794 77.804 49.7724 79.5893 45.9825Z" fill="#181616"/>
<path d="M73.1692 56.7625C68.6108 62.9557 63.1424 68.4241 56.9492 72.9825C62.7992 74.4725 67.8392 73.8625 70.9492 70.7725C74.0592 67.6825 74.6192 62.6125 73.1692 56.7625Z" fill="#181616"/>
<path d="M73.1693 56.7625C72.1246 52.9667 70.5491 49.3376 68.4893 45.9825C65.7487 50.5414 62.4499 54.7405 58.6693 58.4825C54.9224 62.2575 50.724 65.5557 46.1693 68.3025C49.5197 70.3644 53.1459 71.9401 56.9393 72.9825C63.136 68.4249 68.6079 62.9564 73.1693 56.7625Z" fill="#F2F2F2"/>
<path d="M46.1693 23.6625C42.8152 21.6198 39.1894 20.0611 35.3993 19.0325C32.3066 21.2965 29.3946 23.7973 26.6893 26.5125C23.9637 29.2157 21.4496 32.1243 19.1693 35.2125C20.2186 39.0034 21.794 42.6287 23.8493 45.9825C26.594 41.4263 29.8924 37.2277 33.6693 33.4825C37.4096 29.7001 41.609 26.401 46.1693 23.6625Z" fill="#F2F2F2"/>
<path d="M35.4093 19.0325C29.5493 17.5325 24.5093 18.1425 21.4093 21.2325C18.3093 24.3225 17.7093 29.3625 19.1993 35.2325C21.47 32.1454 23.974 29.2369 26.6893 26.5325C29.397 23.81 32.3125 21.3025 35.4093 19.0325Z" fill="#181616"/>
<path d="M46.1693 68.3025C41.609 65.5639 37.4096 62.2649 33.6693 58.4825C29.8888 54.7405 26.59 50.5414 23.8493 45.9825C21.7904 49.3344 20.2149 52.9602 19.1693 56.7525C21.4431 59.8372 23.9469 62.7455 26.6593 65.4525C29.3774 68.1806 32.2992 70.6978 35.3993 72.9825C39.1938 71.943 42.8204 70.3671 46.1693 68.3025Z" fill="#F2F2F2"/>
<path d="M35.3993 72.9825C32.3147 70.7123 29.4064 68.2118 26.6993 65.5025C23.9715 62.7842 21.4542 59.8624 19.1693 56.7625C17.6793 62.6125 18.2993 67.6525 21.3793 70.7625C24.4593 73.8725 29.5493 74.4325 35.3993 72.9825Z" fill="#181616"/>
<path d="M68.4892 45.9825C65.7446 41.4263 62.4461 37.2277 58.6692 33.4825C54.9223 29.7075 50.7239 26.4092 46.1692 23.6625C41.6089 26.401 37.4095 29.7001 33.6692 33.4825C29.8923 37.2277 26.5939 41.4263 23.8492 45.9825C26.5899 50.5414 29.8887 54.7405 33.6692 58.4825C37.4095 62.2649 41.6089 65.5639 46.1692 68.3025C50.7239 65.5557 54.9223 62.2575 58.6692 58.4825C62.4498 54.7405 65.7486 50.5414 68.4892 45.9825Z" fill="#181616"/>
<path d="M70.9193 21.2325C67.8293 18.1425 62.7793 17.5325 56.9193 19.0325C60.0151 21.2964 62.9305 23.7973 65.6393 26.5125C68.3658 29.2178 70.8831 32.1261 73.1693 35.2125C74.6193 29.3625 74.0093 24.3225 70.9193 21.2325Z" fill="#181616"/>
<path d="M73.1693 35.2125C70.8991 32.1279 68.3986 29.2196 65.6893 26.5125C62.9805 23.7973 60.0651 21.2964 56.9693 19.0325C53.1684 20.057 49.5321 21.6159 46.1693 23.6625C50.724 26.4092 54.9224 29.7075 58.6693 33.4825C62.4462 37.2277 65.7447 41.4263 68.4893 45.9825C70.5529 42.6329 72.1287 39.0065 73.1693 35.2125Z" fill="#F2F2F2"/>
<path d="M123.346 23.7142C124.446 24.6142 125.046 25.9142 125.046 27.4142C125.046 29.1142 124.246 30.4142 122.546 31.2142V31.3142C123.446 31.7142 124.246 32.3142 124.846 33.0142C125.446 33.7142 125.746 34.6142 125.746 35.6142C125.746 37.4142 125.146 38.9142 124.046 39.9142C122.846 40.9142 121.246 41.4142 119.246 41.4142H108.146V22.3142H118.746C120.646 22.3142 122.146 22.7142 123.346 23.7142ZM117.246 29.8142C117.846 29.8142 118.346 29.6142 118.646 29.3142C118.946 29.0142 119.146 28.6142 119.146 28.1142C119.146 27.6142 118.946 27.2142 118.646 26.9142C118.346 26.6142 117.846 26.4142 117.246 26.4142H113.846V29.8142H117.246ZM119.046 36.6142C119.346 36.3142 119.546 35.9142 119.546 35.3142C119.546 34.7142 119.346 34.3142 119.046 34.0142C118.746 33.7142 118.146 33.5142 117.546 33.5142H113.846V37.0142H117.546C118.246 37.1142 118.746 36.9142 119.046 36.6142Z" fill="#181616"/>
<path d="M140.145 28.8142C141.545 30.1142 142.245 32.0142 142.245 34.3142C142.245 36.7142 141.545 38.5142 140.145 39.8142C138.745 41.1142 136.845 41.8142 134.245 41.8142C131.745 41.8142 129.745 41.1142 128.345 39.8142C126.945 38.5142 126.245 36.7142 126.245 34.3142C126.245 31.9142 126.945 30.1142 128.345 28.8142C129.745 27.5142 131.645 26.8142 134.245 26.8142C136.845 26.8142 138.845 27.4142 140.145 28.8142ZM136.045 37.1142C136.445 36.6142 136.645 35.6142 136.645 34.3142C136.645 33.0142 136.445 32.0142 136.045 31.5142C135.645 30.9142 135.045 30.7142 134.345 30.7142C133.645 30.7142 133.045 31.0142 132.645 31.5142C132.245 32.1142 132.045 33.0142 132.045 34.3142C132.045 35.6142 132.245 36.6142 132.645 37.1142C133.045 37.6142 133.645 37.9142 134.345 37.9142C135.045 37.9142 135.645 37.6142 136.045 37.1142Z" fill="#181616"/>
<path d="M149.245 22.0142V41.4142H143.745V22.0142H149.245Z" fill="#181616"/>
<path d="M167.346 24.6142C169.246 26.1142 170.146 28.6142 170.146 31.9142C170.146 35.2142 169.246 37.6142 167.346 39.2142C165.546 40.7142 162.946 41.5142 159.746 41.5142H151.546V22.3142H159.746C162.946 22.3142 165.546 23.0142 167.346 24.6142ZM161.746 36.6142C162.546 36.3142 163.146 35.8142 163.546 35.1142C163.946 34.4142 164.146 33.3142 164.146 31.9142C164.146 30.5142 163.946 29.4142 163.546 28.7142C163.146 28.0142 162.546 27.4142 161.746 27.2142C160.946 26.9142 159.946 26.8142 158.746 26.8142H157.446V37.1142H158.746C159.946 37.0142 160.946 36.8142 161.746 36.6142Z" fill="#181616"/>
<path d="M190.046 41.4142H184.146V34.1142H177.846V41.4142H171.946V22.3142H177.846V29.4142H184.146V22.3142H190.046V41.4142Z" fill="#181616"/>
<path d="M112.849 48.3727C113.408 48.7087 113.856 49.0446 114.08 49.7165C114.416 50.2763 114.528 50.9482 114.528 51.844C114.528 52.7398 114.416 53.4117 114.08 53.9716C113.744 54.5314 113.408 54.9793 112.849 55.3153C112.289 55.6512 111.729 55.7632 110.945 55.7632H108.146V48.0368H110.945C111.729 47.9248 112.289 48.0368 112.849 48.3727ZM112.96 54.1955C113.52 53.6356 113.744 52.8518 113.744 51.844C113.744 50.8362 113.52 50.0524 112.96 49.4925C112.401 48.9326 111.729 48.7087 110.833 48.7087H108.929V55.0913H110.833C111.729 54.9793 112.513 54.7554 112.96 54.1955Z" fill="#181616"/>
<path d="M116.432 47.8141V48.7099H115.648V47.8141H116.432ZM116.432 49.9416V55.5404H115.76V49.9416H116.432Z" fill="#181616"/>
<path d="M122.479 55.3166C122.479 56.1004 122.255 56.7723 121.807 57.2202C121.359 57.6681 120.687 57.7801 120.015 57.7801C119.455 57.7801 118.895 57.6681 118.447 57.3321C117.999 57.1082 117.776 56.6603 117.552 56.1004L118.223 55.8765C118.335 56.3244 118.559 56.5483 118.895 56.7723C119.231 56.9962 119.567 57.1082 120.015 57.1082C120.575 57.1082 121.023 56.9962 121.359 56.6603C121.695 56.3244 121.807 55.8765 121.807 55.2046V54.1968C121.695 54.5327 121.471 54.7567 121.023 54.9806C120.687 55.2046 120.351 55.2046 119.903 55.2046C119.455 55.2046 119.007 55.0926 118.559 54.8687C118.223 54.6447 117.888 54.3088 117.664 53.8609C117.44 53.413 117.328 52.9651 117.328 52.4052C117.328 51.8453 117.44 51.3974 117.664 50.9495C117.888 50.5016 118.111 50.1657 118.559 49.9417C119.007 49.7178 119.343 49.6058 119.903 49.6058C120.351 49.6058 120.687 49.7178 121.023 49.9417C121.359 50.1657 121.583 50.3896 121.807 50.7256V49.9417H122.479V55.3166ZM120.911 54.4208C121.135 54.1968 121.359 53.9729 121.583 53.6369C121.695 53.301 121.807 52.9651 121.807 52.5172C121.807 52.0693 121.695 51.7333 121.583 51.3974C121.471 51.0615 121.247 50.8375 120.911 50.6136C120.687 50.3896 120.351 50.3896 120.015 50.3896C119.455 50.3896 119.007 50.6136 118.671 50.9495C118.335 51.3974 118.111 51.8453 118.111 52.5172C118.111 53.189 118.335 53.6369 118.671 54.0848C119.007 54.5327 119.455 54.6447 120.015 54.6447C120.351 54.7567 120.687 54.6447 120.911 54.4208Z" fill="#181616"/>
<path d="M124.494 47.8141V48.7099H123.71V47.8141H124.494ZM124.494 49.9416V55.5404H123.822V49.9416H124.494Z" fill="#181616"/>
<path d="M128.301 54.9816V55.6534C128.077 55.6534 127.853 55.6534 127.629 55.6534C127.293 55.6534 126.957 55.6534 126.845 55.5414C126.621 55.4295 126.509 55.3175 126.397 55.2055C126.285 54.9816 126.285 54.7576 126.285 54.4217V50.6145H125.278V49.9426H126.285V48.263H126.957V49.9426H128.301V50.5025H126.957V54.1977C126.957 54.5337 126.957 54.7576 127.069 54.7576C127.181 54.8696 127.405 54.8696 127.629 54.8696C127.965 55.0935 128.189 54.9816 128.301 54.9816Z" fill="#181616"/>
<path d="M132.78 54.756C132.556 55.0919 132.22 55.3158 131.884 55.5398C131.549 55.6518 131.101 55.7637 130.653 55.7637C130.317 55.7637 129.981 55.6518 129.757 55.5398C129.533 55.4278 129.309 55.2039 129.085 54.9799C128.973 54.756 128.861 54.42 128.861 54.0841C128.861 53.5242 129.085 53.0763 129.533 52.8524C129.981 52.6284 130.541 52.4045 131.325 52.2925C131.772 52.1805 132.108 52.1805 132.22 52.1805C132.332 52.1805 132.556 52.0685 132.668 51.9565C132.78 51.8446 132.78 51.7326 132.78 51.6206C132.78 51.2847 132.668 50.9488 132.444 50.7248C132.22 50.5009 131.884 50.3889 131.437 50.3889C131.101 50.3889 130.765 50.5009 130.429 50.6128C130.205 50.8368 129.981 51.0607 129.869 51.5086L129.197 51.3967C129.309 50.8368 129.645 50.5009 129.981 50.1649C130.429 49.941 130.877 49.717 131.437 49.717C132.108 49.717 132.668 49.829 133.004 50.1649C133.34 50.5009 133.564 50.9488 133.564 51.3967V54.0841C133.564 54.42 133.564 54.756 133.564 54.9799C133.564 55.2039 133.676 55.3158 133.676 55.5398H133.004C132.892 55.5398 132.78 55.3158 132.78 54.756ZM132.332 52.7404C132.108 52.7404 131.772 52.8524 131.213 52.9643C130.765 53.0763 130.429 53.1883 130.093 53.3003C129.757 53.4122 129.645 53.7482 129.645 54.1961C129.645 54.532 129.757 54.756 129.981 54.9799C130.205 55.2039 130.429 55.2039 130.877 55.2039C131.325 55.2039 131.772 55.0919 132.22 54.756C132.668 54.42 132.78 53.9721 132.78 53.4122V52.5164C132.668 52.6284 132.556 52.6284 132.332 52.7404Z" fill="#181616"/>
<path d="M135.467 47.8141V55.6524H134.795V47.8141H135.467Z" fill="#181616"/>
<path d="M145.098 55.6516H144.314V52.0684H139.947V55.6516H139.163V47.9253H139.947V51.3966H144.314V47.9253H145.098V55.6516Z" fill="#181616"/>
<path d="M150.249 54.7565C150.137 54.9804 149.913 55.3163 149.577 55.4283C149.241 55.6523 148.905 55.7642 148.457 55.7642C147.897 55.7642 147.337 55.5403 147.002 55.2044C146.666 54.8684 146.442 54.4205 146.442 53.7487V49.9415H147.114V53.4127C147.114 53.9726 147.225 54.4205 147.449 54.6445C147.673 54.8684 148.009 55.0924 148.569 55.0924C149.017 55.0924 149.465 54.9804 149.801 54.6445C150.137 54.3086 150.249 53.8607 150.249 53.1888V49.9415H150.921V55.5403H150.249V54.7565Z" fill="#181616"/>
<path d="M159.43 50.3889C159.766 50.7248 159.99 51.1727 159.99 51.8446V55.6518H159.318V52.1805C159.318 51.6206 159.206 51.1727 158.983 50.9488C158.759 50.7248 158.423 50.5009 157.975 50.5009C157.527 50.5009 157.191 50.6128 156.855 50.9488C156.519 51.2847 156.407 51.7326 156.407 52.4045V55.6518H155.735V52.1805C155.735 51.6206 155.623 51.1727 155.399 50.9488C155.175 50.7248 154.839 50.5009 154.392 50.5009C153.944 50.5009 153.608 50.6128 153.272 50.9488C152.936 51.2847 152.824 51.7326 152.824 52.4045V55.5398H152.152V49.941H152.824V50.8368C152.936 50.5009 153.16 50.2769 153.496 50.1649C153.832 49.941 154.168 49.829 154.503 49.829C154.839 49.829 155.175 49.941 155.511 50.053C155.847 50.2769 155.959 50.5009 156.183 50.8368C156.407 50.5009 156.631 50.2769 156.967 50.053C157.303 49.829 157.639 49.717 158.087 49.717C158.647 49.829 159.095 50.053 159.43 50.3889Z" fill="#181616"/>
<path d="M164.694 54.756C164.47 55.0919 164.134 55.3158 163.798 55.5398C163.462 55.6518 163.014 55.7637 162.566 55.7637C162.23 55.7637 161.894 55.6518 161.67 55.5398C161.446 55.4278 161.222 55.2039 160.998 54.9799C160.886 54.756 160.774 54.42 160.774 54.0841C160.774 53.5242 160.998 53.0763 161.446 52.8524C161.894 52.6284 162.454 52.4045 163.238 52.2925C163.686 52.1805 164.022 52.1805 164.134 52.1805C164.246 52.1805 164.47 52.0685 164.582 51.9565C164.694 51.8446 164.694 51.7326 164.694 51.6206C164.694 51.2847 164.582 50.9488 164.358 50.7248C164.134 50.5009 163.798 50.3889 163.35 50.3889C163.014 50.3889 162.678 50.5009 162.342 50.6128C162.118 50.8368 161.894 51.0607 161.782 51.5086L161.11 51.3967C161.222 50.8368 161.558 50.5009 161.894 50.1649C162.23 49.829 162.79 49.717 163.35 49.717C164.022 49.717 164.582 49.829 164.918 50.1649C165.253 50.5009 165.477 50.9488 165.477 51.3967V54.0841C165.477 54.42 165.477 54.756 165.477 54.9799C165.477 55.2039 165.589 55.3158 165.589 55.5398H164.918C164.806 55.5398 164.694 55.3158 164.694 54.756ZM164.246 52.7404C164.022 52.7404 163.686 52.8524 163.126 52.9643C162.678 53.0763 162.342 53.1883 162.006 53.3003C161.67 53.5242 161.558 53.7482 161.558 54.1961C161.558 54.532 161.67 54.756 161.894 54.9799C162.118 55.2039 162.342 55.2039 162.79 55.2039C163.238 55.2039 163.686 55.0919 164.134 54.756C164.582 54.532 164.694 53.9721 164.694 53.4122V52.5164C164.582 52.6284 164.47 52.6284 164.246 52.7404Z" fill="#181616"/>
<path d="M167.381 50.838C167.493 50.5021 167.717 50.2781 168.052 50.1662C168.388 49.9422 168.724 49.8302 169.172 49.8302C169.732 49.8302 170.292 50.0542 170.628 50.3901C170.964 50.7261 171.188 51.174 171.188 51.8458V55.653H170.516V52.1817C170.516 51.6219 170.404 51.174 170.18 50.95C169.956 50.7261 169.62 50.5021 169.06 50.5021C168.612 50.5021 168.164 50.6141 167.829 50.95C167.493 51.2859 167.381 51.7338 167.381 52.4057V55.541H166.709V49.9422H167.381V50.838Z" fill="#181616"/>
<path d="M173.204 47.8141V48.7099H172.42V47.8141H173.204ZM173.204 49.9416V55.5404H172.532V49.9416H173.204Z" fill="#181616"/>
<path d="M177.011 54.9816V55.6534C176.787 55.6534 176.563 55.6534 176.339 55.6534C176.003 55.6534 175.667 55.6534 175.555 55.5414C175.331 55.4295 175.219 55.3175 175.107 55.2055C174.995 54.9816 174.995 54.7576 174.995 54.4217V50.6145H173.987V49.9426H174.995V48.263H175.667V49.9426H177.011V50.5025H175.667V54.1977C175.667 54.5337 175.667 54.7576 175.779 54.7576C175.891 54.8696 176.115 54.8696 176.339 54.8696C176.675 55.0935 176.787 54.9816 177.011 54.9816Z" fill="#181616"/>
<path d="M178.69 47.8141V48.7099H177.906V47.8141H178.69ZM178.69 49.9416V55.5404H178.018V49.9416H178.69Z" fill="#181616"/>
<path d="M183.841 55.3163C183.393 55.6523 182.945 55.7642 182.161 55.7642C181.714 55.7642 181.266 55.6523 180.818 55.4283C180.482 55.2044 180.146 54.8684 179.922 54.4205C179.698 53.9726 179.586 53.4127 179.586 52.8529C179.586 52.293 179.698 51.7331 179.922 51.2852C180.146 50.8373 180.482 50.5014 180.818 50.2774C181.154 50.0535 181.602 49.9415 182.161 49.9415C182.721 49.9415 183.057 50.0535 183.505 50.2774C183.953 50.5014 184.177 50.8373 184.401 51.3972C184.625 51.8451 184.737 52.405 184.737 53.0768H180.37C180.37 53.7487 180.594 54.1966 180.93 54.6445C181.266 55.0924 181.714 55.2044 182.161 55.2044C182.609 55.2044 183.057 55.0924 183.281 54.8684C183.617 54.6445 183.729 54.3086 183.841 53.9726L184.513 54.0846C184.513 54.5325 184.289 54.9804 183.841 55.3163ZM180.93 51.0612C180.594 51.3972 180.37 51.8451 180.37 52.405H183.953C183.953 51.8451 183.729 51.3972 183.393 51.0612C183.057 50.7253 182.609 50.5014 182.161 50.5014C181.714 50.5014 181.266 50.6133 180.93 51.0612Z" fill="#181616"/>
<path d="M188.656 50.7261C188.32 50.5021 187.984 50.3901 187.648 50.3901C187.2 50.3901 186.865 50.5021 186.641 50.6141C186.417 50.838 186.305 51.062 186.305 51.2859C186.305 51.5099 186.417 51.7338 186.641 51.8458C186.865 51.9578 187.2 52.0698 187.536 52.1817L188.208 52.2937C188.768 52.4057 189.216 52.5177 189.552 52.7416C189.888 52.9656 190 53.3015 190 53.8614C190 54.4213 189.776 54.8692 189.328 55.0931C188.88 55.4291 188.32 55.541 187.76 55.541C187.088 55.541 186.529 55.4291 186.081 55.0931C185.633 54.7572 185.409 54.3093 185.297 53.8614L185.969 53.7494C186.081 54.1973 186.193 54.5332 186.529 54.7572C186.865 54.9811 187.2 55.0931 187.648 55.0931C188.096 55.0931 188.432 54.9811 188.768 54.7572C189.104 54.5332 189.216 54.3093 189.216 53.9734C189.216 53.6374 189.104 53.4135 188.88 53.3015C188.656 53.1895 188.32 53.0776 187.872 52.9656L187.312 52.8536C186.753 52.7416 186.417 52.6297 186.081 52.4057C185.745 52.1817 185.633 51.8458 185.633 51.3979C185.633 50.95 185.857 50.5021 186.193 50.2781C186.529 49.9422 187.089 49.8302 187.648 49.8302C187.984 49.8302 188.32 49.9422 188.656 50.0542C188.992 50.1662 189.216 50.3901 189.44 50.6141C189.664 50.838 189.776 51.174 189.776 51.3979L189.104 51.5099C189.104 51.2859 188.88 50.95 188.656 50.7261Z" fill="#181616"/>
<path d="M115.2 67.8573H114.528V61.2507L111.953 67.8573H111.393L108.817 61.2507V67.8573H108.146V60.131H109.153L111.729 66.7376L114.304 60.131H115.312V67.8573H115.2Z" fill="#181616"/>
<path d="M120.127 66.9616C119.903 67.2976 119.567 67.5215 119.231 67.7455C118.895 67.8574 118.447 67.9694 117.999 67.9694C117.663 67.9694 117.328 67.8574 117.104 67.7455C116.88 67.6335 116.656 67.4095 116.432 67.1856C116.32 66.9616 116.208 66.6257 116.208 66.2898C116.208 65.7299 116.432 65.282 116.88 65.058C117.328 64.8341 117.887 64.6101 118.671 64.4981C119.119 64.3862 119.455 64.3862 119.567 64.3862C119.679 64.3862 119.903 64.2742 120.015 64.1622C120.127 64.0502 120.127 63.9383 120.127 63.8263C120.127 63.4904 120.015 63.1544 119.791 62.9305C119.567 62.7065 119.231 62.5946 118.783 62.5946C118.447 62.5946 118.111 62.7065 117.775 62.8185C117.551 63.0425 117.328 63.2664 117.216 63.7143L116.544 63.6023C116.656 63.0425 116.992 62.7065 117.328 62.3706C117.663 62.0347 118.223 61.9227 118.783 61.9227C119.455 61.9227 120.015 62.0347 120.351 62.3706C120.687 62.7065 120.911 63.1544 120.911 63.6023V66.2898C120.911 66.6257 120.911 66.9616 120.911 67.1856C120.911 67.4095 121.023 67.5215 121.023 67.7455H120.351C120.127 67.7455 120.127 67.5215 120.127 66.9616ZM119.679 64.9461C119.455 64.9461 119.119 65.058 118.559 65.17C118.111 65.282 117.775 65.394 117.44 65.5059C117.104 65.7299 116.992 65.9538 116.992 66.4017C116.992 66.7377 117.104 66.9616 117.328 67.1856C117.551 67.4095 117.775 67.4095 118.223 67.4095C118.671 67.4095 119.119 67.2976 119.567 66.9616C120.015 66.7377 120.127 66.1778 120.127 65.6179V64.7221C120.015 64.8341 119.903 64.8341 119.679 64.9461Z" fill="#181616"/>
<path d="M125.502 62.3712C125.838 62.5952 126.062 62.8192 126.286 63.1551V60.0197H126.958V67.8581H126.286V66.8503C126.174 67.1862 125.838 67.4102 125.502 67.6341C125.166 67.8581 124.718 67.9701 124.27 67.9701C123.822 67.9701 123.374 67.8581 122.926 67.6341C122.479 67.4102 122.255 67.0742 122.031 66.6263C121.807 66.1784 121.695 65.6186 121.695 65.0587C121.695 64.4988 121.807 63.9389 122.031 63.491C122.255 63.0431 122.591 62.7072 122.926 62.4832C123.262 62.2593 123.71 62.1473 124.27 62.1473C124.718 62.0353 125.166 62.1473 125.502 62.3712ZM125.39 67.0742C125.726 66.8503 125.95 66.6263 126.062 66.2904C126.174 65.9545 126.286 65.5066 126.286 65.0587C126.286 64.6108 126.174 64.1629 126.062 63.8269C125.95 63.491 125.726 63.1551 125.39 63.0431C125.054 62.8192 124.83 62.7072 124.382 62.7072C123.822 62.7072 123.374 62.9311 123.038 63.379C122.702 63.8269 122.479 64.3868 122.479 65.0587C122.479 65.7305 122.702 66.4024 123.038 66.7383C123.374 67.1862 123.822 67.4102 124.382 67.4102C124.83 67.4102 125.054 67.2982 125.39 67.0742Z" fill="#181616"/>
<path d="M132.109 67.522C131.661 67.858 131.213 67.9699 130.429 67.9699C129.981 67.9699 129.533 67.858 129.085 67.634C128.637 67.4101 128.413 67.0741 128.189 66.6262C127.965 66.1783 127.854 65.6184 127.854 65.0586C127.854 64.4987 127.965 63.9388 128.189 63.4909C128.413 63.043 128.749 62.7071 129.085 62.4831C129.421 62.2592 129.869 62.1472 130.429 62.1472C130.877 62.1472 131.325 62.2592 131.773 62.4831C132.109 62.7071 132.445 63.043 132.668 63.6029C132.892 64.0508 133.004 64.6107 133.004 65.2825H128.637C128.637 65.9544 128.861 66.4023 129.197 66.8502C129.533 67.2981 129.981 67.41 130.429 67.41C130.877 67.41 131.325 67.2981 131.549 67.0741C131.885 66.8502 131.997 66.5142 132.109 66.1783L132.78 66.2903C132.78 66.7382 132.557 67.1861 132.109 67.522ZM129.197 63.2669C128.861 63.6029 128.637 64.0508 128.637 64.6106H132.221C132.221 64.0508 131.997 63.6029 131.661 63.2669C131.325 62.931 130.877 62.7071 130.429 62.7071C129.981 62.7071 129.533 62.819 129.197 63.2669Z" fill="#181616"/>
<path d="M137.035 60.0197V60.9156H136.251V60.0197H137.035ZM137.035 62.1473V67.7461H136.363V62.1473H137.035Z" fill="#181616"/>
<path d="M139.051 63.0437C139.163 62.7078 139.387 62.4838 139.723 62.3719C140.059 62.1479 140.394 62.0359 140.842 62.0359C141.402 62.0359 141.962 62.2599 142.298 62.5958C142.634 62.9317 142.858 63.3796 142.858 64.0515V67.8587H142.186V64.3874C142.186 63.8276 142.074 63.3796 141.85 63.1557C141.626 62.9317 141.29 62.7078 140.73 62.7078C140.283 62.7078 139.835 62.8198 139.499 63.1557C139.163 63.4916 139.051 63.9395 139.051 64.6114V67.7467H138.379V62.1479H139.051V63.0437Z" fill="#181616"/>
<path d="M151.256 60.6909C151.592 61.0268 151.816 61.5867 151.816 62.1466C151.816 62.5945 151.704 62.9304 151.592 63.1543C151.48 63.3783 151.144 63.6022 150.808 63.8262C151.704 64.0501 152.152 64.722 152.152 65.7298C152.152 66.4016 151.928 66.9615 151.592 67.2975C151.256 67.6334 150.584 67.8573 149.912 67.8573H146.665V60.131H149.912C150.36 60.131 150.92 60.3549 151.256 60.6909ZM149.576 63.6022C150.024 63.6022 150.472 63.4903 150.696 63.2663C150.92 63.0424 151.032 62.7064 151.032 62.2585C151.032 61.8106 150.92 61.4747 150.696 61.2507C150.472 61.0268 150.024 60.9148 149.576 60.9148H147.225V63.7142H149.576V63.6022ZM150.92 66.8495C151.256 66.6256 151.368 66.1777 151.368 65.7298C151.368 65.2819 151.256 64.834 150.92 64.61C150.584 64.3861 150.248 64.2741 149.688 64.2741H147.225V67.2975H149.688C150.136 67.1855 150.584 67.0735 150.92 66.8495Z" fill="#181616"/>
<path d="M156.855 62.3719C157.303 62.5958 157.527 62.9317 157.751 63.3796C157.975 63.8276 158.087 64.3874 158.087 64.9473C158.087 65.5072 157.975 66.0671 157.751 66.515C157.527 66.9629 157.191 67.2988 156.855 67.5228C156.519 67.7467 155.96 67.8587 155.512 67.8587C154.952 67.8587 154.504 67.7467 154.168 67.5228C153.832 67.2988 153.496 66.9629 153.272 66.515C153.048 66.0671 152.936 65.5072 152.936 64.9473C152.936 64.3874 153.048 63.8276 153.272 63.3796C153.496 62.9317 153.832 62.5958 154.168 62.3719C154.616 62.1479 155.064 62.0359 155.512 62.0359C156.071 62.0359 156.519 62.1479 156.855 62.3719ZM156.855 66.7389C157.191 66.291 157.415 65.7311 157.415 65.0593C157.415 64.3874 157.191 63.7156 156.855 63.3796C156.519 63.0437 156.071 62.7078 155.512 62.7078C154.952 62.7078 154.504 62.9317 154.168 63.3796C153.832 63.8276 153.608 64.3874 153.608 65.0593C153.608 65.7311 153.832 66.403 154.168 66.7389C154.504 67.0749 154.952 67.4108 155.512 67.4108C156.071 67.4108 156.519 67.1868 156.855 66.7389Z" fill="#181616"/>
<path d="M159.879 60.0197V67.8581H159.207V60.0197H159.879Z" fill="#181616"/>
<path d="M164.918 62.3719C165.365 62.5958 165.589 62.9317 165.813 63.3796C166.037 63.8276 166.149 64.3874 166.149 64.9473C166.149 65.5072 166.037 66.0671 165.813 66.515C165.589 66.9629 165.254 67.2988 164.918 67.5228C164.47 67.7467 164.022 67.8587 163.574 67.8587C163.014 67.8587 162.566 67.7467 162.23 67.5228C161.894 67.2988 161.558 66.9629 161.334 66.515C161.11 66.0671 160.998 65.5072 160.998 64.9473C160.998 64.3874 161.11 63.8276 161.334 63.3796C161.558 62.9317 161.894 62.5958 162.23 62.3719C162.678 62.1479 163.126 62.0359 163.574 62.0359C164.134 62.0359 164.582 62.1479 164.918 62.3719ZM164.918 66.7389C165.254 66.291 165.477 65.7311 165.477 65.0593C165.477 64.3874 165.254 63.7156 164.918 63.3796C164.582 62.9317 164.134 62.7078 163.574 62.7078C163.014 62.7078 162.566 62.9317 162.23 63.3796C161.894 63.8276 161.67 64.3874 161.67 65.0593C161.67 65.7311 161.894 66.403 162.23 66.7389C162.566 67.0749 163.014 67.4108 163.574 67.4108C164.134 67.4108 164.582 67.1868 164.918 66.7389Z" fill="#181616"/>
<path d="M172.084 67.5223C172.084 68.3061 171.86 68.9779 171.412 69.4258C170.964 69.8738 170.293 69.9857 169.621 69.9857C169.061 69.9857 168.501 69.8738 168.053 69.5378C167.605 69.3139 167.381 68.866 167.157 68.3061L167.829 68.0821C167.941 68.53 168.165 68.754 168.501 68.9779C168.837 69.2019 169.173 69.3139 169.621 69.3139C170.181 69.3139 170.628 69.2019 170.964 68.866C171.3 68.53 171.412 68.0821 171.412 67.4103V66.4025C171.3 66.7384 171.076 66.9624 170.628 67.1863C170.181 67.4103 169.957 67.4103 169.509 67.4103C169.061 67.4103 168.613 67.2983 168.165 67.0743C167.829 66.8504 167.493 66.5145 167.269 66.0666C167.045 65.6187 166.933 65.1707 166.933 64.6109C166.933 64.051 167.045 63.6031 167.269 63.1552C167.493 62.7073 167.717 62.3713 168.165 62.1474C168.501 61.9234 168.949 61.8115 169.509 61.8115C169.957 61.8115 170.293 61.9234 170.628 62.1474C170.964 62.3713 171.188 62.5953 171.412 62.9312V62.1474H172.084V67.5223ZM170.516 66.6264C170.74 66.4025 170.964 66.1785 171.188 65.8426C171.412 65.5067 171.412 65.1708 171.412 64.7229C171.412 64.2749 171.3 63.939 171.188 63.6031C171.076 63.2672 170.852 63.0432 170.516 62.8192C170.293 62.5953 169.957 62.5953 169.621 62.5953C169.061 62.5953 168.613 62.8193 168.277 63.1552C167.941 63.6031 167.717 64.051 167.717 64.7229C167.717 65.3947 167.941 65.8426 168.277 66.2905C168.613 66.6264 169.061 66.8504 169.621 66.8504C169.957 66.9624 170.181 66.8504 170.516 66.6264Z" fill="#181616"/>
<path d="M173.988 63.0437C174.1 62.7078 174.324 62.4838 174.66 62.3719C174.996 62.1479 175.331 62.0359 175.779 62.0359C176.339 62.0359 176.899 62.2599 177.235 62.5958C177.571 62.9317 177.795 63.3796 177.795 64.0515V67.8587H177.123V64.3874C177.123 63.8276 177.011 63.3796 176.787 63.1557C176.563 62.9317 176.227 62.7078 175.667 62.7078C175.22 62.7078 174.772 62.8198 174.436 63.1557C174.1 63.4916 173.988 63.9395 173.988 64.6114V67.7467H173.316V62.1479H173.988V63.0437Z" fill="#181616"/>
<path d="M182.61 66.9616C182.386 67.2976 182.05 67.5215 181.714 67.7455C181.378 67.8574 180.93 67.9694 180.482 67.9694C180.146 67.9694 179.81 67.8574 179.586 67.7455C179.363 67.6335 179.139 67.4095 178.915 67.1856C178.803 66.9616 178.691 66.6257 178.691 66.2898C178.691 65.7299 178.915 65.282 179.363 65.058C179.81 64.8341 180.37 64.6101 181.154 64.4981C181.602 64.3862 181.938 64.3862 182.05 64.3862C182.162 64.3862 182.386 64.2742 182.498 64.1622C182.61 64.0502 182.61 63.9383 182.61 63.8263C182.61 63.4904 182.498 63.1544 182.274 62.9305C182.05 62.7065 181.714 62.5946 181.266 62.5946C180.93 62.5946 180.594 62.7065 180.258 62.8185C180.034 63.0425 179.81 63.2664 179.698 63.7143L179.027 63.6023C179.139 63.0425 179.475 62.7065 179.81 62.3706C180.146 62.0347 180.706 61.9227 181.266 61.9227C181.938 61.9227 182.498 62.0347 182.834 62.3706C183.17 62.7065 183.394 63.1544 183.394 63.6023V66.2898C183.394 66.6257 183.394 66.9616 183.394 67.1856C183.394 67.4095 183.506 67.5215 183.506 67.7455H182.834C182.722 67.7455 182.61 67.5215 182.61 66.9616ZM182.162 64.9461C181.938 64.9461 181.602 65.058 181.042 65.17C180.594 65.282 180.258 65.394 179.922 65.5059C179.586 65.7299 179.475 65.9538 179.475 66.4017C179.475 66.7377 179.586 66.9616 179.81 67.1856C180.034 67.4095 180.258 67.4095 180.706 67.4095C181.154 67.4095 181.602 67.2976 182.05 66.9616C182.498 66.6257 182.61 66.1778 182.61 65.6179V64.7221C182.498 64.8341 182.386 64.8341 182.162 64.9461Z" fill="#181616"/>
</svg>
