<svg width="175" height="76" viewBox="0 0 175 76" fill="none" xmlns="http://www.w3.org/2000/svg">
<path d="M37.9195 15.6808C41.2637 13.6394 44.8794 12.0807 48.6595 11.0508C45.3006 8.54965 41.7032 6.38584 37.9195 4.59079C34.1304 6.38737 30.5265 8.55105 27.1595 11.0508C30.9462 12.0803 34.5685 13.639 37.9195 15.6808Z" fill="#181616"/>
<path d="M37.9195 71.4208C34.1308 69.6333 30.524 67.4832 27.1495 65.0008C21.2995 66.4908 16.2595 65.8808 13.1495 62.7908C10.0395 59.7008 9.44955 54.6708 10.9395 48.7908C8.45208 45.4107 6.29864 41.797 4.50955 38.0008C-1.57045 50.8808 -1.70045 63.4408 5.39955 70.5308C12.4995 77.6208 25.0395 77.5008 37.9195 71.4208Z" fill="#F2F2F2"/>
<path d="M70.4496 5.48079C63.3496 -1.61921 50.7996 -1.51921 37.9196 4.59079C41.7067 6.38527 45.3074 8.54908 48.6696 11.0508C54.5196 9.55079 59.5696 10.1608 62.6696 13.2508C65.7696 16.3408 66.3696 21.3808 64.8796 27.2508C67.3748 30.6172 69.5382 34.2174 71.3396 38.0008C77.4196 25.1208 77.5496 12.5708 70.4496 5.48079Z" fill="#F2F2F2"/>
<path d="M37.9195 15.6808C41.2637 13.6394 44.8794 12.0807 48.6595 11.0508C45.3006 8.54965 41.7032 6.38584 37.9195 4.59079C34.1304 6.38737 30.5265 8.55105 27.1595 11.0508C30.9462 12.0803 34.5685 13.639 37.9195 15.6808Z" fill="#181616"/>
<path d="M37.9195 4.59075C25.0395 -1.48925 12.4895 -1.61925 5.39955 5.48075C-1.69045 12.5808 -1.60045 25.1208 4.50955 38.0008C6.29343 34.2122 8.44012 30.6053 10.9195 27.2308C9.42955 21.3808 10.0495 16.3408 13.1295 13.2308C16.2095 10.1208 21.2595 9.53076 27.1295 11.0308C30.5069 8.53626 34.1209 6.37926 37.9195 4.59075Z" fill="#F2F2F2"/>
<path d="M15.5995 38.0007C13.5442 34.6469 11.9689 31.0217 10.9195 27.2307C8.44009 30.6053 6.2934 34.2122 4.50952 38.0007C6.2934 41.7893 8.44009 45.3962 10.9195 48.7707C11.9651 44.9785 13.5406 41.3527 15.5995 38.0007Z" fill="#181616"/>
<path d="M48.6895 65.0008C44.8961 63.9584 41.2699 62.3826 37.9195 60.3208C34.5706 62.3854 30.944 63.9613 27.1495 65.0008C30.524 67.4832 34.1308 69.6333 37.9195 71.4208C41.7095 69.6356 45.3165 67.4854 48.6895 65.0008Z" fill="#181616"/>
<path d="M71.3396 38.0008C69.5543 41.7907 67.4042 45.3977 64.9196 48.7708C66.4096 54.6208 65.7996 59.6608 62.7096 62.7708C59.6196 65.8808 54.5896 66.4708 48.7096 64.9808C45.331 67.4734 41.7172 69.6303 37.9196 71.4208C50.7996 77.5008 63.3496 77.6308 70.4496 70.5308C77.5496 63.4308 77.4196 50.8808 71.3396 38.0008Z" fill="#F2F2F2"/>
<path d="M37.9195 15.6808C41.2637 13.6394 44.8794 12.0807 48.6595 11.0508C45.3006 8.54965 41.7032 6.38584 37.9195 4.59079C34.1304 6.38737 30.5265 8.55105 27.1595 11.0508C30.9462 12.0803 34.5685 13.639 37.9195 15.6808Z" fill="#181616"/>
<path d="M71.3395 38.0007C69.552 34.212 67.402 30.6052 64.9195 27.2307C63.8789 31.0248 62.3031 34.6512 60.2395 38.0007C62.2984 41.3527 63.8739 44.9785 64.9195 48.7707C67.4041 45.3977 69.5543 41.7907 71.3395 38.0007Z" fill="#181616"/>
<path d="M64.9196 48.7808C60.3612 54.9739 54.8927 60.4424 48.6996 65.0008C54.5496 66.4908 59.5896 65.8808 62.6996 62.7908C65.8096 59.7008 66.3696 54.6308 64.9196 48.7808Z" fill="#181616"/>
<path d="M64.9196 48.7808C63.8749 44.985 62.2993 41.3558 60.2396 38.0008C57.4989 42.5597 54.2001 46.7588 50.4196 50.5008C46.6726 54.2758 42.4743 57.574 37.9196 60.3208C41.27 62.3826 44.8961 63.9584 48.6896 65.0008C54.8862 60.4431 60.3581 54.9746 64.9196 48.7808Z" fill="#F2F2F2"/>
<path d="M37.9196 15.6808C34.5654 13.6381 30.9396 12.0794 27.1496 11.0508C24.0569 13.3148 21.1448 15.8156 18.4396 18.5308C15.7139 21.234 13.1999 24.1426 10.9196 27.2308C11.9689 31.0217 13.5442 34.647 15.5996 38.0008C18.3442 33.4446 21.6427 29.246 25.4196 25.5008C29.1599 21.7183 33.3592 18.4193 37.9196 15.6808Z" fill="#F2F2F2"/>
<path d="M27.1596 11.0508C21.2996 9.55075 16.2596 10.1608 13.1596 13.2508C10.0596 16.3408 9.45956 21.3808 10.9496 27.2508C13.2203 24.1637 15.7243 21.2551 18.4396 18.5508C21.1472 15.8283 24.0627 13.3207 27.1596 11.0508Z" fill="#181616"/>
<path d="M37.9196 60.3208C33.3592 57.5822 29.1599 54.2832 25.4196 50.5008C21.639 46.7588 18.3402 42.5597 15.5996 38.0008C13.5407 41.3527 11.9651 44.9785 10.9196 48.7708C13.1933 51.8554 15.6971 54.7637 18.4096 57.4708C21.1276 60.1989 24.0494 62.7161 27.1496 65.0008C30.944 63.9613 34.5706 62.3854 37.9196 60.3208Z" fill="#F2F2F2"/>
<path d="M27.1495 65.0008C24.0649 62.7305 21.1566 60.2301 18.4495 57.5208C15.7217 54.8024 13.2045 51.8807 10.9195 48.7808C9.42951 54.6308 10.0495 59.6708 13.1295 62.7808C16.2095 65.8908 21.2995 66.4508 27.1495 65.0008Z" fill="#181616"/>
<path d="M60.2396 38.0008C57.495 33.4446 54.1965 29.246 50.4196 25.5008C46.6727 21.7258 42.4743 18.4275 37.9196 15.6808C33.3593 18.4193 29.1599 21.7183 25.4196 25.5008C21.6427 29.246 18.3443 33.4446 15.5996 38.0008C18.3403 42.5597 21.6391 46.7588 25.4196 50.5008C29.1599 54.2832 33.3593 57.5822 37.9196 60.3208C42.4743 57.574 46.6727 54.2757 50.4196 50.5008C54.2001 46.7588 57.499 42.5597 60.2396 38.0008Z" fill="#181616"/>
<path d="M62.6696 13.2508C59.5796 10.1608 54.5296 9.55075 48.6696 11.0508C51.7654 13.3147 54.6808 15.8156 57.3896 18.5308C60.1161 21.2361 62.6333 24.1444 64.9196 27.2308C66.3696 21.3808 65.7596 16.3408 62.6696 13.2508Z" fill="#181616"/>
<path d="M64.9196 27.2308C62.6493 24.1462 60.1488 21.2379 57.4396 18.5308C54.7308 15.8156 51.8154 13.3147 48.7196 11.0508C44.9186 12.0753 41.2824 13.6342 37.9196 15.6808C42.4743 18.4275 46.6726 21.7258 50.4196 25.5008C54.1965 29.246 57.4949 33.4446 60.2396 38.0008C62.3031 34.6512 63.879 31.0248 64.9196 27.2308Z" fill="#F2F2F2"/>
<path d="M107.041 15.6498C108.141 16.5498 108.741 17.8498 108.741 19.3498C108.741 21.0498 107.941 22.3498 106.241 23.1498V23.2498C107.141 23.6498 107.941 24.2498 108.541 24.9498C109.141 25.6498 109.441 26.5498 109.441 27.5498C109.441 29.3498 108.841 30.8498 107.741 31.8498C106.541 32.8498 104.941 33.3498 102.941 33.3498H91.8412V14.2498H102.441C104.341 14.2498 105.841 14.6498 107.041 15.6498ZM100.941 21.7498C101.541 21.7498 102.041 21.5498 102.341 21.2498C102.641 20.9498 102.841 20.5498 102.841 20.0498C102.841 19.5498 102.641 19.1498 102.341 18.8498C102.041 18.5498 101.541 18.3498 100.941 18.3498H97.5412V21.7498H100.941ZM102.741 28.5498C103.041 28.2498 103.241 27.8498 103.241 27.2498C103.241 26.6498 103.041 26.2498 102.741 25.9498C102.441 25.6498 101.841 25.4498 101.241 25.4498H97.5412V28.9498H101.241C101.941 29.0498 102.441 28.8498 102.741 28.5498Z" fill="#F2F2F2"/>
<path d="M123.841 20.7498C125.241 22.0498 125.941 23.9498 125.941 26.2498C125.941 28.6498 125.241 30.4498 123.841 31.7498C122.441 33.0498 120.541 33.7498 117.941 33.7498C115.441 33.7498 113.441 33.0498 112.041 31.7498C110.641 30.4498 109.941 28.6498 109.941 26.2498C109.941 23.8498 110.641 22.0498 112.041 20.7498C113.441 19.4498 115.341 18.7498 117.941 18.7498C120.541 18.7498 122.541 19.3498 123.841 20.7498ZM119.741 29.0498C120.141 28.5498 120.341 27.5498 120.341 26.2498C120.341 24.9498 120.141 23.9498 119.741 23.4498C119.341 22.8498 118.741 22.6498 118.041 22.6498C117.341 22.6498 116.741 22.9498 116.341 23.4498C115.941 24.0498 115.741 24.9498 115.741 26.2498C115.741 27.5498 115.941 28.5498 116.341 29.0498C116.741 29.5498 117.341 29.8498 118.041 29.8498C118.741 29.8498 119.341 29.5498 119.741 29.0498Z" fill="#F2F2F2"/>
<path d="M132.941 13.9498V33.3498H127.441V13.9498H132.941Z" fill="#F2F2F2"/>
<path d="M151.041 16.5498C152.941 18.0498 153.841 20.5498 153.841 23.8498C153.841 27.1498 152.941 29.5498 151.041 31.1498C149.241 32.6498 146.641 33.4498 143.441 33.4498H135.241V14.2498H143.441C146.641 14.2498 149.241 14.9498 151.041 16.5498ZM145.441 28.5498C146.241 28.2498 146.841 27.7498 147.241 27.0498C147.641 26.3498 147.841 25.2498 147.841 23.8498C147.841 22.4498 147.641 21.3498 147.241 20.6498C146.841 19.9498 146.241 19.3498 145.441 19.1498C144.641 18.8498 143.641 18.7498 142.441 18.7498H141.141V29.0498H142.441C143.641 28.9498 144.641 28.7498 145.441 28.5498Z" fill="#F2F2F2"/>
<path d="M173.741 33.3498H167.841V26.0498H161.541V33.3498H155.641V14.2498H161.541V21.3498H167.841V14.2498H173.741V33.3498Z" fill="#F2F2F2"/>
<path d="M96.5719 40.3133C97.1351 40.6513 97.5856 40.9892 97.8109 41.665C98.1488 42.2282 98.2614 42.904 98.2614 43.8051C98.2614 44.7062 98.1488 45.382 97.8109 45.9451C97.473 46.5083 97.1351 46.9589 96.5719 47.2968C96.0087 47.6347 95.4455 47.7473 94.6571 47.7473H91.8412V39.9754H94.6571C95.4455 39.8628 96.0087 39.9754 96.5719 40.3133ZM96.6845 46.1704C97.2477 45.6072 97.473 44.8188 97.473 43.8051C97.473 42.7913 97.2477 42.0029 96.6845 41.4397C96.1214 40.8765 95.4455 40.6513 94.5444 40.6513H92.6296V47.0715H94.5444C95.4455 46.9589 96.234 46.7336 96.6845 46.1704Z" fill="#F2F2F2"/>
<path d="M100.176 39.7498V40.6509H99.3878V39.7498H100.176ZM100.176 41.8899V47.5217H99.5005V41.8899H100.176Z" fill="#F2F2F2"/>
<path d="M106.259 47.2956C106.259 48.0841 106.033 48.7599 105.583 49.2105C105.132 49.661 104.457 49.7736 103.781 49.7736C103.218 49.7736 102.654 49.661 102.204 49.3231C101.753 49.0978 101.528 48.6473 101.303 48.0841L101.979 47.8588C102.091 48.3094 102.317 48.5346 102.654 48.7599C102.992 48.9852 103.33 49.0978 103.781 49.0978C104.344 49.0978 104.795 48.9852 105.132 48.6473C105.47 48.3094 105.583 47.8588 105.583 47.183V46.1693C105.47 46.5072 105.245 46.7325 104.795 46.9577C104.457 47.183 104.119 47.183 103.668 47.183C103.218 47.183 102.767 47.0704 102.317 46.8451C101.979 46.6198 101.641 46.2819 101.415 45.8314C101.19 45.3808 101.078 44.9303 101.078 44.3671C101.078 43.8039 101.19 43.3534 101.415 42.9028C101.641 42.4523 101.866 42.1144 102.317 41.8891C102.767 41.6638 103.105 41.5512 103.668 41.5512C104.119 41.5512 104.457 41.6638 104.795 41.8891C105.132 42.1144 105.358 42.3397 105.583 42.6776V41.8891H106.259V47.2956ZM104.682 46.3946C104.907 46.1693 105.132 45.944 105.358 45.6061C105.47 45.2682 105.583 44.9303 105.583 44.4797C105.583 44.0292 105.47 43.6913 105.358 43.3534C105.245 43.0155 105.02 42.7902 104.682 42.5649C104.457 42.3397 104.119 42.3397 103.781 42.3397C103.218 42.3397 102.767 42.5649 102.429 42.9028C102.091 43.3534 101.866 43.8039 101.866 44.4797C101.866 45.1556 102.091 45.6061 102.429 46.0566C102.767 46.5072 103.218 46.6198 103.781 46.6198C104.119 46.7325 104.457 46.6198 104.682 46.3946Z" fill="#F2F2F2"/>
<path d="M108.286 39.7498V40.6509H107.497V39.7498H108.286ZM108.286 41.8899V47.5217H107.61V41.8899H108.286Z" fill="#F2F2F2"/>
<path d="M112.116 46.9588V47.6346C111.89 47.6346 111.665 47.6346 111.44 47.6346C111.102 47.6346 110.764 47.6346 110.651 47.522C110.426 47.4093 110.313 47.2967 110.201 47.1841C110.088 46.9588 110.088 46.7335 110.088 46.3956V42.566H109.074V41.8902H110.088V40.2006H110.764V41.8902H112.116V42.4534H110.764V46.1703C110.764 46.5083 110.764 46.7335 110.877 46.7335C110.989 46.8462 111.215 46.8462 111.44 46.8462C111.778 47.0714 112.003 46.9588 112.116 46.9588Z" fill="#F2F2F2"/>
<path d="M116.621 46.7325C116.396 47.0704 116.058 47.2957 115.72 47.521C115.382 47.6336 114.931 47.7463 114.481 47.7463C114.143 47.7463 113.805 47.6336 113.58 47.521C113.355 47.4083 113.129 47.1831 112.904 46.9578C112.791 46.7325 112.679 46.3946 112.679 46.0567C112.679 45.4935 112.904 45.043 113.355 44.8177C113.805 44.5924 114.368 44.3672 115.157 44.2545C115.607 44.1419 115.945 44.1419 116.058 44.1419C116.17 44.1419 116.396 44.0293 116.508 43.9166C116.621 43.804 116.621 43.6914 116.621 43.5787C116.621 43.2408 116.508 42.9029 116.283 42.6776C116.058 42.4524 115.72 42.3397 115.269 42.3397C114.931 42.3397 114.594 42.4524 114.256 42.565C114.03 42.7903 113.805 43.0155 113.692 43.4661L113.017 43.3535C113.129 42.7903 113.467 42.4524 113.805 42.1145C114.256 41.8892 114.706 41.6639 115.269 41.6639C115.945 41.6639 116.508 41.7765 116.846 42.1145C117.184 42.4524 117.409 42.9029 117.409 43.3535V46.0567C117.409 46.3946 117.409 46.7325 117.409 46.9578C117.409 47.1831 117.522 47.2957 117.522 47.521H116.846C116.734 47.521 116.621 47.2957 116.621 46.7325ZM116.17 44.7051C115.945 44.7051 115.607 44.8177 115.044 44.9304C114.594 45.043 114.256 45.1556 113.918 45.2683C113.58 45.3809 113.467 45.7188 113.467 46.1694C113.467 46.5073 113.58 46.7325 113.805 46.9578C114.03 47.1831 114.256 47.1831 114.706 47.1831C115.157 47.1831 115.607 47.0704 116.058 46.7325C116.508 46.3946 116.621 45.9441 116.621 45.3809V44.4798C116.508 44.5924 116.396 44.5924 116.17 44.7051Z" fill="#F2F2F2"/>
<path d="M119.324 39.7498V47.6343H118.648V39.7498H119.324Z" fill="#F2F2F2"/>
<path d="M129.011 47.6344H128.223V44.03H123.83V47.6344H123.042V39.8625H123.83V43.3542H128.223V39.8625H129.011V47.6344Z" fill="#F2F2F2"/>
<path d="M134.192 46.7346C134.08 46.9599 133.855 47.2978 133.517 47.4104C133.179 47.6357 132.841 47.7483 132.39 47.7483C131.827 47.7483 131.264 47.523 130.926 47.1851C130.588 46.8472 130.363 46.3967 130.363 45.7209V41.8912H131.039V45.383C131.039 45.9461 131.151 46.3967 131.377 46.6219C131.602 46.8472 131.94 47.0725 132.503 47.0725C132.953 47.0725 133.404 46.9599 133.742 46.6219C134.08 46.284 134.192 45.8335 134.192 45.1577V41.8912H134.868V47.523H134.192V46.7346Z" fill="#F2F2F2"/>
<path d="M143.428 42.3397C143.766 42.6776 143.992 43.1282 143.992 43.804V47.6336H143.316V44.1419C143.316 43.5787 143.203 43.1282 142.978 42.9029C142.753 42.6776 142.415 42.4524 141.964 42.4524C141.514 42.4524 141.176 42.565 140.838 42.9029C140.5 43.2408 140.387 43.6914 140.387 44.3672V47.6336H139.711V44.1419C139.711 43.5787 139.599 43.1282 139.373 42.9029C139.148 42.6776 138.81 42.4524 138.36 42.4524C137.909 42.4524 137.571 42.565 137.233 42.9029C136.896 43.2408 136.783 43.6914 136.783 44.3672V47.521H136.107V41.8892H136.783V42.7903C136.895 42.4524 137.121 42.2271 137.459 42.1145C137.797 41.8892 138.134 41.7765 138.472 41.7765C138.81 41.7765 139.148 41.8892 139.486 42.0018C139.824 42.2271 139.937 42.4524 140.162 42.7903C140.387 42.4524 140.612 42.2271 140.95 42.0018C141.288 41.7765 141.626 41.6639 142.077 41.6639C142.64 41.7765 143.09 42.0018 143.428 42.3397Z" fill="#F2F2F2"/>
<path d="M148.723 46.7325C148.497 47.0704 148.159 47.2957 147.821 47.521C147.484 47.6336 147.033 47.7463 146.582 47.7463C146.245 47.7463 145.907 47.6336 145.681 47.521C145.456 47.4083 145.231 47.1831 145.006 46.9578C144.893 46.7325 144.78 46.3946 144.78 46.0567C144.78 45.4935 145.006 45.043 145.456 44.8177C145.907 44.5924 146.47 44.3672 147.258 44.2545C147.709 44.1419 148.047 44.1419 148.159 44.1419C148.272 44.1419 148.497 44.0293 148.61 43.9166C148.723 43.804 148.723 43.6914 148.723 43.5787C148.723 43.2408 148.61 42.9029 148.385 42.6776C148.159 42.4524 147.821 42.3397 147.371 42.3397C147.033 42.3397 146.695 42.4524 146.357 42.565C146.132 42.7903 145.907 43.0155 145.794 43.4661L145.118 43.3535C145.231 42.7903 145.569 42.4524 145.907 42.1145C146.245 41.7765 146.808 41.6639 147.371 41.6639C148.047 41.6639 148.61 41.7765 148.948 42.1145C149.286 42.4524 149.511 42.9029 149.511 43.3535V46.0567C149.511 46.3946 149.511 46.7325 149.511 46.9578C149.511 47.1831 149.624 47.2957 149.624 47.521H148.948C148.835 47.521 148.723 47.2957 148.723 46.7325ZM148.272 44.7051C148.047 44.7051 147.709 44.8177 147.146 44.9304C146.695 45.043 146.357 45.1556 146.019 45.2683C145.681 45.4935 145.569 45.7188 145.569 46.1694C145.569 46.5073 145.681 46.7325 145.907 46.9578C146.132 47.1831 146.357 47.1831 146.808 47.1831C147.258 47.1831 147.709 47.0704 148.159 46.7325C148.61 46.5073 148.723 45.9441 148.723 45.3809V44.4798C148.61 44.5924 148.497 44.5924 148.272 44.7051Z" fill="#F2F2F2"/>
<path d="M151.425 42.7923C151.538 42.4543 151.763 42.2291 152.101 42.1164C152.439 41.8912 152.777 41.7785 153.227 41.7785C153.791 41.7785 154.354 42.0038 154.692 42.3417C155.03 42.6796 155.255 43.1302 155.255 43.806V47.6356H154.579V44.1439C154.579 43.5807 154.466 43.1302 154.241 42.9049C154.016 42.6796 153.678 42.4543 153.115 42.4543C152.664 42.4543 152.214 42.567 151.876 42.9049C151.538 43.2428 151.425 43.6933 151.425 44.3692V47.523H150.749V41.8912H151.425V42.7923Z" fill="#F2F2F2"/>
<path d="M157.283 39.7498V40.6509H156.494V39.7498H157.283ZM157.283 41.8899V47.5217H156.607V41.8899H157.283Z" fill="#F2F2F2"/>
<path d="M161.112 46.9588V47.6346C160.887 47.6346 160.662 47.6346 160.437 47.6346C160.099 47.6346 159.761 47.6346 159.648 47.522C159.423 47.4093 159.31 47.2967 159.198 47.1841C159.085 46.9588 159.085 46.7335 159.085 46.3956V42.566H158.071V41.8902H159.085V40.2006H159.761V41.8902H161.112V42.4534H159.761V46.1703C159.761 46.5083 159.761 46.7335 159.873 46.7335C159.986 46.8462 160.211 46.8462 160.437 46.8462C160.774 47.0714 160.887 46.9588 161.112 46.9588Z" fill="#F2F2F2"/>
<path d="M162.802 39.7498V40.6509H162.013V39.7498H162.802ZM162.802 41.8899V47.5217H162.126V41.8899H162.802Z" fill="#F2F2F2"/>
<path d="M167.983 47.2978C167.532 47.6357 167.082 47.7483 166.293 47.7483C165.843 47.7483 165.392 47.6357 164.942 47.4104C164.604 47.1851 164.266 46.8472 164.041 46.3967C163.815 45.9461 163.703 45.383 163.703 44.8198C163.703 44.2566 163.815 43.6934 164.041 43.2429C164.266 42.7923 164.604 42.4544 164.942 42.2291C165.28 42.0039 165.73 41.8912 166.293 41.8912C166.856 41.8912 167.194 42.0039 167.645 42.2291C168.095 42.4544 168.321 42.7923 168.546 43.3555C168.771 43.806 168.884 44.3692 168.884 45.045H164.491C164.491 45.7209 164.716 46.1714 165.054 46.6219C165.392 47.0725 165.843 47.1851 166.293 47.1851C166.744 47.1851 167.194 47.0725 167.42 46.8472C167.758 46.622 167.87 46.284 167.983 45.9461L168.659 46.0588C168.659 46.5093 168.433 46.9599 167.983 47.2978ZM165.054 43.0176C164.716 43.3555 164.491 43.806 164.491 44.3692H168.095C168.095 43.806 167.87 43.3555 167.532 43.0176C167.194 42.6797 166.744 42.4544 166.293 42.4544C165.843 42.4544 165.392 42.5671 165.054 43.0176Z" fill="#F2F2F2"/>
<path d="M172.826 42.6796C172.489 42.4543 172.151 42.3417 171.813 42.3417C171.362 42.3417 171.024 42.4543 170.799 42.567C170.574 42.7923 170.461 43.0175 170.461 43.2428C170.461 43.4681 170.574 43.6933 170.799 43.806C171.024 43.9186 171.362 44.0313 171.7 44.1439L172.376 44.2565C172.939 44.3692 173.39 44.4818 173.728 44.7071C174.065 44.9323 174.178 45.2702 174.178 45.8334C174.178 46.3966 173.953 46.8472 173.502 47.0724C173.052 47.4103 172.489 47.523 171.925 47.523C171.25 47.523 170.686 47.4103 170.236 47.0724C169.785 46.7345 169.56 46.284 169.447 45.8334L170.123 45.7208C170.236 46.1713 170.348 46.5092 170.686 46.7345C171.024 46.9598 171.362 47.0724 171.813 47.0724C172.263 47.0724 172.601 46.9598 172.939 46.7345C173.277 46.5092 173.39 46.284 173.39 45.9461C173.39 45.6082 173.277 45.3829 173.052 45.2702C172.826 45.1576 172.489 45.045 172.038 44.9323L171.475 44.8197C170.912 44.7071 170.574 44.5944 170.236 44.3692C169.898 44.1439 169.785 43.806 169.785 43.3554C169.785 42.9049 170.011 42.4543 170.348 42.2291C170.686 41.8912 171.25 41.7785 171.813 41.7785C172.151 41.7785 172.489 41.8912 172.826 42.0038C173.164 42.1164 173.39 42.3417 173.615 42.567C173.84 42.7923 173.953 43.1302 173.953 43.3554L173.277 43.4681C173.277 43.2428 173.052 42.9049 172.826 42.6796Z" fill="#F2F2F2"/>
<path d="M98.9373 59.9111H98.2614V53.2656L95.6708 59.9111H95.1076L92.517 53.2656V59.9111H91.8412V52.1392H92.8549L95.4455 58.7847L98.0362 52.1392H99.0499V59.9111H98.9373Z" fill="#F2F2F2"/>
<path d="M103.894 59.0092C103.668 59.3471 103.33 59.5724 102.992 59.7977C102.655 59.9103 102.204 60.023 101.753 60.023C101.416 60.023 101.078 59.9103 100.852 59.7977C100.627 59.685 100.402 59.4598 100.177 59.2345C100.064 59.0092 99.9513 58.6713 99.9513 58.3334C99.9513 57.7702 100.177 57.3197 100.627 57.0944C101.078 56.8691 101.641 56.6439 102.429 56.5312C102.88 56.4186 103.218 56.4186 103.33 56.4186C103.443 56.4186 103.668 56.306 103.781 56.1933C103.894 56.0807 103.894 55.9681 103.894 55.8554C103.894 55.5175 103.781 55.1796 103.556 54.9543C103.33 54.7291 102.992 54.6164 102.542 54.6164C102.204 54.6164 101.866 54.7291 101.528 54.8417C101.303 55.067 101.078 55.2922 100.965 55.7428L100.289 55.6302C100.402 55.067 100.74 54.7291 101.078 54.3912C101.416 54.0532 101.979 53.9406 102.542 53.9406C103.218 53.9406 103.781 54.0532 104.119 54.3912C104.457 54.7291 104.682 55.1796 104.682 55.6302V58.3334C104.682 58.6713 104.682 59.0092 104.682 59.2345C104.682 59.4598 104.795 59.5724 104.795 59.7977H104.119C103.894 59.7977 103.894 59.5724 103.894 59.0092ZM103.443 56.9818C103.218 56.9818 102.88 57.0944 102.317 57.2071C101.866 57.3197 101.528 57.4323 101.19 57.545C100.852 57.7702 100.74 57.9955 100.74 58.4461C100.74 58.784 100.852 59.0092 101.078 59.2345C101.303 59.4598 101.528 59.4598 101.979 59.4598C102.429 59.4598 102.88 59.3471 103.33 59.0092C103.781 58.784 103.894 58.2208 103.894 57.6576V56.7565C103.781 56.8691 103.668 56.8691 103.443 56.9818Z" fill="#F2F2F2"/>
<path d="M109.3 54.3918C109.638 54.6171 109.863 54.8424 110.088 55.1803V52.0265H110.764V59.911H110.088V58.8973C109.976 59.2352 109.638 59.4605 109.3 59.6857C108.962 59.911 108.511 60.0236 108.061 60.0236C107.61 60.0236 107.16 59.911 106.709 59.6857C106.259 59.4605 106.033 59.1226 105.808 58.672C105.583 58.2215 105.47 57.6583 105.47 57.0951C105.47 56.5319 105.583 55.9687 105.808 55.5182C106.033 55.0677 106.371 54.7298 106.709 54.5045C107.047 54.2792 107.498 54.1666 108.061 54.1666C108.511 54.0539 108.962 54.1666 109.3 54.3918ZM109.187 59.1226C109.525 58.8973 109.75 58.672 109.863 58.3341C109.976 57.9962 110.088 57.5457 110.088 57.0951C110.088 56.6446 109.976 56.194 109.863 55.8561C109.75 55.5182 109.525 55.1803 109.187 55.0677C108.849 54.8424 108.624 54.7298 108.173 54.7298C107.61 54.7298 107.16 54.955 106.822 55.4056C106.484 55.8561 106.259 56.4193 106.259 57.0951C106.259 57.7709 106.484 58.4467 106.822 58.7847C107.16 59.2352 107.61 59.4605 108.173 59.4605C108.624 59.4605 108.849 59.3478 109.187 59.1226Z" fill="#F2F2F2"/>
<path d="M115.945 59.5745C115.495 59.9124 115.044 60.025 114.256 60.025C113.805 60.025 113.355 59.9124 112.904 59.6871C112.454 59.4618 112.228 59.1239 112.003 58.6734C111.778 58.2228 111.665 57.6597 111.665 57.0965C111.665 56.5333 111.778 55.9701 112.003 55.5196C112.228 55.069 112.566 54.7311 112.904 54.5058C113.242 54.2806 113.693 54.1679 114.256 54.1679C114.706 54.1679 115.157 54.2806 115.608 54.5058C115.945 54.7311 116.283 55.069 116.509 55.6322C116.734 56.0828 116.847 56.6459 116.847 57.3218H112.454C112.454 57.9976 112.679 58.4481 113.017 58.8986C113.355 59.3492 113.805 59.4618 114.256 59.4618C114.706 59.4618 115.157 59.3492 115.382 59.1239C115.72 58.8987 115.833 58.5607 115.945 58.2228L116.621 58.3355C116.621 58.786 116.396 59.2366 115.945 59.5745ZM113.017 55.2943C112.679 55.6322 112.454 56.0827 112.454 56.6459H116.058C116.058 56.0827 115.833 55.6322 115.495 55.2943C115.157 54.9564 114.706 54.7311 114.256 54.7311C113.805 54.7311 113.355 54.8438 113.017 55.2943Z" fill="#F2F2F2"/>
<path d="M120.901 52.0265V52.9276H120.113V52.0265H120.901ZM120.901 54.1666V59.7984H120.226V54.1666H120.901Z" fill="#F2F2F2"/>
<path d="M122.929 55.0689C123.042 54.731 123.267 54.5058 123.605 54.3931C123.943 54.1679 124.28 54.0552 124.731 54.0552C125.294 54.0552 125.857 54.2805 126.195 54.6184C126.533 54.9563 126.758 55.4068 126.758 56.0827V59.9123H126.083V56.4206C126.083 55.8574 125.97 55.4069 125.745 55.1816C125.52 54.9563 125.182 54.731 124.618 54.731C124.168 54.731 123.717 54.8437 123.379 55.1816C123.042 55.5195 122.929 55.97 122.929 56.6458V59.7997H122.253V54.1679H122.929V55.0689Z" fill="#F2F2F2"/>
<path d="M135.206 52.7024C135.544 53.0403 135.769 53.6035 135.769 54.1667C135.769 54.6172 135.656 54.9551 135.544 55.1804C135.431 55.4057 135.093 55.6309 134.755 55.8562C135.656 56.0815 136.107 56.7573 136.107 57.771C136.107 58.4468 135.882 59.01 135.544 59.3479C135.206 59.6858 134.53 59.9111 133.854 59.9111H130.588V52.1392H133.854C134.305 52.1392 134.868 52.3645 135.206 52.7024ZM133.516 55.6309C133.967 55.6309 134.417 55.5183 134.643 55.293C134.868 55.0677 134.98 54.7298 134.98 54.2793C134.98 53.8287 134.868 53.4908 134.643 53.2656C134.417 53.0403 133.967 52.9277 133.516 52.9277H131.151V55.7436H133.516V55.6309ZM134.868 58.8974C135.206 58.6721 135.318 58.2215 135.318 57.771C135.318 57.3205 135.206 56.8699 134.868 56.6446C134.53 56.4194 134.192 56.3067 133.629 56.3067H131.151V59.3479H133.629C134.079 59.2353 134.53 59.1226 134.868 58.8974Z" fill="#F2F2F2"/>
<path d="M140.838 54.3931C141.288 54.6184 141.514 54.9563 141.739 55.4069C141.964 55.8574 142.077 56.4206 142.077 56.9838C142.077 57.5469 141.964 58.1101 141.739 58.5607C141.514 59.0112 141.176 59.3491 140.838 59.5744C140.5 59.7997 139.937 59.9123 139.486 59.9123C138.923 59.9123 138.472 59.7997 138.135 59.5744C137.797 59.3491 137.459 59.0112 137.233 58.5607C137.008 58.1101 136.896 57.5469 136.896 56.9838C136.896 56.4206 137.008 55.8574 137.233 55.4069C137.459 54.9563 137.797 54.6184 138.135 54.3931C138.585 54.1679 139.036 54.0552 139.486 54.0552C140.049 54.0552 140.5 54.1679 140.838 54.3931ZM140.838 58.7859C141.176 58.3354 141.401 57.7722 141.401 57.0964C141.401 56.4206 141.176 55.7448 140.838 55.4069C140.5 55.0689 140.049 54.731 139.486 54.731C138.923 54.731 138.472 54.9563 138.135 55.4069C137.797 55.8574 137.571 56.4206 137.571 57.0964C137.571 57.7722 137.797 58.448 138.135 58.7859C138.472 59.1238 138.923 59.4617 139.486 59.4617C140.049 59.4617 140.5 59.2365 140.838 58.7859Z" fill="#F2F2F2"/>
<path d="M143.879 52.0265V59.911H143.203V52.0265H143.879Z" fill="#F2F2F2"/>
<path d="M148.948 54.3931C149.398 54.6184 149.624 54.9563 149.849 55.4069C150.074 55.8574 150.187 56.4206 150.187 56.9838C150.187 57.5469 150.074 58.1101 149.849 58.5607C149.624 59.0112 149.286 59.3491 148.948 59.5744C148.497 59.7997 148.047 59.9123 147.596 59.9123C147.033 59.9123 146.583 59.7997 146.245 59.5744C145.907 59.3491 145.569 59.0112 145.344 58.5607C145.118 58.1101 145.006 57.5469 145.006 56.9838C145.006 56.4206 145.118 55.8574 145.344 55.4069C145.569 54.9563 145.907 54.6184 146.245 54.3931C146.695 54.1679 147.146 54.0552 147.596 54.0552C148.159 54.0552 148.61 54.1679 148.948 54.3931ZM148.948 58.7859C149.286 58.3354 149.511 57.7722 149.511 57.0964C149.511 56.4206 149.286 55.7448 148.948 55.4069C148.61 54.9563 148.159 54.731 147.596 54.731C147.033 54.731 146.583 54.9563 146.245 55.4069C145.907 55.8574 145.681 56.4206 145.681 57.0964C145.681 57.7722 145.907 58.448 146.245 58.7859C146.583 59.1238 147.033 59.4617 147.596 59.4617C148.159 59.4617 148.61 59.2365 148.948 58.7859Z" fill="#F2F2F2"/>
<path d="M156.157 59.5723C156.157 60.3608 155.931 61.0366 155.481 61.4871C155.03 61.9377 154.354 62.0503 153.679 62.0503C153.115 62.0503 152.552 61.9377 152.102 61.5998C151.651 61.3745 151.426 60.924 151.201 60.3608L151.876 60.1355C151.989 60.5861 152.214 60.8113 152.552 61.0366C152.89 61.2619 153.228 61.3745 153.679 61.3745C154.242 61.3745 154.692 61.2619 155.03 60.924C155.368 60.5861 155.481 60.1355 155.481 59.4597V58.446C155.368 58.7839 155.143 59.0092 154.692 59.2344C154.242 59.4597 154.017 59.4597 153.566 59.4597C153.115 59.4597 152.665 59.3471 152.214 59.1218C151.876 58.8965 151.539 58.5586 151.313 58.1081C151.088 57.6575 150.975 57.207 150.975 56.6438C150.975 56.0806 151.088 55.6301 151.313 55.1795C151.539 54.729 151.764 54.3911 152.214 54.1658C152.552 53.9405 153.003 53.8279 153.566 53.8279C154.017 53.8279 154.354 53.9405 154.692 54.1658C155.03 54.3911 155.256 54.6163 155.481 54.9543V54.1658H156.157V59.5723ZM154.58 58.6712C154.805 58.446 155.03 58.2207 155.256 57.8828C155.481 57.5449 155.481 57.207 155.481 56.7564C155.481 56.3059 155.368 55.968 155.256 55.6301C155.143 55.2922 154.918 55.0669 154.58 54.8416C154.354 54.6163 154.017 54.6164 153.679 54.6164C153.115 54.6164 152.665 54.8416 152.327 55.1795C151.989 55.6301 151.764 56.0806 151.764 56.7564C151.764 57.4323 151.989 57.8828 152.327 58.3333C152.665 58.6712 153.115 58.8965 153.679 58.8965C154.017 59.0092 154.242 58.8965 154.58 58.6712Z" fill="#F2F2F2"/>
<path d="M158.071 55.0689C158.184 54.731 158.409 54.5058 158.747 54.3931C159.085 54.1679 159.423 54.0552 159.873 54.0552C160.437 54.0552 161 54.2805 161.338 54.6184C161.676 54.9563 161.901 55.4068 161.901 56.0827V59.9123H161.225V56.4206C161.225 55.8574 161.112 55.4069 160.887 55.1816C160.662 54.9563 160.324 54.731 159.761 54.731C159.31 54.731 158.86 54.8437 158.522 55.1816C158.184 55.5195 158.071 55.97 158.071 56.6458V59.7997H157.395V54.1679H158.071V55.0689Z" fill="#F2F2F2"/>
<path d="M166.744 59.0092C166.519 59.3471 166.181 59.5724 165.843 59.7977C165.505 59.9103 165.055 60.023 164.604 60.023C164.266 60.023 163.928 59.9103 163.703 59.7977C163.478 59.685 163.253 59.4598 163.027 59.2345C162.915 59.0092 162.802 58.6713 162.802 58.3334C162.802 57.7702 163.027 57.3197 163.478 57.0944C163.928 56.8691 164.492 56.6439 165.28 56.5312C165.731 56.4186 166.068 56.4186 166.181 56.4186C166.294 56.4186 166.519 56.306 166.632 56.1933C166.744 56.0807 166.744 55.9681 166.744 55.8554C166.744 55.5175 166.632 55.1796 166.406 54.9543C166.181 54.7291 165.843 54.6164 165.393 54.6164C165.055 54.6164 164.717 54.7291 164.379 54.8417C164.154 55.067 163.928 55.2922 163.816 55.7428L163.14 55.6302C163.253 55.067 163.59 54.7291 163.928 54.3912C164.266 54.0532 164.829 53.9406 165.393 53.9406C166.068 53.9406 166.632 54.0532 166.97 54.3912C167.307 54.7291 167.533 55.1796 167.533 55.6302V58.3334C167.533 58.6713 167.533 59.0092 167.533 59.2345C167.533 59.4598 167.645 59.5724 167.645 59.7977H166.97C166.857 59.7977 166.744 59.5724 166.744 59.0092ZM166.294 56.9818C166.068 56.9818 165.731 57.0944 165.167 57.2071C164.717 57.3197 164.379 57.4323 164.041 57.545C163.703 57.7702 163.59 57.9955 163.59 58.4461C163.59 58.784 163.703 59.0092 163.928 59.2345C164.154 59.4598 164.379 59.4598 164.829 59.4598C165.28 59.4598 165.731 59.3471 166.181 59.0092C166.632 58.6713 166.744 58.2208 166.744 57.6576V56.7565C166.632 56.8691 166.519 56.8691 166.294 56.9818Z" fill="#F2F2F2"/>
</svg>
