<svg width="224" height="92" viewBox="0 0 224 92" fill="none" xmlns="http://www.w3.org/2000/svg">
<path d="M79.3624 78.5125C72.2624 85.6125 59.7124 85.5125 46.8324 79.4025C33.9524 85.4825 21.4024 85.6125 14.3124 78.5125C22.9389 87.138 34.6384 91.9837 46.8374 91.9837C59.0364 91.9837 70.7359 87.138 79.3624 78.5125Z" fill="#131313"/>
<path d="M14.3124 13.4625C5.68686 22.089 0.841187 33.7884 0.841187 45.9875C0.841187 58.1865 5.68686 69.8859 14.3124 78.5125C7.21236 71.4225 7.31236 58.8625 13.4224 45.9825C7.34236 33.1025 7.21236 20.5525 14.3124 13.4625Z" fill="#131313"/>
<path d="M79.3623 13.4625C70.7378 4.85227 59.0491 0.0162964 46.8623 0.0162964C34.6755 0.0162964 22.9868 4.85227 14.3623 13.4625C21.4523 6.36249 34.0023 6.46249 46.8823 12.5725C59.7123 6.49249 72.2623 6.36249 79.3623 13.4625Z" fill="#131313"/>
<path d="M46.8324 23.6625C50.1765 21.6211 53.7922 20.0624 57.5724 19.0325C54.2134 16.5314 50.616 14.3676 46.8324 12.5725C43.0433 14.3691 39.4394 16.5328 36.0724 19.0325C39.859 20.062 43.4814 21.6207 46.8324 23.6625Z" fill="#131313"/>
<path d="M79.3623 13.4625C86.4623 20.5525 86.3623 33.1025 80.2523 45.9825C86.3323 58.8625 86.4623 71.4225 79.3623 78.5125C87.9725 69.888 92.8085 58.1992 92.8085 46.0125C92.8085 33.8257 87.9725 22.1369 79.3623 13.5125V13.4625Z" fill="#131313"/>
<path d="M46.8324 79.4025C43.0437 77.615 39.4368 75.465 36.0624 72.9825C30.2124 74.4725 25.1724 73.8625 22.0624 70.7725C18.9524 67.6825 18.3624 62.6525 19.8524 56.7725C17.3649 53.3924 15.2115 49.7788 13.4224 45.9825C7.34239 58.8625 7.21239 71.4225 14.3124 78.5125C21.4124 85.6025 33.9524 85.4825 46.8324 79.4025Z" fill="#F2F2F2"/>
<path d="M79.3624 13.4625C72.2624 6.36251 59.7124 6.46251 46.8324 12.5725C50.6195 14.367 54.2203 16.5308 57.5824 19.0325C63.4324 17.5325 68.4824 18.1425 71.5824 21.2325C74.6824 24.3225 75.2824 29.3625 73.7924 35.2325C76.2876 38.599 78.451 42.1991 80.2524 45.9825C86.3324 33.1025 86.4624 20.5525 79.3624 13.4625Z" fill="#F2F2F2"/>
<path d="M46.8324 23.6625C50.1765 21.6211 53.7922 20.0624 57.5724 19.0325C54.2134 16.5314 50.616 14.3676 46.8324 12.5725C43.0433 14.3691 39.4394 16.5328 36.0724 19.0325C39.859 20.062 43.4814 21.6207 46.8324 23.6625Z" fill="#131313"/>
<path d="M46.8324 12.5725C33.9524 6.49247 21.4024 6.36247 14.3124 13.4625C7.22239 20.5625 7.31239 33.1025 13.4224 45.9825C15.2063 42.1939 17.353 38.5871 19.8324 35.2125C18.3424 29.3625 18.9624 24.3225 22.0424 21.2125C25.1224 18.1025 30.1724 17.5125 36.0424 19.0125C39.4197 16.518 43.0337 14.361 46.8324 12.5725Z" fill="#F2F2F2"/>
<path d="M24.5124 45.9825C22.457 42.6287 20.8817 39.0034 19.8324 35.2125C17.3529 38.5871 15.2062 42.1939 13.4224 45.9825C15.2062 49.771 17.3529 53.3779 19.8324 56.7525C20.8779 52.9602 22.4535 49.3344 24.5124 45.9825Z" fill="#131313"/>
<path d="M57.6024 72.9825C53.809 71.9401 50.1828 70.3644 46.8324 68.3025C43.4834 70.3671 39.8568 71.943 36.0624 72.9825C39.4368 75.465 43.0436 77.615 46.8324 79.4025C50.6223 77.6173 54.2294 75.4671 57.6024 72.9825Z" fill="#131313"/>
<path d="M80.2524 45.9825C78.4672 49.7724 76.317 53.3795 73.8324 56.7525C75.3224 62.6025 74.7124 67.6425 71.6224 70.7525C68.5324 73.8625 63.5024 74.4525 57.6224 72.9625C54.2439 75.4552 50.6301 77.6121 46.8324 79.4025C59.7124 85.4825 72.2624 85.6125 79.3624 78.5125C86.4624 71.4125 86.3324 58.8625 80.2524 45.9825Z" fill="#F2F2F2"/>
<path d="M46.8324 23.6625C50.1765 21.6211 53.7922 20.0624 57.5724 19.0325C54.2134 16.5314 50.616 14.3676 46.8324 12.5725C43.0433 14.3691 39.4394 16.5328 36.0724 19.0325C39.859 20.062 43.4814 21.6207 46.8324 23.6625Z" fill="#131313"/>
<path d="M80.2523 45.9825C78.4648 42.1937 76.3148 38.5869 73.8323 35.2125C72.7917 39.0065 71.2159 42.6329 69.1523 45.9825C71.2112 49.3344 72.7868 52.9602 73.8323 56.7525C76.317 53.3794 78.4671 49.7724 80.2523 45.9825Z" fill="#131313"/>
<path d="M73.8323 56.7625C69.2739 62.9557 63.8054 68.4241 57.6123 72.9825C63.4623 74.4725 68.5023 73.8625 71.6123 70.7725C74.7223 67.6825 75.2823 62.6125 73.8323 56.7625Z" fill="#131313"/>
<path d="M73.8324 56.7625C72.7877 52.9667 71.2121 49.3376 69.1524 45.9825C66.4118 50.5414 63.1129 54.7405 59.3324 58.4825C55.5855 62.2575 51.3871 65.5557 46.8324 68.3025C50.1828 70.3644 53.809 71.9401 57.6024 72.9825C63.7991 68.4249 69.2709 62.9564 73.8324 56.7625Z" fill="#F2F2F2"/>
<path d="M46.8324 23.6625C43.4783 21.6198 39.8525 20.0611 36.0624 19.0325C32.9697 21.2965 30.0576 23.7973 27.3524 26.5125C24.6268 29.2157 22.1127 32.1243 19.8324 35.2125C20.8817 39.0034 22.457 42.6287 24.5124 45.9825C27.257 41.4263 30.5555 37.2277 34.3324 33.4825C38.0727 29.7001 42.2721 26.401 46.8324 23.6625Z" fill="#F2F2F2"/>
<path d="M36.0724 19.0325C30.2124 17.5325 25.1724 18.1425 22.0724 21.2325C18.9724 24.3225 18.3724 29.3625 19.8624 35.2325C22.1331 32.1454 24.6371 29.2369 27.3524 26.5325C30.0601 23.81 32.9756 21.3025 36.0724 19.0325Z" fill="#131313"/>
<path d="M46.8324 68.3025C42.2721 65.5639 38.0727 62.2649 34.3324 58.4825C30.5519 54.7405 27.253 50.5414 24.5124 45.9825C22.4535 49.3344 20.878 52.9602 19.8324 56.7525C22.1062 59.8372 24.61 62.7455 27.3224 65.4525C30.0405 68.1806 32.9623 70.6978 36.0624 72.9825C39.8568 71.943 43.4834 70.3671 46.8324 68.3025Z" fill="#F2F2F2"/>
<path d="M36.0624 72.9825C32.9778 70.7123 30.0695 68.2118 27.3624 65.5025C24.6345 62.7842 22.1173 59.8624 19.8324 56.7625C18.3424 62.6125 18.9624 67.6525 22.0424 70.7625C25.1224 73.8725 30.2124 74.4325 36.0624 72.9825Z" fill="#131313"/>
<path d="M69.1523 45.9825C66.4077 41.4263 63.1092 37.2277 59.3323 33.4825C55.5854 29.7075 51.387 26.4092 46.8323 23.6625C42.272 26.401 38.0726 29.7001 34.3323 33.4825C30.5554 37.2277 27.257 41.4263 24.5123 45.9825C27.253 50.5414 30.5518 54.7405 34.3323 58.4825C38.0726 62.2649 42.272 65.5639 46.8323 68.3025C51.387 65.5557 55.5854 62.2575 59.3323 58.4825C63.1129 54.7405 66.4117 50.5414 69.1523 45.9825Z" fill="#131313"/>
<path d="M71.5824 21.2325C68.4924 18.1425 63.4424 17.5325 57.5824 19.0325C60.6782 21.2964 63.5936 23.7973 66.3024 26.5125C69.0289 29.2178 71.5461 32.1261 73.8324 35.2125C75.2824 29.3625 74.6724 24.3225 71.5824 21.2325Z" fill="#131313"/>
<path d="M73.8324 35.2125C71.5621 32.1279 69.0617 29.2196 66.3524 26.5125C63.6436 23.7973 60.7282 21.2964 57.6324 19.0325C53.8315 20.057 50.1952 21.6159 46.8324 23.6625C51.3871 26.4092 55.5855 29.7075 59.3324 33.4825C63.1093 37.2277 66.4077 41.4263 69.1524 45.9825C71.216 42.6329 72.7918 39.0065 73.8324 35.2125Z" fill="#F2F2F2"/>
<path d="M124.398 15.3208C127.213 15.3208 129.41 16.0049 130.989 17.3731C132.594 18.7412 133.396 20.583 133.396 22.8984C133.396 25.4769 132.199 27.3187 129.805 28.4237V28.5816C131.226 29.1604 132.331 30.0024 133.12 31.1075C133.936 32.2125 134.344 33.5676 134.344 35.1725C134.344 37.7773 133.515 39.8164 131.857 41.2899C130.226 42.7633 127.924 43.5 124.95 43.5H110.19V15.3208H124.398ZM122.977 26.8451C124.214 26.8451 125.148 26.5688 125.779 26.0163C126.411 25.4374 126.726 24.6349 126.726 23.6088C126.726 22.5827 126.411 21.7933 125.779 21.2408C125.148 20.662 124.214 20.3725 122.977 20.3725H116.899V26.8451H122.977ZM123.49 38.3299C124.806 38.3299 125.806 38.0273 126.49 37.4221C127.174 36.817 127.516 35.9619 127.516 34.8568C127.516 33.7517 127.174 32.8966 126.49 32.2915C125.806 31.6863 124.806 31.3837 123.49 31.3837H116.899V38.3299H123.49ZM146.778 22.0696C149.041 22.0696 150.988 22.5169 152.619 23.4115C154.277 24.306 155.54 25.5821 156.408 27.2397C157.276 28.871 157.71 30.8049 157.71 33.0413C157.71 36.4355 156.737 39.1192 154.79 41.0925C152.843 43.0396 150.172 44.0131 146.778 44.0131C143.331 44.0131 140.634 43.0396 138.687 41.0925C136.767 39.1455 135.806 36.4618 135.806 33.0413C135.806 29.6472 136.767 26.9766 138.687 25.0296C140.634 23.0563 143.331 22.0696 146.778 22.0696ZM146.778 39.3955C148.199 39.3955 149.304 38.8692 150.093 37.8168C150.909 36.7644 151.317 35.1725 151.317 33.0413C151.317 30.9364 150.909 29.3578 150.093 28.3053C149.304 27.2266 148.199 26.6872 146.778 26.6872C145.331 26.6872 144.2 27.2266 143.384 28.3053C142.568 29.3578 142.16 30.9364 142.16 33.0413C142.16 35.1725 142.568 36.7644 143.384 37.8168C144.2 38.8692 145.331 39.3955 146.778 39.3955ZM166.066 14.9261V43.5H159.791V14.9261H166.066ZM180.064 15.3208C184.51 15.3208 188.023 16.4916 190.601 18.8333C193.206 21.175 194.508 24.7007 194.508 29.4104C194.508 34.1201 193.206 37.6458 190.601 39.9875C188.023 42.3292 184.51 43.5 180.064 43.5H168.658V15.3208H180.064ZM179.037 38.2904C181.879 38.2904 184.023 37.6063 185.47 36.2381C186.944 34.8436 187.681 32.5677 187.681 29.4104C187.681 26.2531 186.944 23.9903 185.47 22.6221C184.023 21.2276 181.879 20.5304 179.037 20.5304H175.367V38.2904H179.037ZM221.775 43.5H215.066V31.9757H203.502V43.5H196.793V15.3208H203.502V26.4899H215.066V15.3208H221.775V43.5Z" fill="#131313"/>
<path d="M113.635 51.0522C114.704 51.0522 115.639 51.2713 116.44 51.7096C117.242 52.1371 117.862 52.7785 118.3 53.6336C118.749 54.4887 118.974 55.5362 118.974 56.7761C118.974 58.016 118.749 59.0635 118.3 59.9186C117.862 60.7737 117.242 61.4204 116.44 61.8587C115.639 62.2862 114.704 62.5 113.635 62.5H109.546V51.0522H113.635ZM113.474 61.538C114.832 61.538 115.895 61.1318 116.665 60.3195C117.435 59.5071 117.819 58.326 117.819 56.7761C117.819 55.2262 117.435 54.0451 116.665 53.2327C115.895 52.4204 114.832 52.0142 113.474 52.0142H110.668V61.538H113.474ZM121.251 54.0985V62.5H120.193V54.0985H121.251ZM121.283 50.8919V52.1906H120.144V50.8919H121.283ZM129.913 61.9549C129.913 63.1948 129.577 64.1194 128.903 64.7286C128.23 65.3379 127.321 65.6425 126.178 65.6425C125.28 65.6425 124.51 65.4448 123.869 65.0493C123.238 64.6538 122.8 64.0659 122.554 63.2856L123.532 63.0131C123.725 63.6223 124.04 64.0659 124.478 64.3438C124.927 64.6217 125.494 64.7607 126.178 64.7607C127.033 64.7607 127.696 64.5255 128.166 64.0552C128.636 63.5956 128.871 62.8741 128.871 61.8907V60.4638H128.839C128.625 60.9448 128.262 61.3242 127.749 61.6021C127.236 61.88 126.675 62.019 126.065 62.019C125.349 62.019 124.708 61.8533 124.141 61.522C123.586 61.1906 123.153 60.7203 122.843 60.111C122.533 59.4911 122.378 58.7803 122.378 57.9786C122.378 57.1662 122.533 56.4554 122.843 55.8462C123.153 55.2262 123.586 54.7506 124.141 54.4192C124.708 54.0772 125.349 53.9061 126.065 53.9061C126.685 53.9061 127.252 54.0504 127.765 54.339C128.289 54.6276 128.663 55.0124 128.887 55.4934H128.919V54.0985H129.913V61.9549ZM126.226 61.1532C126.739 61.1532 127.198 61.0196 127.605 60.7524C128.022 60.4851 128.348 60.111 128.583 59.63C128.818 59.149 128.935 58.5986 128.935 57.9786C128.935 57.348 128.818 56.7921 128.583 56.3111C128.348 55.8301 128.022 55.456 127.605 55.1888C127.198 54.9216 126.739 54.788 126.226 54.788C125.403 54.788 124.735 55.0819 124.222 55.6698C123.719 56.247 123.468 57.0166 123.468 57.9786C123.468 58.9299 123.719 59.6995 124.222 60.2874C124.735 60.8646 125.403 61.1532 126.226 61.1532ZM132.289 54.0985V62.5H131.231V54.0985H132.289ZM132.321 50.8919V52.1906H131.183V50.8919H132.321ZM136.687 61.6021C137.051 61.6021 137.35 61.5914 137.585 61.5701V62.5C137.264 62.5214 136.933 62.5321 136.591 62.5321C136.067 62.5321 135.661 62.4786 135.372 62.3717C135.084 62.2542 134.875 62.0618 134.747 61.7945C134.619 61.5273 134.555 61.1532 134.555 60.6722V54.9323H133.128V54.0985H134.555V51.6454H135.597V54.0985H137.633V54.9323H135.597V60.4477C135.597 60.8967 135.672 61.2013 135.821 61.3616C135.971 61.522 136.26 61.6021 136.687 61.6021ZM144.186 62.5C144.079 62.361 144.009 61.9388 143.977 61.2334C143.646 61.7571 143.192 62.1312 142.615 62.3557C142.037 62.5802 141.444 62.6924 140.835 62.6924C140.354 62.6924 139.916 62.5909 139.52 62.3878C139.125 62.1847 138.809 61.8961 138.574 61.522C138.35 61.1479 138.237 60.7203 138.237 60.2393C138.237 59.3735 138.547 58.7535 139.167 58.3794C139.787 57.9946 140.653 57.7328 141.765 57.5938C142.395 57.5083 142.86 57.4281 143.16 57.3533C143.459 57.2678 143.662 57.1662 143.769 57.0487C143.886 56.9311 143.945 56.7601 143.945 56.5356C143.945 55.9905 143.774 55.5629 143.432 55.2529C143.09 54.943 142.566 54.788 141.861 54.788C141.316 54.788 140.835 54.9216 140.418 55.1888C140.012 55.4453 139.718 55.8889 139.536 56.5196L138.558 56.2791C138.761 55.4774 139.162 54.8842 139.761 54.4994C140.37 54.1039 141.086 53.9061 141.909 53.9061C142.957 53.9061 143.731 54.1413 144.234 54.6116C144.747 55.0712 145.003 55.7019 145.003 56.5035V60.4317C145.003 60.9875 145.014 61.4151 145.036 61.7144C145.068 62.003 145.132 62.2648 145.228 62.5H144.186ZM143.945 57.8343C143.828 57.9733 143.603 58.0801 143.272 58.155C142.941 58.2191 142.406 58.31 141.669 58.4275C141.049 58.513 140.503 58.6948 140.033 58.9727C139.563 59.2506 139.328 59.6728 139.328 60.2393C139.328 60.7203 139.483 61.0998 139.793 61.3777C140.103 61.6556 140.519 61.7945 141.043 61.7945C141.781 61.7945 142.449 61.5914 143.047 61.1853C143.646 60.7684 143.945 60.0736 143.945 59.1009V57.8343ZM147.383 50.8919V62.5H146.325V50.8919H147.383ZM160.654 62.5H159.532V57.209H153.006V62.5H151.884V51.0522H153.006V56.247H159.532V51.0522H160.654V62.5ZM167.768 61.2173C167.543 61.6342 167.185 61.9869 166.694 62.2755C166.213 62.5534 165.662 62.6924 165.042 62.6924C164.144 62.6924 163.423 62.4359 162.878 61.9228C162.333 61.4097 162.06 60.6775 162.06 59.7262V54.0985H163.118V59.2933C163.118 60.1591 163.284 60.7951 163.615 61.2013C163.957 61.5968 164.497 61.7945 165.235 61.7945C165.94 61.7945 166.533 61.5487 167.014 61.057C167.506 60.5653 167.752 59.8171 167.752 58.8123V54.0985H168.794V62.5H167.8V61.2173H167.768ZM178.815 53.9061C179.627 53.9061 180.29 54.1627 180.803 54.6757C181.316 55.1888 181.573 55.9156 181.573 56.8563V62.5H180.514V57.3052C180.514 56.4394 180.359 55.8088 180.049 55.4133C179.75 55.0071 179.264 54.804 178.59 54.804C177.97 54.804 177.441 55.0338 177.003 55.4934C176.565 55.9531 176.346 56.6746 176.346 57.6579V62.5H175.288V57.3052C175.288 56.4394 175.133 55.8088 174.823 55.4133C174.523 55.0071 174.042 54.804 173.38 54.804C172.749 54.804 172.214 55.0498 171.776 55.5415C171.349 56.0225 171.135 56.7654 171.135 57.7702V62.5H170.077V54.0985H171.071V55.3812H171.119C171.322 54.9643 171.648 54.6169 172.097 54.339C172.546 54.0504 173.048 53.9061 173.604 53.9061C174.181 53.9061 174.684 54.0397 175.111 54.307C175.539 54.5635 175.859 54.943 176.073 55.4453C176.34 54.9964 176.704 54.6276 177.163 54.339C177.634 54.0504 178.184 53.9061 178.815 53.9061ZM188.481 62.5C188.374 62.361 188.305 61.9388 188.273 61.2334C187.941 61.7571 187.487 62.1312 186.91 62.3557C186.333 62.5802 185.739 62.6924 185.13 62.6924C184.649 62.6924 184.211 62.5909 183.815 62.3878C183.42 62.1847 183.104 61.8961 182.869 61.522C182.645 61.1479 182.533 60.7203 182.533 60.2393C182.533 59.3735 182.843 58.7535 183.463 58.3794C184.083 57.9946 184.948 57.7328 186.06 57.5938C186.691 57.5083 187.156 57.4281 187.455 57.3533C187.754 57.2678 187.957 57.1662 188.064 57.0487C188.182 56.9311 188.24 56.7601 188.24 56.5356C188.24 55.9905 188.069 55.5629 187.727 55.2529C187.385 54.943 186.862 54.788 186.156 54.788C185.611 54.788 185.13 54.9216 184.713 55.1888C184.307 55.4453 184.013 55.8889 183.831 56.5196L182.853 56.2791C183.056 55.4774 183.457 54.8842 184.056 54.4994C184.665 54.1039 185.381 53.9061 186.204 53.9061C187.252 53.9061 188.027 54.1413 188.529 54.6116C189.042 55.0712 189.299 55.7019 189.299 56.5035V60.4317C189.299 60.9875 189.309 61.4151 189.331 61.7144C189.363 62.003 189.427 62.2648 189.523 62.5H188.481ZM188.24 57.8343C188.123 57.9733 187.898 58.0801 187.567 58.155C187.236 58.2191 186.701 58.31 185.964 58.4275C185.344 58.513 184.799 58.6948 184.328 58.9727C183.858 59.2506 183.623 59.6728 183.623 60.2393C183.623 60.7203 183.778 61.0998 184.088 61.3777C184.398 61.6556 184.815 61.7945 185.338 61.7945C186.076 61.7945 186.744 61.5914 187.343 61.1853C187.941 60.7684 188.24 60.0736 188.24 59.1009V57.8343ZM191.63 55.3812C191.844 54.9643 192.197 54.6169 192.688 54.339C193.18 54.0504 193.731 53.9061 194.34 53.9061C195.238 53.9061 195.959 54.1627 196.504 54.6757C197.05 55.1888 197.322 55.9156 197.322 56.8563V62.5H196.28V57.3052C196.28 56.4394 196.109 55.8088 195.767 55.4133C195.436 55.0071 194.896 54.804 194.148 54.804C193.442 54.804 192.849 55.0498 192.368 55.5415C191.887 56.0225 191.646 56.7654 191.646 57.7702V62.5H190.588V54.0985H191.582V55.3812H191.63ZM199.695 54.0985V62.5H198.637V54.0985H199.695ZM199.727 50.8919V52.1906H198.589V50.8919H199.727ZM204.093 61.6021C204.456 61.6021 204.756 61.5914 204.991 61.5701V62.5C204.67 62.5214 204.339 62.5321 203.997 62.5321C203.473 62.5321 203.067 62.4786 202.778 62.3717C202.49 62.2542 202.281 62.0618 202.153 61.7945C202.025 61.5273 201.961 61.1532 201.961 60.6722V54.9323H200.534V54.0985H201.961V51.6454H203.003V54.0985H205.039V54.9323H203.003V60.4477C203.003 60.8967 203.077 61.2013 203.227 61.3616C203.377 61.522 203.665 61.6021 204.093 61.6021ZM207.054 54.0985V62.5H205.996V54.0985H207.054ZM207.086 50.8919V52.1906H205.948V50.8919H207.086ZM215.653 60.1591C215.407 60.8753 214.985 61.4792 214.386 61.9709C213.788 62.4519 212.975 62.6924 211.949 62.6924C211.211 62.6924 210.559 62.516 209.993 62.1633C209.426 61.7999 208.983 61.2868 208.662 60.6241C208.342 59.9507 208.181 59.1704 208.181 58.2832C208.181 57.4067 208.342 56.6371 208.662 55.9744C208.983 55.3117 209.426 54.804 209.993 54.4513C210.559 54.0878 211.211 53.9061 211.949 53.9061C212.697 53.9061 213.36 54.0932 213.937 54.4673C214.525 54.8307 214.974 55.3652 215.284 56.0706C215.605 56.7654 215.749 57.5938 215.717 58.5558H209.271C209.293 59.5178 209.549 60.2981 210.041 60.8967C210.533 61.4952 211.169 61.7945 211.949 61.7945C212.676 61.7945 213.253 61.6235 213.681 61.2815C214.108 60.9287 214.407 60.5065 214.578 60.0148L215.653 60.1591ZM211.949 54.788C211.19 54.788 210.57 55.0659 210.089 55.6217C209.608 56.1668 209.341 56.8509 209.287 57.674H214.627C214.573 56.8509 214.301 56.1668 213.809 55.6217C213.328 55.0659 212.708 54.788 211.949 54.788ZM221.993 56.4715C221.886 55.9691 221.619 55.5629 221.191 55.2529C220.764 54.943 220.272 54.788 219.716 54.788C219.107 54.788 218.615 54.9216 218.241 55.1888C217.878 55.456 217.696 55.8141 217.696 56.263C217.696 56.6799 217.856 56.9845 218.177 57.1769C218.498 57.3693 218.952 57.5136 219.54 57.6098L220.47 57.7702C221.336 57.9198 222.004 58.1603 222.474 58.4917C222.955 58.8123 223.195 59.3575 223.195 60.1271C223.195 60.9394 222.88 61.5701 222.249 62.019C221.629 62.4679 220.828 62.6924 219.844 62.6924C218.872 62.6924 218.059 62.4572 217.407 61.9869C216.766 61.5059 216.392 60.8699 216.285 60.079L217.263 59.8545C217.37 60.4745 217.659 60.9555 218.129 61.2975C218.599 61.6395 219.171 61.8106 219.844 61.8106C220.507 61.8106 221.047 61.6663 221.464 61.3777C221.891 61.0784 222.105 60.6775 222.105 60.1752C222.105 59.7049 221.934 59.3682 221.592 59.1651C221.25 58.962 220.737 58.7963 220.053 58.668L219.139 58.5237C218.369 58.3848 217.755 58.155 217.295 57.8343C216.836 57.5029 216.606 56.9792 216.606 56.263C216.606 55.5576 216.894 54.9911 217.472 54.5635C218.049 54.1253 218.797 53.9061 219.716 53.9061C220.272 53.9061 220.785 54.013 221.255 54.2268C221.726 54.4299 222.11 54.7131 222.41 55.0766C222.709 55.4293 222.891 55.8248 222.955 56.263L221.993 56.4715ZM120.272 80.5H119.198V70.7517H119.15L115.35 80.5H114.436L110.636 70.7517H110.604V80.5H109.546V69.0522H111.117L114.917 78.8486H114.949L118.717 69.0522H120.272V80.5ZM127.307 80.5C127.2 80.361 127.131 79.9388 127.098 79.2334C126.767 79.7571 126.313 80.1312 125.736 80.3557C125.158 80.5802 124.565 80.6924 123.956 80.6924C123.475 80.6924 123.037 80.5909 122.641 80.3878C122.246 80.1847 121.93 79.8961 121.695 79.522C121.471 79.1479 121.359 78.7203 121.359 78.2393C121.359 77.3735 121.669 76.7535 122.288 76.3794C122.908 75.9946 123.774 75.7328 124.886 75.5938C125.517 75.5083 125.982 75.4281 126.281 75.3533C126.58 75.2678 126.783 75.1662 126.89 75.0487C127.008 74.9311 127.066 74.7601 127.066 74.5356C127.066 73.9905 126.895 73.5629 126.553 73.2529C126.211 72.943 125.688 72.788 124.982 72.788C124.437 72.788 123.956 72.9216 123.539 73.1888C123.133 73.4453 122.839 73.8889 122.657 74.5196L121.679 74.2791C121.882 73.4774 122.283 72.8842 122.882 72.4994C123.491 72.1039 124.207 71.9061 125.03 71.9061C126.078 71.9061 126.853 72.1413 127.355 72.6116C127.868 73.0712 128.125 73.7019 128.125 74.5035V78.4317C128.125 78.9875 128.135 79.4151 128.157 79.7144C128.189 80.003 128.253 80.2648 128.349 80.5H127.307ZM127.066 75.8343C126.949 75.9733 126.724 76.0801 126.393 76.155C126.062 76.2191 125.527 76.31 124.79 76.4275C124.17 76.513 123.625 76.6948 123.154 76.9727C122.684 77.2506 122.449 77.6728 122.449 78.2393C122.449 78.7203 122.604 79.0998 122.914 79.3777C123.224 79.6556 123.641 79.7945 124.164 79.7945C124.902 79.7945 125.57 79.5914 126.169 79.1853C126.767 78.7684 127.066 78.0736 127.066 77.1009V75.8343ZM132.925 71.9061C133.556 71.9061 134.133 72.0558 134.657 72.3551C135.181 72.6437 135.555 73.0392 135.779 73.5415H135.811V68.8919H136.854V80.5H135.859V79.0089H135.827C135.614 79.5113 135.234 79.9175 134.689 80.2274C134.155 80.5374 133.567 80.6924 132.925 80.6924C132.188 80.6924 131.536 80.516 130.969 80.1633C130.403 79.7999 129.959 79.2868 129.639 78.6241C129.318 77.9614 129.158 77.1864 129.158 76.2993C129.158 75.4121 129.318 74.6371 129.639 73.9744C129.959 73.3117 130.403 72.804 130.969 72.4513C131.536 72.0878 132.188 71.9061 132.925 71.9061ZM133.086 79.7945C133.62 79.7945 134.096 79.6556 134.513 79.3777C134.94 79.0891 135.272 78.6829 135.507 78.1591C135.753 77.6354 135.875 77.0154 135.875 76.2993C135.875 75.5831 135.753 74.9632 135.507 74.4394C135.272 73.905 134.94 73.4988 134.513 73.2209C134.096 72.9323 133.62 72.788 133.086 72.788C132.231 72.788 131.541 73.1033 131.017 73.7339C130.504 74.3539 130.248 75.209 130.248 76.2993C130.248 77.3788 130.504 78.234 131.017 78.8646C131.541 79.4846 132.231 79.7945 133.086 79.7945ZM145.35 78.1591C145.104 78.8753 144.682 79.4792 144.084 79.9709C143.485 80.4519 142.673 80.6924 141.647 80.6924C140.909 80.6924 140.257 80.516 139.691 80.1633C139.124 79.7999 138.68 79.2868 138.36 78.6241C138.039 77.9507 137.879 77.1704 137.879 76.2832C137.879 75.4067 138.039 74.6371 138.36 73.9744C138.68 73.3117 139.124 72.804 139.691 72.4513C140.257 72.0878 140.909 71.9061 141.647 71.9061C142.395 71.9061 143.058 72.0932 143.635 72.4673C144.223 72.8307 144.672 73.3652 144.982 74.0706C145.302 74.7654 145.447 75.5938 145.414 76.5558H138.969C138.99 77.5178 139.247 78.2981 139.739 78.8967C140.23 79.4952 140.866 79.7945 141.647 79.7945C142.373 79.7945 142.951 79.6235 143.378 79.2815C143.806 78.9287 144.105 78.5065 144.276 78.0148L145.35 78.1591ZM141.647 72.788C140.888 72.788 140.268 73.0659 139.787 73.6217C139.306 74.1668 139.039 74.8509 138.985 75.674H144.324C144.271 74.8509 143.998 74.1668 143.506 73.6217C143.025 73.0659 142.406 72.788 141.647 72.788ZM150.671 72.0985V80.5H149.613V72.0985H150.671ZM150.703 68.8919V70.1906H149.565V68.8919H150.703ZM153.097 73.3812C153.311 72.9643 153.664 72.6169 154.155 72.339C154.647 72.0504 155.197 71.9061 155.807 71.9061C156.705 71.9061 157.426 72.1627 157.971 72.6757C158.516 73.1888 158.789 73.9156 158.789 74.8563V80.5H157.747V75.3052C157.747 74.4394 157.576 73.8088 157.234 73.4133C156.902 73.0071 156.362 72.804 155.614 72.804C154.909 72.804 154.316 73.0498 153.835 73.5415C153.354 74.0225 153.113 74.7654 153.113 75.7702V80.5H152.055V72.0985H153.049V73.3812H153.097ZM167.935 69.0522C168.972 69.0522 169.773 69.3141 170.34 69.8378C170.906 70.3616 171.19 71.1045 171.19 72.0665C171.19 72.6544 171.051 73.1567 170.773 73.5736C170.505 73.9798 170.11 74.2844 169.586 74.4875V74.5356C170.89 74.8883 171.542 75.8076 171.542 77.2933C171.542 78.3088 171.238 79.0998 170.628 79.6663C170.03 80.2221 169.18 80.5 168.079 80.5H163.189V69.0522H167.935ZM167.774 74.1187C168.512 74.1187 169.073 73.9477 169.458 73.6057C169.843 73.2636 170.035 72.7506 170.035 72.0665C170.035 71.3824 169.843 70.8693 169.458 70.5273C169.073 70.1852 168.512 70.0142 167.774 70.0142H164.311V74.1187H167.774ZM167.919 79.538C168.72 79.538 169.33 79.3509 169.747 78.9768C170.174 78.6027 170.388 78.0416 170.388 77.2933C170.388 76.5558 170.174 76 169.747 75.6259C169.33 75.2518 168.72 75.0647 167.919 75.0647H164.311V79.538H167.919ZM176.252 71.9061C177.022 71.9061 177.701 72.0878 178.289 72.4513C178.877 72.804 179.331 73.3117 179.651 73.9744C179.983 74.6371 180.149 75.4121 180.149 76.2993C180.149 77.1864 179.983 77.9614 179.651 78.6241C179.331 79.2868 178.877 79.7999 178.289 80.1633C177.701 80.516 177.022 80.6924 176.252 80.6924C175.494 80.6924 174.82 80.516 174.232 80.1633C173.644 79.7999 173.185 79.2868 172.853 78.6241C172.533 77.9614 172.372 77.1864 172.372 76.2993C172.372 75.4121 172.533 74.6371 172.853 73.9744C173.185 73.3117 173.644 72.804 174.232 72.4513C174.82 72.0878 175.494 71.9061 176.252 71.9061ZM176.252 79.7945C177.086 79.7945 177.76 79.4846 178.273 78.8646C178.796 78.234 179.058 77.3788 179.058 76.2993C179.058 75.2197 178.796 74.3646 178.273 73.7339C177.76 73.1033 177.086 72.788 176.252 72.788C175.419 72.788 174.745 73.1033 174.232 73.7339C173.719 74.3646 173.463 75.2197 173.463 76.2993C173.463 77.3788 173.719 78.234 174.232 78.8646C174.745 79.4846 175.419 79.7945 176.252 79.7945ZM182.331 68.8919V80.5H181.273V68.8919H182.331ZM187.338 71.9061C188.108 71.9061 188.786 72.0878 189.374 72.4513C189.962 72.804 190.416 73.3117 190.737 73.9744C191.068 74.6371 191.234 75.4121 191.234 76.2993C191.234 77.1864 191.068 77.9614 190.737 78.6241C190.416 79.2868 189.962 79.7999 189.374 80.1633C188.786 80.516 188.108 80.6924 187.338 80.6924C186.579 80.6924 185.906 80.516 185.318 80.1633C184.73 79.7999 184.27 79.2868 183.939 78.6241C183.618 77.9614 183.458 77.1864 183.458 76.2993C183.458 75.4121 183.618 74.6371 183.939 73.9744C184.27 73.3117 184.73 72.804 185.318 72.4513C185.906 72.0878 186.579 71.9061 187.338 71.9061ZM187.338 79.7945C188.172 79.7945 188.845 79.4846 189.358 78.8646C189.882 78.234 190.144 77.3788 190.144 76.2993C190.144 75.2197 189.882 74.3646 189.358 73.7339C188.845 73.1033 188.172 72.788 187.338 72.788C186.504 72.788 185.831 73.1033 185.318 73.7339C184.805 74.3646 184.548 75.2197 184.548 76.2993C184.548 77.3788 184.805 78.234 185.318 78.8646C185.831 79.4846 186.504 79.7945 187.338 79.7945ZM199.605 79.9549C199.605 81.1948 199.269 82.1194 198.595 82.7286C197.922 83.3379 197.013 83.6425 195.869 83.6425C194.972 83.6425 194.202 83.4448 193.561 83.0493C192.93 82.6538 192.492 82.0659 192.246 81.2856L193.224 81.0131C193.416 81.6223 193.732 82.0659 194.17 82.3438C194.619 82.6217 195.185 82.7607 195.869 82.7607C196.725 82.7607 197.387 82.5255 197.858 82.0552C198.328 81.5956 198.563 80.8741 198.563 79.8907V78.4638H198.531C198.317 78.9448 197.954 79.3242 197.441 79.6021C196.928 79.88 196.367 80.019 195.757 80.019C195.041 80.019 194.4 79.8533 193.833 79.522C193.277 79.1906 192.845 78.7203 192.535 78.111C192.225 77.4911 192.07 76.7803 192.07 75.9786C192.07 75.1662 192.225 74.4554 192.535 73.8462C192.845 73.2262 193.277 72.7506 193.833 72.4192C194.4 72.0772 195.041 71.9061 195.757 71.9061C196.377 71.9061 196.944 72.0504 197.457 72.339C197.981 72.6276 198.355 73.0124 198.579 73.4934H198.611V72.0985H199.605V79.9549ZM195.918 79.1532C196.431 79.1532 196.89 79.0196 197.296 78.7524C197.713 78.4851 198.039 78.111 198.274 77.63C198.51 77.149 198.627 76.5986 198.627 75.9786C198.627 75.348 198.51 74.7921 198.274 74.3111C198.039 73.8301 197.713 73.456 197.296 73.1888C196.89 72.9216 196.431 72.788 195.918 72.788C195.095 72.788 194.426 73.0819 193.913 73.6698C193.411 74.247 193.16 75.0166 193.16 75.9786C193.16 76.9299 193.411 77.6995 193.913 78.2874C194.426 78.8646 195.095 79.1532 195.918 79.1532ZM201.933 73.3812C202.147 72.9643 202.499 72.6169 202.991 72.339C203.483 72.0504 204.033 71.9061 204.643 71.9061C205.54 71.9061 206.262 72.1627 206.807 72.6757C207.352 73.1888 207.625 73.9156 207.625 74.8563V80.5H206.583V75.3052C206.583 74.4394 206.412 73.8088 206.07 73.4133C205.738 73.0071 205.198 72.804 204.45 72.804C203.745 72.804 203.151 73.0498 202.67 73.5415C202.189 74.0225 201.949 74.7654 201.949 75.7702V80.5H200.891V72.0985H201.885V73.3812H201.933ZM214.535 80.5C214.428 80.361 214.359 79.9388 214.327 79.2334C213.995 79.7571 213.541 80.1312 212.964 80.3557C212.387 80.5802 211.793 80.6924 211.184 80.6924C210.703 80.6924 210.265 80.5909 209.869 80.3878C209.474 80.1847 209.159 79.8961 208.923 79.522C208.699 79.1479 208.587 78.7203 208.587 78.2393C208.587 77.3735 208.897 76.7535 209.517 76.3794C210.137 75.9946 211.002 75.7328 212.114 75.5938C212.745 75.5083 213.21 75.4281 213.509 75.3533C213.808 75.2678 214.011 75.1662 214.118 75.0487C214.236 74.9311 214.295 74.7601 214.295 74.5356C214.295 73.9905 214.124 73.5629 213.782 73.2529C213.44 72.943 212.916 72.788 212.21 72.788C211.665 72.788 211.184 72.9216 210.767 73.1888C210.361 73.4453 210.067 73.8889 209.885 74.5196L208.907 74.2791C209.111 73.4774 209.511 72.8842 210.11 72.4994C210.719 72.1039 211.435 71.9061 212.258 71.9061C213.306 71.9061 214.081 72.1413 214.583 72.6116C215.096 73.0712 215.353 73.7019 215.353 74.5035V78.4317C215.353 78.9875 215.364 79.4151 215.385 79.7144C215.417 80.003 215.481 80.2648 215.577 80.5H214.535ZM214.295 75.8343C214.177 75.9733 213.953 76.0801 213.621 76.155C213.29 76.2191 212.755 76.31 212.018 76.4275C211.398 76.513 210.853 76.6948 210.383 76.9727C209.912 77.2506 209.677 77.6728 209.677 78.2393C209.677 78.7203 209.832 79.0998 210.142 79.3777C210.452 79.6556 210.869 79.7945 211.393 79.7945C212.13 79.7945 212.798 79.5914 213.397 79.1853C213.995 78.7684 214.295 78.0736 214.295 77.1009V75.8343Z" fill="#131313"/>
</svg>
