<svg width="207" height="76" viewBox="0 0 207 76" fill="none" xmlns="http://www.w3.org/2000/svg">
<path d="M37.9195 15.6808C41.2637 13.6394 44.8794 12.0807 48.6595 11.0508C45.3006 8.54965 41.7032 6.38584 37.9195 4.59079C34.1304 6.38737 30.5265 8.55105 27.1595 11.0508C30.9462 12.0803 34.5685 13.639 37.9195 15.6808Z" fill="#131313"/>
<path d="M37.9195 71.4208C34.1308 69.6333 30.524 67.4832 27.1495 65.0008C21.2995 66.4908 16.2595 65.8808 13.1495 62.7908C10.0395 59.7008 9.44955 54.6708 10.9395 48.7908C8.45208 45.4107 6.29864 41.797 4.50955 38.0008C-1.57045 50.8808 -1.70045 63.4408 5.39955 70.5308C12.4995 77.6208 25.0395 77.5008 37.9195 71.4208Z" fill="#F2F2F2"/>
<path d="M70.4496 5.48079C63.3496 -1.61921 50.7996 -1.51921 37.9196 4.59079C41.7067 6.38527 45.3074 8.54908 48.6696 11.0508C54.5196 9.55079 59.5696 10.1608 62.6696 13.2508C65.7696 16.3408 66.3696 21.3808 64.8796 27.2508C67.3748 30.6172 69.5382 34.2174 71.3396 38.0008C77.4196 25.1208 77.5496 12.5708 70.4496 5.48079Z" fill="#F2F2F2"/>
<path d="M37.9195 15.6808C41.2637 13.6394 44.8794 12.0807 48.6595 11.0508C45.3006 8.54965 41.7032 6.38584 37.9195 4.59079C34.1304 6.38737 30.5265 8.55105 27.1595 11.0508C30.9462 12.0803 34.5685 13.639 37.9195 15.6808Z" fill="#131313"/>
<path d="M37.9195 4.59075C25.0395 -1.48925 12.4895 -1.61925 5.39955 5.48075C-1.69045 12.5808 -1.60045 25.1208 4.50955 38.0008C6.29343 34.2122 8.44012 30.6053 10.9195 27.2308C9.42955 21.3808 10.0495 16.3408 13.1295 13.2308C16.2095 10.1208 21.2595 9.53076 27.1295 11.0308C30.5069 8.53626 34.1209 6.37926 37.9195 4.59075Z" fill="#F2F2F2"/>
<path d="M15.5995 38.0007C13.5442 34.6469 11.9689 31.0217 10.9195 27.2307C8.44009 30.6053 6.2934 34.2122 4.50952 38.0007C6.2934 41.7893 8.44009 45.3962 10.9195 48.7707C11.9651 44.9785 13.5406 41.3527 15.5995 38.0007Z" fill="#131313"/>
<path d="M48.6895 65.0008C44.8961 63.9584 41.2699 62.3826 37.9195 60.3208C34.5706 62.3854 30.944 63.9613 27.1495 65.0008C30.524 67.4832 34.1308 69.6333 37.9195 71.4208C41.7095 69.6356 45.3165 67.4854 48.6895 65.0008Z" fill="#131313"/>
<path d="M71.3396 38.0008C69.5543 41.7907 67.4042 45.3977 64.9196 48.7708C66.4096 54.6208 65.7996 59.6608 62.7096 62.7708C59.6196 65.8808 54.5896 66.4708 48.7096 64.9808C45.331 67.4734 41.7172 69.6303 37.9196 71.4208C50.7996 77.5008 63.3496 77.6308 70.4496 70.5308C77.5496 63.4308 77.4196 50.8808 71.3396 38.0008Z" fill="#F2F2F2"/>
<path d="M37.9195 15.6808C41.2637 13.6394 44.8794 12.0807 48.6595 11.0508C45.3006 8.54965 41.7032 6.38584 37.9195 4.59079C34.1304 6.38737 30.5265 8.55105 27.1595 11.0508C30.9462 12.0803 34.5685 13.639 37.9195 15.6808Z" fill="#131313"/>
<path d="M71.3395 38.0007C69.552 34.212 67.402 30.6052 64.9195 27.2307C63.8789 31.0248 62.3031 34.6512 60.2395 38.0007C62.2984 41.3527 63.8739 44.9785 64.9195 48.7707C67.4041 45.3977 69.5543 41.7907 71.3395 38.0007Z" fill="#131313"/>
<path d="M64.9196 48.7808C60.3612 54.9739 54.8927 60.4424 48.6996 65.0008C54.5496 66.4908 59.5896 65.8808 62.6996 62.7908C65.8096 59.7008 66.3696 54.6308 64.9196 48.7808Z" fill="#131313"/>
<path d="M64.9196 48.7808C63.8749 44.985 62.2993 41.3558 60.2396 38.0008C57.4989 42.5597 54.2001 46.7588 50.4196 50.5008C46.6726 54.2758 42.4743 57.574 37.9196 60.3208C41.27 62.3826 44.8961 63.9584 48.6896 65.0008C54.8862 60.4431 60.3581 54.9746 64.9196 48.7808Z" fill="#F2F2F2"/>
<path d="M37.9196 15.6808C34.5654 13.6381 30.9396 12.0794 27.1496 11.0508C24.0569 13.3148 21.1448 15.8156 18.4396 18.5308C15.7139 21.234 13.1999 24.1426 10.9196 27.2308C11.9689 31.0217 13.5442 34.647 15.5996 38.0008C18.3442 33.4446 21.6427 29.246 25.4196 25.5008C29.1599 21.7183 33.3592 18.4193 37.9196 15.6808Z" fill="#F2F2F2"/>
<path d="M27.1596 11.0508C21.2996 9.55075 16.2596 10.1608 13.1596 13.2508C10.0596 16.3408 9.45956 21.3808 10.9496 27.2508C13.2203 24.1637 15.7243 21.2551 18.4396 18.5508C21.1472 15.8283 24.0627 13.3207 27.1596 11.0508Z" fill="#131313"/>
<path d="M37.9196 60.3208C33.3592 57.5822 29.1599 54.2832 25.4196 50.5008C21.639 46.7588 18.3402 42.5597 15.5996 38.0008C13.5407 41.3527 11.9651 44.9785 10.9196 48.7708C13.1933 51.8554 15.6971 54.7637 18.4096 57.4708C21.1276 60.1989 24.0494 62.7161 27.1496 65.0008C30.944 63.9613 34.5706 62.3854 37.9196 60.3208Z" fill="#F2F2F2"/>
<path d="M27.1495 65.0008C24.0649 62.7305 21.1566 60.2301 18.4495 57.5208C15.7217 54.8024 13.2045 51.8807 10.9195 48.7808C9.42951 54.6308 10.0495 59.6708 13.1295 62.7808C16.2095 65.8908 21.2995 66.4508 27.1495 65.0008Z" fill="#131313"/>
<path d="M60.2396 38.0008C57.495 33.4446 54.1965 29.246 50.4196 25.5008C46.6727 21.7258 42.4743 18.4275 37.9196 15.6808C33.3593 18.4193 29.1599 21.7183 25.4196 25.5008C21.6427 29.246 18.3443 33.4446 15.5996 38.0008C18.3403 42.5597 21.6391 46.7588 25.4196 50.5008C29.1599 54.2832 33.3593 57.5822 37.9196 60.3208C42.4743 57.574 46.6727 54.2757 50.4196 50.5008C54.2001 46.7588 57.499 42.5597 60.2396 38.0008Z" fill="#131313"/>
<path d="M62.6696 13.2508C59.5796 10.1608 54.5296 9.55075 48.6696 11.0508C51.7654 13.3147 54.6808 15.8156 57.3896 18.5308C60.1161 21.2361 62.6333 24.1444 64.9196 27.2308C66.3696 21.3808 65.7596 16.3408 62.6696 13.2508Z" fill="#131313"/>
<path d="M64.9196 27.2308C62.6493 24.1462 60.1488 21.2379 57.4396 18.5308C54.7308 15.8156 51.8154 13.3147 48.7196 11.0508C44.9186 12.0753 41.2824 13.6342 37.9196 15.6808C42.4743 18.4275 46.6726 21.7258 50.4196 25.5008C54.1965 29.246 57.4949 33.4446 60.2396 38.0008C62.3031 34.6512 63.879 31.0248 64.9196 27.2308Z" fill="#F2F2F2"/>
<path d="M107.431 7.3208C110.246 7.3208 112.443 8.00489 114.021 9.37306C115.626 10.7412 116.429 12.583 116.429 14.8984C116.429 17.4769 115.232 19.3187 112.837 20.4237V20.5816C114.258 21.1604 115.363 22.0024 116.153 23.1075C116.968 24.2125 117.376 25.5676 117.376 27.1725C117.376 29.7773 116.547 31.8164 114.89 33.2899C113.258 34.7633 110.956 35.5 107.983 35.5H93.2225V7.3208H107.431ZM106.01 18.8451C107.246 18.8451 108.18 18.5688 108.812 18.0163C109.443 17.4374 109.759 16.6349 109.759 15.6088C109.759 14.5827 109.443 13.7933 108.812 13.2408C108.18 12.662 107.246 12.3725 106.01 12.3725H99.9319V18.8451H106.01ZM106.523 30.3299C107.838 30.3299 108.838 30.0273 109.522 29.4221C110.206 28.817 110.548 27.9619 110.548 26.8568C110.548 25.7517 110.206 24.8966 109.522 24.2915C108.838 23.6863 107.838 23.3837 106.523 23.3837H99.9319V30.3299H106.523ZM129.811 14.0696C132.073 14.0696 134.02 14.5169 135.652 15.4115C137.309 16.306 138.572 17.5821 139.44 19.2397C140.309 20.871 140.743 22.8049 140.743 25.0413C140.743 28.4355 139.769 31.1192 137.822 33.0925C135.875 35.0396 133.205 36.0131 129.811 36.0131C126.364 36.0131 123.667 35.0396 121.72 33.0925C119.799 31.1455 118.839 28.4618 118.839 25.0413C118.839 21.6472 119.799 18.9766 121.72 17.0296C123.667 15.0563 126.364 14.0696 129.811 14.0696ZM129.811 31.3955C131.231 31.3955 132.336 30.8692 133.126 29.8168C133.941 28.7644 134.349 27.1725 134.349 25.0413C134.349 22.9364 133.941 21.3578 133.126 20.3053C132.336 19.2266 131.231 18.6872 129.811 18.6872C128.363 18.6872 127.232 19.2266 126.416 20.3053C125.601 21.3578 125.193 22.9364 125.193 25.0413C125.193 27.1725 125.601 28.7644 126.416 29.8168C127.232 30.8692 128.363 31.3955 129.811 31.3955ZM149.099 6.92613V35.5H142.824V6.92613H149.099ZM163.096 7.3208C167.543 7.3208 171.055 8.49164 173.634 10.8333C176.239 13.175 177.541 16.7007 177.541 21.4104C177.541 26.1201 176.239 29.6458 173.634 31.9875C171.055 34.3292 167.543 35.5 163.096 35.5H151.69V7.3208H163.096ZM162.07 30.2904C164.912 30.2904 167.056 29.6063 168.503 28.2381C169.976 26.8436 170.713 24.5677 170.713 21.4104C170.713 18.2531 169.976 15.9903 168.503 14.6221C167.056 13.2276 164.912 12.5304 162.07 12.5304H158.4V30.2904H162.07ZM204.808 35.5H198.099V23.9757H186.535V35.5H179.826V7.3208H186.535V18.4899H198.099V7.3208H204.808V35.5Z" fill="#F2F2F2"/>
<path d="M96.6672 43.0522C97.7361 43.0522 98.6714 43.2713 99.4731 43.7096C100.275 44.1371 100.895 44.7785 101.333 45.6336C101.782 46.4887 102.006 47.5362 102.006 48.7761C102.006 50.016 101.782 51.0635 101.333 51.9186C100.895 52.7737 100.275 53.4204 99.4731 53.8587C98.6714 54.2862 97.7361 54.5 96.6672 54.5H92.5787V43.0522H96.6672ZM96.5069 53.538C97.8644 53.538 98.9279 53.1318 99.6975 52.3195C100.467 51.5071 100.852 50.326 100.852 48.7761C100.852 47.2262 100.467 46.0451 99.6975 45.2327C98.9279 44.4204 97.8644 44.0142 96.5069 44.0142H93.7011V53.538H96.5069ZM104.283 46.0985V54.5H103.225V46.0985H104.283ZM104.315 42.8919V44.1906H103.177V42.8919H104.315ZM112.946 53.9549C112.946 55.1948 112.609 56.1194 111.936 56.7286C111.263 57.3379 110.354 57.6425 109.21 57.6425C108.312 57.6425 107.543 57.4448 106.901 57.0493C106.271 56.6538 105.833 56.0659 105.587 55.2856L106.565 55.0131C106.757 55.6223 107.073 56.0659 107.511 56.3438C107.96 56.6217 108.526 56.7607 109.21 56.7607C110.065 56.7607 110.728 56.5255 111.198 56.0552C111.669 55.5956 111.904 54.8741 111.904 53.8907V52.4638H111.872C111.658 52.9448 111.295 53.3242 110.782 53.6021C110.268 53.88 109.707 54.019 109.098 54.019C108.382 54.019 107.741 53.8533 107.174 53.522C106.618 53.1906 106.185 52.7203 105.875 52.111C105.565 51.4911 105.41 50.7803 105.41 49.9786C105.41 49.1662 105.565 48.4554 105.875 47.8462C106.185 47.2262 106.618 46.7506 107.174 46.4192C107.741 46.0772 108.382 45.9061 109.098 45.9061C109.718 45.9061 110.285 46.0504 110.798 46.339C111.321 46.6276 111.695 47.0124 111.92 47.4934H111.952V46.0985H112.946V53.9549ZM109.258 53.1532C109.771 53.1532 110.231 53.0196 110.637 52.7524C111.054 52.4851 111.38 52.111 111.615 51.63C111.85 51.149 111.968 50.5986 111.968 49.9786C111.968 49.348 111.85 48.7921 111.615 48.3111C111.38 47.8301 111.054 47.456 110.637 47.1888C110.231 46.9216 109.771 46.788 109.258 46.788C108.435 46.788 107.767 47.0819 107.254 47.6698C106.752 48.247 106.501 49.0166 106.501 49.9786C106.501 50.9299 106.752 51.6995 107.254 52.2874C107.767 52.8646 108.435 53.1532 109.258 53.1532ZM115.322 46.0985V54.5H114.264V46.0985H115.322ZM115.354 42.8919V44.1906H114.216V42.8919H115.354ZM119.72 53.6021C120.083 53.6021 120.382 53.5914 120.618 53.5701V54.5C120.297 54.5214 119.966 54.5321 119.624 54.5321C119.1 54.5321 118.694 54.4786 118.405 54.3717C118.116 54.2542 117.908 54.0618 117.78 53.7945C117.651 53.5273 117.587 53.1532 117.587 52.6722V46.9323H116.16V46.0985H117.587V43.6454H118.63V46.0985H120.666V46.9323H118.63V52.4477C118.63 52.8967 118.704 53.2013 118.854 53.3616C119.004 53.522 119.292 53.6021 119.72 53.6021ZM127.218 54.5C127.111 54.361 127.042 53.9388 127.01 53.2334C126.679 53.7571 126.224 54.1312 125.647 54.3557C125.07 54.5802 124.477 54.6924 123.867 54.6924C123.386 54.6924 122.948 54.5909 122.553 54.3878C122.157 54.1847 121.842 53.8961 121.607 53.522C121.382 53.1479 121.27 52.7203 121.27 52.2393C121.27 51.3735 121.58 50.7535 122.2 50.3794C122.82 49.9946 123.686 49.7328 124.797 49.5938C125.428 49.5083 125.893 49.4281 126.192 49.3533C126.492 49.2678 126.695 49.1662 126.801 49.0487C126.919 48.9311 126.978 48.7601 126.978 48.5356C126.978 47.9905 126.807 47.5629 126.465 47.2529C126.123 46.943 125.599 46.788 124.894 46.788C124.348 46.788 123.867 46.9216 123.451 47.1888C123.044 47.4453 122.75 47.8889 122.569 48.5196L121.591 48.2791C121.794 47.4774 122.195 46.8842 122.793 46.4994C123.402 46.1039 124.119 45.9061 124.942 45.9061C125.989 45.9061 126.764 46.1413 127.266 46.6116C127.78 47.0712 128.036 47.7019 128.036 48.5035V52.4317C128.036 52.9875 128.047 53.4151 128.068 53.7144C128.1 54.003 128.164 54.2648 128.261 54.5H127.218ZM126.978 49.8343C126.86 49.9733 126.636 50.0801 126.304 50.155C125.973 50.2191 125.439 50.31 124.701 50.4275C124.081 50.513 123.536 50.6948 123.066 50.9727C122.595 51.2506 122.36 51.6728 122.36 52.2393C122.36 52.7203 122.515 53.0998 122.825 53.3777C123.135 53.6556 123.552 53.7945 124.076 53.7945C124.813 53.7945 125.481 53.5914 126.08 53.1853C126.679 52.7684 126.978 52.0736 126.978 51.1009V49.8343ZM130.416 42.8919V54.5H129.358V42.8919H130.416ZM143.687 54.5H142.565V49.209H136.039V54.5H134.917V43.0522H136.039V48.247H142.565V43.0522H143.687V54.5ZM150.801 53.2173C150.576 53.6342 150.218 53.9869 149.726 54.2755C149.245 54.5534 148.695 54.6924 148.075 54.6924C147.177 54.6924 146.455 54.4359 145.91 53.9228C145.365 53.4097 145.093 52.6775 145.093 51.7262V46.0985H146.151V51.2933C146.151 52.1591 146.317 52.7951 146.648 53.2013C146.99 53.5968 147.53 53.7945 148.267 53.7945C148.973 53.7945 149.566 53.5487 150.047 53.057C150.539 52.5653 150.784 51.8171 150.784 50.8123V46.0985H151.827V54.5H150.833V53.2173H150.801ZM161.847 45.9061C162.66 45.9061 163.323 46.1627 163.836 46.6757C164.349 47.1888 164.605 47.9156 164.605 48.8563V54.5H163.547V49.3052C163.547 48.4394 163.392 47.8088 163.082 47.4133C162.783 47.0071 162.296 46.804 161.623 46.804C161.003 46.804 160.474 47.0338 160.036 47.4934C159.597 47.9531 159.378 48.6746 159.378 49.6579V54.5H158.32V49.3052C158.32 48.4394 158.165 47.8088 157.855 47.4133C157.556 47.0071 157.075 46.804 156.412 46.804C155.782 46.804 155.247 47.0498 154.809 47.5415C154.381 48.0225 154.168 48.7654 154.168 49.7702V54.5H153.109V46.0985H154.103V47.3812H154.151C154.355 46.9643 154.681 46.6169 155.13 46.339C155.578 46.0504 156.081 45.9061 156.637 45.9061C157.214 45.9061 157.716 46.0397 158.144 46.307C158.571 46.5635 158.892 46.943 159.106 47.4453C159.373 46.9964 159.736 46.6276 160.196 46.339C160.666 46.0504 161.217 45.9061 161.847 45.9061ZM171.514 54.5C171.407 54.361 171.337 53.9388 171.305 53.2334C170.974 53.7571 170.52 54.1312 169.942 54.3557C169.365 54.5802 168.772 54.6924 168.163 54.6924C167.682 54.6924 167.243 54.5909 166.848 54.3878C166.452 54.1847 166.137 53.8961 165.902 53.522C165.677 53.1479 165.565 52.7203 165.565 52.2393C165.565 51.3735 165.875 50.7535 166.495 50.3794C167.115 49.9946 167.981 49.7328 169.093 49.5938C169.723 49.5083 170.188 49.4281 170.487 49.3533C170.787 49.2678 170.99 49.1662 171.097 49.0487C171.214 48.9311 171.273 48.7601 171.273 48.5356C171.273 47.9905 171.102 47.5629 170.76 47.2529C170.418 46.943 169.894 46.788 169.189 46.788C168.644 46.788 168.163 46.9216 167.746 47.1888C167.34 47.4453 167.046 47.8889 166.864 48.5196L165.886 48.2791C166.089 47.4774 166.49 46.8842 167.088 46.4994C167.698 46.1039 168.414 45.9061 169.237 45.9061C170.284 45.9061 171.059 46.1413 171.562 46.6116C172.075 47.0712 172.331 47.7019 172.331 48.5035V52.4317C172.331 52.9875 172.342 53.4151 172.363 53.7144C172.395 54.003 172.46 54.2648 172.556 54.5H171.514ZM171.273 49.8343C171.155 49.9733 170.931 50.0801 170.6 50.155C170.268 50.2191 169.734 50.31 168.996 50.4275C168.376 50.513 167.831 50.6948 167.361 50.9727C166.891 51.2506 166.655 51.6728 166.655 52.2393C166.655 52.7203 166.81 53.0998 167.12 53.3777C167.43 53.6556 167.847 53.7945 168.371 53.7945C169.109 53.7945 169.777 53.5914 170.375 53.1853C170.974 52.7684 171.273 52.0736 171.273 51.1009V49.8343ZM174.663 47.3812C174.877 46.9643 175.229 46.6169 175.721 46.339C176.213 46.0504 176.763 45.9061 177.373 45.9061C178.27 45.9061 178.992 46.1627 179.537 46.6757C180.082 47.1888 180.355 47.9156 180.355 48.8563V54.5H179.313V49.3052C179.313 48.4394 179.142 47.8088 178.799 47.4133C178.468 47.0071 177.928 46.804 177.18 46.804C176.475 46.804 175.881 47.0498 175.4 47.5415C174.919 48.0225 174.679 48.7654 174.679 49.7702V54.5H173.621V46.0985H174.615V47.3812H174.663ZM182.728 46.0985V54.5H181.669V46.0985H182.728ZM182.76 42.8919V44.1906H181.621V42.8919H182.76ZM187.126 53.6021C187.489 53.6021 187.788 53.5914 188.023 53.5701V54.5C187.703 54.5214 187.371 54.5321 187.029 54.5321C186.506 54.5321 186.099 54.4786 185.811 54.3717C185.522 54.2542 185.314 54.0618 185.185 53.7945C185.057 53.5273 184.993 53.1532 184.993 52.6722V46.9323H183.566V46.0985H184.993V43.6454H186.035V46.0985H188.071V46.9323H186.035V52.4477C186.035 52.8967 186.11 53.2013 186.26 53.3616C186.409 53.522 186.698 53.6021 187.126 53.6021ZM190.087 46.0985V54.5H189.028V46.0985H190.087ZM190.119 42.8919V44.1906H188.98V42.8919H190.119ZM198.685 52.1591C198.439 52.8753 198.017 53.4792 197.419 53.9709C196.82 54.4519 196.008 54.6924 194.982 54.6924C194.244 54.6924 193.592 54.516 193.026 54.1633C192.459 53.7999 192.015 53.2868 191.695 52.6241C191.374 51.9507 191.214 51.1704 191.214 50.2832C191.214 49.4067 191.374 48.6371 191.695 47.9744C192.015 47.3117 192.459 46.804 193.026 46.4513C193.592 46.0878 194.244 45.9061 194.982 45.9061C195.73 45.9061 196.393 46.0932 196.97 46.4673C197.558 46.8307 198.007 47.3652 198.317 48.0706C198.637 48.7654 198.782 49.5938 198.749 50.5558H192.304C192.325 51.5178 192.582 52.2981 193.074 52.8967C193.565 53.4952 194.201 53.7945 194.982 53.7945C195.708 53.7945 196.286 53.6235 196.713 53.2815C197.141 52.9287 197.44 52.5065 197.611 52.0148L198.685 52.1591ZM194.982 46.788C194.223 46.788 193.603 47.0659 193.122 47.6217C192.641 48.1668 192.374 48.8509 192.32 49.674H197.659C197.606 48.8509 197.333 48.1668 196.841 47.6217C196.36 47.0659 195.741 46.788 194.982 46.788ZM205.025 48.4715C204.919 47.9691 204.651 47.5629 204.224 47.2529C203.796 46.943 203.305 46.788 202.749 46.788C202.139 46.788 201.648 46.9216 201.274 47.1888C200.91 47.456 200.729 47.8141 200.729 48.263C200.729 48.6799 200.889 48.9845 201.21 49.1769C201.53 49.3693 201.985 49.5136 202.572 49.6098L203.502 49.7702C204.368 49.9198 205.036 50.1603 205.506 50.4917C205.987 50.8123 206.228 51.3575 206.228 52.1271C206.228 52.9394 205.913 53.5701 205.282 54.019C204.662 54.4679 203.86 54.6924 202.877 54.6924C201.904 54.6924 201.092 54.4572 200.44 53.9869C199.799 53.5059 199.425 52.8699 199.318 52.079L200.296 51.8545C200.403 52.4745 200.691 52.9555 201.161 53.2975C201.632 53.6395 202.204 53.8106 202.877 53.8106C203.54 53.8106 204.08 53.6663 204.496 53.3777C204.924 53.0784 205.138 52.6775 205.138 52.1752C205.138 51.7049 204.967 51.3682 204.625 51.1651C204.283 50.962 203.77 50.7963 203.085 50.668L202.172 50.5237C201.402 50.3848 200.787 50.155 200.328 49.8343C199.868 49.5029 199.638 48.9792 199.638 48.263C199.638 47.5576 199.927 46.9911 200.504 46.5635C201.081 46.1253 201.83 45.9061 202.749 45.9061C203.305 45.9061 203.818 46.013 204.288 46.2268C204.758 46.4299 205.143 46.7131 205.442 47.0766C205.742 47.4293 205.923 47.8248 205.987 48.263L205.025 48.4715ZM103.305 72.5H102.231V62.7517H102.183L98.3828 72.5H97.4689L93.669 62.7517H93.6369V72.5H92.5787V61.0522H94.15L97.9499 70.8486H97.982L101.75 61.0522H103.305V72.5ZM110.34 72.5C110.233 72.361 110.163 71.9388 110.131 71.2334C109.8 71.7571 109.345 72.1312 108.768 72.3557C108.191 72.5802 107.598 72.6924 106.989 72.6924C106.508 72.6924 106.069 72.5909 105.674 72.3878C105.278 72.1847 104.963 71.8961 104.728 71.522C104.503 71.1479 104.391 70.7203 104.391 70.2393C104.391 69.3735 104.701 68.7535 105.321 68.3794C105.941 67.9946 106.807 67.7328 107.918 67.5938C108.549 67.5083 109.014 67.4281 109.313 67.3533C109.613 67.2678 109.816 67.1662 109.923 67.0487C110.04 66.9311 110.099 66.7601 110.099 66.5356C110.099 65.9905 109.928 65.5629 109.586 65.2529C109.244 64.943 108.72 64.788 108.015 64.788C107.47 64.788 106.989 64.9216 106.572 65.1888C106.166 65.4453 105.872 65.8889 105.69 66.5196L104.712 66.2791C104.915 65.4774 105.316 64.8842 105.914 64.4994C106.524 64.1039 107.24 63.9061 108.063 63.9061C109.11 63.9061 109.885 64.1413 110.388 64.6116C110.901 65.0712 111.157 65.7019 111.157 66.5035V70.4317C111.157 70.9875 111.168 71.4151 111.189 71.7144C111.221 72.003 111.285 72.2648 111.382 72.5H110.34ZM110.099 67.8343C109.981 67.9733 109.757 68.0801 109.426 68.155C109.094 68.2191 108.56 68.31 107.822 68.4275C107.202 68.513 106.657 68.6948 106.187 68.9727C105.717 69.2506 105.481 69.6728 105.481 70.2393C105.481 70.7203 105.636 71.0998 105.946 71.3777C106.256 71.6556 106.673 71.7945 107.197 71.7945C107.935 71.7945 108.603 71.5914 109.201 71.1853C109.8 70.7684 110.099 70.0736 110.099 69.1009V67.8343ZM115.958 63.9061C116.589 63.9061 117.166 64.0558 117.69 64.3551C118.213 64.6437 118.587 65.0392 118.812 65.5415H118.844V60.8919H119.886V72.5H118.892V71.0089H118.86C118.646 71.5113 118.267 71.9175 117.722 72.2274C117.187 72.5374 116.599 72.6924 115.958 72.6924C115.22 72.6924 114.568 72.516 114.002 72.1633C113.435 71.7999 112.992 71.2868 112.671 70.6241C112.35 69.9614 112.19 69.1864 112.19 68.2993C112.19 67.4121 112.35 66.6371 112.671 65.9744C112.992 65.3117 113.435 64.804 114.002 64.4513C114.568 64.0878 115.22 63.9061 115.958 63.9061ZM116.118 71.7945C116.653 71.7945 117.128 71.6556 117.545 71.3777C117.973 71.0891 118.304 70.6829 118.539 70.1591C118.785 69.6354 118.908 69.0154 118.908 68.2993C118.908 67.5831 118.785 66.9632 118.539 66.4394C118.304 65.905 117.973 65.4988 117.545 65.2209C117.128 64.9323 116.653 64.788 116.118 64.788C115.263 64.788 114.574 65.1033 114.05 65.7339C113.537 66.3539 113.28 67.209 113.28 68.2993C113.28 69.3788 113.537 70.234 114.05 70.8646C114.574 71.4846 115.263 71.7945 116.118 71.7945ZM128.383 70.1591C128.137 70.8753 127.715 71.4792 127.116 71.9709C126.518 72.4519 125.705 72.6924 124.679 72.6924C123.942 72.6924 123.29 72.516 122.723 72.1633C122.157 71.7999 121.713 71.2868 121.392 70.6241C121.072 69.9507 120.911 69.1704 120.911 68.2832C120.911 67.4067 121.072 66.6371 121.392 65.9744C121.713 65.3117 122.157 64.804 122.723 64.4513C123.29 64.0878 123.942 63.9061 124.679 63.9061C125.427 63.9061 126.09 64.0932 126.667 64.4673C127.255 64.8307 127.704 65.3652 128.014 66.0706C128.335 66.7654 128.479 67.5938 128.447 68.5558H122.002C122.023 69.5178 122.28 70.2981 122.771 70.8967C123.263 71.4952 123.899 71.7945 124.679 71.7945C125.406 71.7945 125.983 71.6235 126.411 71.2815C126.838 70.9287 127.138 70.5065 127.309 70.0148L128.383 70.1591ZM124.679 64.788C123.92 64.788 123.3 65.0659 122.819 65.6217C122.338 66.1668 122.071 66.8509 122.018 67.674H127.357C127.303 66.8509 127.031 66.1668 126.539 65.6217C126.058 65.0659 125.438 64.788 124.679 64.788ZM133.704 64.0985V72.5H132.646V64.0985H133.704ZM133.736 60.8919V62.1906H132.598V60.8919H133.736ZM136.13 65.3812C136.343 64.9643 136.696 64.6169 137.188 64.339C137.68 64.0504 138.23 63.9061 138.839 63.9061C139.737 63.9061 140.459 64.1627 141.004 64.6757C141.549 65.1888 141.821 65.9156 141.821 66.8563V72.5H140.779V67.3052C140.779 66.4394 140.608 65.8088 140.266 65.4133C139.935 65.0071 139.395 64.804 138.647 64.804C137.941 64.804 137.348 65.0498 136.867 65.5415C136.386 66.0225 136.146 66.7654 136.146 67.7702V72.5H135.087V64.0985H136.082V65.3812H136.13ZM150.967 61.0522C152.004 61.0522 152.806 61.3141 153.372 61.8378C153.939 62.3616 154.222 63.1045 154.222 64.0665C154.222 64.6544 154.083 65.1567 153.805 65.5736C153.538 65.9798 153.143 66.2844 152.619 66.4875V66.5356C153.923 66.8883 154.575 67.8076 154.575 69.2933C154.575 70.3088 154.27 71.0998 153.661 71.6663C153.062 72.2221 152.213 72.5 151.112 72.5H146.221V61.0522H150.967ZM150.807 66.1187C151.545 66.1187 152.106 65.9477 152.491 65.6057C152.875 65.2636 153.068 64.7506 153.068 64.0665C153.068 63.3824 152.875 62.8693 152.491 62.5273C152.106 62.1852 151.545 62.0142 150.807 62.0142H147.344V66.1187H150.807ZM150.951 71.538C151.753 71.538 152.362 71.3509 152.779 70.9768C153.207 70.6027 153.42 70.0416 153.42 69.2933C153.42 68.5558 153.207 68 152.779 67.6259C152.362 67.2518 151.753 67.0647 150.951 67.0647H147.344V71.538H150.951ZM159.285 63.9061C160.055 63.9061 160.733 64.0878 161.321 64.4513C161.909 64.804 162.363 65.3117 162.684 65.9744C163.015 66.6371 163.181 67.4121 163.181 68.2993C163.181 69.1864 163.015 69.9614 162.684 70.6241C162.363 71.2868 161.909 71.7999 161.321 72.1633C160.733 72.516 160.055 72.6924 159.285 72.6924C158.526 72.6924 157.853 72.516 157.265 72.1633C156.677 71.7999 156.217 71.2868 155.886 70.6241C155.565 69.9614 155.405 69.1864 155.405 68.2993C155.405 67.4121 155.565 66.6371 155.886 65.9744C156.217 65.3117 156.677 64.804 157.265 64.4513C157.853 64.0878 158.526 63.9061 159.285 63.9061ZM159.285 71.7945C160.119 71.7945 160.792 71.4846 161.305 70.8646C161.829 70.234 162.091 69.3788 162.091 68.2993C162.091 67.2197 161.829 66.3646 161.305 65.7339C160.792 65.1033 160.119 64.788 159.285 64.788C158.451 64.788 157.778 65.1033 157.265 65.7339C156.752 66.3646 156.495 67.2197 156.495 68.2993C156.495 69.3788 156.752 70.234 157.265 70.8646C157.778 71.4846 158.451 71.7945 159.285 71.7945ZM165.363 60.8919V72.5H164.305V60.8919H165.363ZM170.371 63.9061C171.14 63.9061 171.819 64.0878 172.407 64.4513C172.995 64.804 173.449 65.3117 173.77 65.9744C174.101 66.6371 174.267 67.4121 174.267 68.2993C174.267 69.1864 174.101 69.9614 173.77 70.6241C173.449 71.2868 172.995 71.7999 172.407 72.1633C171.819 72.516 171.14 72.6924 170.371 72.6924C169.612 72.6924 168.938 72.516 168.35 72.1633C167.762 71.7999 167.303 71.2868 166.972 70.6241C166.651 69.9614 166.491 69.1864 166.491 68.2993C166.491 67.4121 166.651 66.6371 166.972 65.9744C167.303 65.3117 167.762 64.804 168.35 64.4513C168.938 64.0878 169.612 63.9061 170.371 63.9061ZM170.371 71.7945C171.204 71.7945 171.878 71.4846 172.391 70.8646C172.915 70.234 173.176 69.3788 173.176 68.2993C173.176 67.2197 172.915 66.3646 172.391 65.7339C171.878 65.1033 171.204 64.788 170.371 64.788C169.537 64.788 168.863 65.1033 168.35 65.7339C167.837 66.3646 167.581 67.2197 167.581 68.2993C167.581 69.3788 167.837 70.234 168.35 70.8646C168.863 71.4846 169.537 71.7945 170.371 71.7945ZM182.638 71.9549C182.638 73.1948 182.301 74.1194 181.628 74.7286C180.954 75.3379 180.046 75.6425 178.902 75.6425C178.004 75.6425 177.235 75.4448 176.593 75.0493C175.963 74.6538 175.524 74.0659 175.279 73.2856L176.257 73.0131C176.449 73.6223 176.764 74.0659 177.203 74.3438C177.651 74.6217 178.218 74.7607 178.902 74.7607C179.757 74.7607 180.42 74.5255 180.89 74.0552C181.361 73.5956 181.596 72.8741 181.596 71.8907V70.4638H181.564C181.35 70.9448 180.986 71.3242 180.473 71.6021C179.96 71.88 179.399 72.019 178.79 72.019C178.074 72.019 177.432 71.8533 176.866 71.522C176.31 71.1906 175.877 70.7203 175.567 70.111C175.257 69.4911 175.102 68.7803 175.102 67.9786C175.102 67.1662 175.257 66.4554 175.567 65.8462C175.877 65.2262 176.31 64.7506 176.866 64.4192C177.432 64.0772 178.074 63.9061 178.79 63.9061C179.41 63.9061 179.976 64.0504 180.489 64.339C181.013 64.6276 181.387 65.0124 181.612 65.4934H181.644V64.0985H182.638V71.9549ZM178.95 71.1532C179.463 71.1532 179.923 71.0196 180.329 70.7524C180.746 70.4851 181.072 70.111 181.307 69.63C181.542 69.149 181.66 68.5986 181.66 67.9786C181.66 67.348 181.542 66.7921 181.307 66.3111C181.072 65.8301 180.746 65.456 180.329 65.1888C179.923 64.9216 179.463 64.788 178.95 64.788C178.127 64.788 177.459 65.0819 176.946 65.6698C176.444 66.247 176.192 67.0166 176.192 67.9786C176.192 68.9299 176.444 69.6995 176.946 70.2874C177.459 70.8646 178.127 71.1532 178.95 71.1532ZM184.966 65.3812C185.179 64.9643 185.532 64.6169 186.024 64.339C186.515 64.0504 187.066 63.9061 187.675 63.9061C188.573 63.9061 189.295 64.1627 189.84 64.6757C190.385 65.1888 190.657 65.9156 190.657 66.8563V72.5H189.615V67.3052C189.615 66.4394 189.444 65.8088 189.102 65.4133C188.771 65.0071 188.231 64.804 187.483 64.804C186.777 64.804 186.184 65.0498 185.703 65.5415C185.222 66.0225 184.982 66.7654 184.982 67.7702V72.5H183.923V64.0985H184.917V65.3812H184.966ZM197.568 72.5C197.461 72.361 197.391 71.9388 197.359 71.2334C197.028 71.7571 196.574 72.1312 195.996 72.3557C195.419 72.5802 194.826 72.6924 194.217 72.6924C193.736 72.6924 193.298 72.5909 192.902 72.3878C192.507 72.1847 192.191 71.8961 191.956 71.522C191.732 71.1479 191.619 70.7203 191.619 70.2393C191.619 69.3735 191.929 68.7535 192.549 68.3794C193.169 67.9946 194.035 67.7328 195.147 67.5938C195.777 67.5083 196.242 67.4281 196.542 67.3533C196.841 67.2678 197.044 67.1662 197.151 67.0487C197.268 66.9311 197.327 66.7601 197.327 66.5356C197.327 65.9905 197.156 65.5629 196.814 65.2529C196.472 64.943 195.948 64.788 195.243 64.788C194.698 64.788 194.217 64.9216 193.8 65.1888C193.394 65.4453 193.1 65.8889 192.918 66.5196L191.94 66.2791C192.143 65.4774 192.544 64.8842 193.143 64.4994C193.752 64.1039 194.468 63.9061 195.291 63.9061C196.339 63.9061 197.113 64.1413 197.616 64.6116C198.129 65.0712 198.385 65.7019 198.385 66.5035V70.4317C198.385 70.9875 198.396 71.4151 198.418 71.7144C198.45 72.003 198.514 72.2648 198.61 72.5H197.568ZM197.327 67.8343C197.21 67.9733 196.985 68.0801 196.654 68.155C196.322 68.2191 195.788 68.31 195.051 68.4275C194.431 68.513 193.885 68.6948 193.415 68.9727C192.945 69.2506 192.71 69.6728 192.71 70.2393C192.71 70.7203 192.865 71.0998 193.175 71.3777C193.485 71.6556 193.901 71.7945 194.425 71.7945C195.163 71.7945 195.831 71.5914 196.429 71.1853C197.028 70.7684 197.327 70.0736 197.327 69.1009V67.8343Z" fill="#F2F2F2"/>
</svg>
