<svg width="474" height="140" viewBox="0 0 474 140" fill="none" xmlns="http://www.w3.org/2000/svg">
<g filter="url(#filter0_dd_483_8099)">
<path d="M69.9971 27.1568C75.8175 23.604 82.1106 20.8912 88.6899 19.0988C82.8437 14.7459 76.5825 10.98 69.9971 7.85596C63.4022 10.9827 57.1297 14.7483 51.2695 19.0988C57.8601 20.8905 64.1647 23.6033 69.9971 27.1568Z" fill="#131313"/>
<path d="M69.9982 124.166C63.404 121.055 57.1264 117.313 51.2532 112.992C41.0714 115.585 32.2993 114.524 26.8864 109.146C21.4735 103.768 20.4466 95.0142 23.04 84.7808C18.7106 78.8981 14.9625 72.609 11.8487 66.0021C1.26652 88.4182 1.04025 110.277 13.3977 122.617C25.7551 134.956 47.5808 134.747 69.9982 124.166Z" fill="#F2F2F2"/>
<path d="M126.616 9.40359C114.259 -2.9531 92.4155 -2.77907 69.998 7.85465C76.5894 10.9777 82.8565 14.7436 88.7082 19.0975C98.8901 16.4869 107.68 17.5486 113.075 22.9263C118.47 28.3041 119.515 37.0756 116.921 47.2916C121.264 53.1505 125.03 59.4161 128.165 66.0007C138.747 43.5846 138.973 21.7429 126.616 9.40359Z" fill="#F2F2F2"/>
<path d="M69.9971 27.1568C75.8175 23.604 82.1106 20.8912 88.6899 19.0988C82.8437 14.7459 76.5825 10.98 69.9971 7.85596C63.4022 10.9827 57.1297 14.7483 51.2695 19.0988C57.8601 20.8905 64.1647 23.6033 69.9971 27.1568Z" fill="#131313"/>
<path d="M69.9983 7.85539C47.5809 -2.72612 25.7378 -2.95237 13.3978 9.40432C1.0578 21.761 1.21444 43.5854 11.8488 66.0015C14.9536 59.4079 18.6899 53.1306 23.0053 47.2576C20.412 37.0764 21.4911 28.3048 26.8518 22.8923C32.2124 17.4797 41.0019 16.4529 51.2185 19.0634C57.0967 14.7221 63.3868 10.9681 69.9983 7.85539Z" fill="#F2F2F2"/>
<path d="M31.1496 65.9995C27.5723 60.1626 24.8305 53.8533 23.0042 47.2556C18.6887 53.1287 14.9525 59.406 11.8477 65.9995C14.9525 72.593 18.6887 78.8703 23.0042 84.7434C24.824 78.1434 27.5661 71.8332 31.1496 65.9995Z" fill="#131313"/>
<path d="M88.7429 112.992C82.1406 111.178 75.8293 108.436 69.9979 104.847C64.1691 108.441 57.8571 111.183 51.2529 112.992C57.1261 117.313 63.4037 121.055 69.9979 124.165C76.5943 121.059 82.8722 117.316 88.7429 112.992Z" fill="#131313"/>
<path d="M128.165 66.0021C125.058 72.598 121.316 78.8756 116.991 84.746C119.584 94.9272 118.523 103.699 113.145 109.111C107.767 114.524 99.0119 115.551 88.7779 112.958C82.8976 117.296 76.6078 121.05 69.998 124.166C92.4155 134.747 114.259 134.973 126.616 122.617C138.973 110.26 138.747 88.4182 128.165 66.0021Z" fill="#F2F2F2"/>
<path d="M69.9971 27.1568C75.8175 23.604 82.1106 20.8912 88.6899 19.0988C82.8437 14.7459 76.5825 10.98 69.9971 7.85596C63.4022 10.9827 57.1297 14.7483 51.2695 19.0988C57.8601 20.8905 64.1647 23.6033 69.9971 27.1568Z" fill="#131313"/>
<path d="M128.165 65.9995C125.054 59.4057 121.312 53.1284 116.991 47.2556C115.18 53.8587 112.437 60.1701 108.846 65.9995C112.429 71.8332 115.171 78.1434 116.991 84.7434C121.316 78.873 125.058 72.5954 128.165 65.9995Z" fill="#131313"/>
<path d="M116.991 84.762C109.058 95.5404 99.5398 105.058 88.7607 112.991C98.9426 115.584 107.715 114.522 113.128 109.145C118.54 103.767 119.515 94.9432 116.991 84.762Z" fill="#131313"/>
<path d="M116.991 84.7634C115.173 78.1573 112.431 71.8412 108.846 66.0021C104.076 73.9363 98.334 81.2444 91.7541 87.7568C85.2326 94.3267 77.9254 100.067 69.998 104.847C75.8294 108.436 82.1407 111.178 88.7431 112.992C99.5283 105.06 109.052 95.5431 116.991 84.7634Z" fill="#F2F2F2"/>
<path d="M69.9979 27.1544C64.1601 23.5994 57.8495 20.8866 51.2529 19.0964C45.8702 23.0367 40.8017 27.3891 36.0933 32.1145C31.3494 36.8192 26.9737 41.8812 23.0049 47.2558C24.8312 53.8535 27.573 60.1628 31.1503 65.9997C35.9274 58.0702 41.6683 50.763 48.2419 44.2449C54.7518 37.6621 62.0607 31.9205 69.9979 27.1544Z" fill="#F2F2F2"/>
<path d="M51.2703 19.0978C41.0711 16.4872 32.299 17.5488 26.9035 22.9266C21.508 28.3044 20.4637 37.0759 23.0571 47.2919C27.0092 41.9192 31.3674 36.8573 36.0933 32.1506C40.806 27.4125 45.8803 23.0484 51.2703 19.0978Z" fill="#131313"/>
<path d="M69.9979 104.847C62.0607 100.081 54.7518 94.3397 48.2419 87.7568C41.6619 81.2444 35.9204 73.9363 31.1503 66.0021C27.5669 71.8358 24.8247 78.1459 23.0049 84.746C26.9623 90.1145 31.3202 95.176 36.0411 99.8873C40.7719 104.635 45.8572 109.016 51.2529 112.992C57.8571 111.183 64.1691 108.441 69.9979 104.847Z" fill="#F2F2F2"/>
<path d="M51.253 112.991C45.8844 109.04 40.8225 104.688 36.1108 99.9729C31.3631 95.2419 26.9819 90.157 23.005 84.762C20.4117 94.9432 21.4908 103.715 26.8515 109.127C32.2122 114.54 41.0712 115.514 51.253 112.991Z" fill="#131313"/>
<path d="M108.847 66.0009C104.07 58.0715 98.3286 50.7643 91.755 44.2462C85.2335 37.6762 77.9263 31.936 69.9989 27.1556C62.0617 31.9218 54.7528 37.6633 48.2429 44.2462C41.6693 50.7643 35.9284 58.0715 31.1514 66.0009C35.9214 73.9351 41.6629 81.2432 48.2429 87.7556C54.7528 94.3385 62.0617 100.08 69.9989 104.846C77.9263 100.066 85.2335 94.3256 91.755 87.7556C98.335 81.2432 104.076 73.9351 108.847 66.0009Z" fill="#131313"/>
<path d="M113.075 22.9266C107.697 17.5488 98.9072 16.4872 88.708 19.0978C94.0962 23.0379 99.1705 27.3904 103.885 32.1158C108.63 36.824 113.012 41.8857 116.991 47.2571C119.515 37.0759 118.453 28.3044 113.075 22.9266Z" fill="#131313"/>
<path d="M116.991 47.2558C113.04 41.8875 108.688 36.8259 103.972 32.1145C99.2577 27.389 94.1835 23.0366 88.7953 19.0964C82.1798 20.8796 75.8509 23.5926 69.998 27.1544C77.9254 31.9348 85.2326 37.675 91.7541 44.2449C98.3277 50.763 104.069 58.0702 108.846 65.9997C112.437 60.1702 115.18 53.8588 116.991 47.2558Z" fill="#F2F2F2"/>
</g>
<path d="M180.8 9.44C183.573 9.44 186 9.97333 188.08 11.04C190.16 12.1067 191.773 13.7067 192.92 15.84C194.067 17.9733 194.64 20.6 194.64 23.72C194.64 26.84 194.067 29.4667 192.92 31.6C191.773 33.7333 190.16 35.3333 188.08 36.4C186 37.4667 183.573 38 180.8 38L169.72 38L169.72 9.44L180.8 9.44ZM180.12 33.88C183.133 33.88 185.44 33.04 187.04 31.36C188.667 29.6533 189.48 27.1067 189.48 23.72C189.48 20.3333 188.667 17.8 187.04 16.12C185.44 14.4133 183.133 13.56 180.12 13.56L174.76 13.56L174.76 33.88L180.12 33.88ZM203.412 16.84L203.412 38L198.692 38L198.692 16.84L203.412 16.84ZM203.412 9.04L203.412 13.64L198.732 13.64L198.732 9.04L203.412 9.04ZM227.539 36.48C227.539 39.7067 226.606 42.0667 224.739 43.56C222.899 45.08 220.459 45.84 217.419 45.84C214.939 45.84 212.819 45.28 211.059 44.16C209.326 43.0667 208.139 41.36 207.499 39.04L212.059 38.28C212.459 39.6667 213.099 40.6533 213.979 41.24C214.859 41.8533 216.006 42.16 217.419 42.16C221.046 42.16 222.859 40.2 222.859 36.28L222.859 34.24L222.699 34.24C222.113 35.0667 221.286 35.72 220.219 36.2C219.179 36.6533 217.953 36.88 216.539 36.88C214.753 36.88 213.153 36.4533 211.739 35.6C210.326 34.7467 209.219 33.5467 208.419 32C207.646 30.4533 207.259 28.6667 207.259 26.64C207.259 24.6133 207.646 22.8267 208.419 21.28C209.219 19.7067 210.326 18.4933 211.739 17.64C213.153 16.7867 214.766 16.36 216.579 16.36C218.019 16.36 219.286 16.6133 220.379 17.12C221.473 17.6267 222.313 18.36 222.899 19.32L223.059 19.32L223.059 16.84L227.539 16.84L227.539 36.48ZM217.619 33.28C219.299 33.28 220.633 32.68 221.619 31.48C222.633 30.2533 223.139 28.64 223.139 26.64C223.139 24.6667 222.633 23.08 221.619 21.88C220.633 20.68 219.299 20.08 217.619 20.08C215.913 20.08 214.553 20.68 213.539 21.88C212.526 23.08 212.019 24.6667 212.019 26.64C212.019 28.64 212.526 30.2533 213.539 31.48C214.553 32.68 215.913 33.28 217.619 33.28ZM236.554 16.84L236.554 38L231.834 38L231.834 16.84L236.554 16.84ZM236.554 9.04L236.554 13.64L231.874 13.64L231.874 9.04L236.554 9.04ZM250.242 34.16C251.148 34.16 251.788 34.1467 252.162 34.12L252.162 38C251.522 38.0533 250.428 38.08 248.882 38.08C247.495 38.08 246.388 37.9467 245.562 37.68C244.762 37.4133 244.162 36.9333 243.762 36.24C243.362 35.5467 243.162 34.56 243.162 33.28L243.162 20.2L239.722 20.2L239.722 16.84L243.162 16.84L243.162 10.92L247.842 10.92L247.842 16.84L252.362 16.84L252.362 20.2L247.842 20.2L247.842 32.04C247.842 32.9467 248.015 33.5333 248.362 33.8C248.708 34.04 249.335 34.16 250.242 34.16ZM269.676 38C269.49 37.7867 269.33 37.4267 269.196 36.92C269.09 36.4133 269.036 35.8267 269.036 35.16C268.423 36.2267 267.45 37.0533 266.116 37.64C264.81 38.2 263.436 38.48 261.996 38.48C260.743 38.48 259.57 38.2267 258.476 37.72C257.41 37.2133 256.556 36.48 255.916 35.52C255.303 34.56 254.996 33.4533 254.996 32.2C254.996 30.0133 255.73 28.4 257.196 27.36C258.69 26.32 260.93 25.6533 263.916 25.36C265.89 25.1467 267.236 24.8667 267.956 24.52C268.676 24.1467 269.036 23.6133 269.036 22.92C269.036 21.9867 268.69 21.2667 267.996 20.76C267.33 20.2533 266.29 20 264.876 20C263.783 20 262.796 20.28 261.916 20.84C261.063 21.4 260.463 22.24 260.116 23.36L255.796 22.52C256.25 20.6 257.303 19.0933 258.956 18C260.636 16.9067 262.663 16.36 265.036 16.36C267.996 16.36 270.183 16.96 271.596 18.16C273.01 19.36 273.716 20.96 273.716 22.96L273.716 33.56C273.716 34.8667 273.743 35.8267 273.796 36.44C273.876 37.0533 274.036 37.5733 274.276 38L269.676 38ZM269.036 27.32C268.716 27.6133 268.116 27.8667 267.236 28.08C266.356 28.2667 265.236 28.44 263.876 28.6C262.676 28.76 261.69 29.1333 260.916 29.72C260.143 30.28 259.756 31.0667 259.756 32.08C259.756 33.0133 260.05 33.7333 260.636 34.24C261.25 34.7467 262.09 35 263.156 35C264.09 35 264.996 34.8133 265.876 34.44C266.783 34.0667 267.53 33.4933 268.116 32.72C268.73 31.92 269.036 30.92 269.036 29.72L269.036 27.32ZM282.693 9.04L282.693 38L277.973 38L277.973 9.04L282.693 9.04ZM193.56 82L188.52 82L188.52 69.6L174.76 69.6L174.76 82L169.72 82L169.72 53.44L174.76 53.44L174.76 65.44L188.52 65.44L188.52 53.44L193.56 53.44L193.56 82ZM212.146 79.2C210.599 81.3867 208.386 82.48 205.506 82.48C203.399 82.48 201.626 81.84 200.186 80.56C198.772 79.28 198.066 77.3733 198.066 74.84L198.066 60.84L202.746 60.84L202.746 73.52C202.746 75.3333 203.106 76.64 203.826 77.44C204.572 78.24 205.679 78.64 207.146 78.64C207.999 78.64 208.799 78.4 209.546 77.92C210.319 77.44 210.932 76.7333 211.386 75.8C211.839 74.8667 212.066 73.7467 212.066 72.44L212.066 60.84L216.746 60.84L216.746 82L212.306 82L212.306 79.2L212.146 79.2ZM245.104 60.36C247.104 60.36 248.784 61.0133 250.144 62.32C251.504 63.6 252.184 65.5067 252.184 68.04L252.184 82L247.504 82L247.504 69.32C247.504 67.5067 247.158 66.2133 246.464 65.44C245.798 64.64 244.784 64.24 243.424 64.24C242.171 64.24 241.104 64.7867 240.224 65.88C239.344 66.9733 238.904 68.4933 238.904 70.44L238.904 82L234.224 82L234.224 69.32C234.224 67.5067 233.878 66.2133 233.184 65.44C232.518 64.64 231.518 64.24 230.184 64.24C228.931 64.24 227.864 64.7867 226.984 65.88C226.104 66.9733 225.664 68.4933 225.664 70.44L225.664 82L220.984 82L220.984 60.84L225.464 60.84L225.464 63.68L225.624 63.68C227.171 61.4667 229.238 60.36 231.824 60.36C233.131 60.36 234.331 60.6533 235.424 61.24C236.518 61.8267 237.371 62.6933 237.984 63.84C238.944 62.6933 239.984 61.8267 241.104 61.24C242.224 60.6533 243.558 60.36 245.104 60.36ZM270.362 82C270.176 81.7867 270.016 81.4267 269.882 80.92C269.776 80.4133 269.722 79.8267 269.722 79.16C269.109 80.2267 268.136 81.0533 266.802 81.64C265.496 82.2 264.122 82.48 262.682 82.48C261.429 82.48 260.256 82.2267 259.162 81.72C258.096 81.2133 257.242 80.48 256.602 79.52C255.989 78.56 255.682 77.4533 255.682 76.2C255.682 74.0133 256.416 72.4 257.882 71.36C259.376 70.32 261.616 69.6533 264.602 69.36C266.576 69.1467 267.922 68.8667 268.642 68.52C269.362 68.1467 269.722 67.6133 269.722 66.92C269.722 65.9867 269.376 65.2667 268.682 64.76C268.016 64.2533 266.976 64 265.562 64C264.469 64 263.482 64.28 262.602 64.84C261.749 65.4 261.149 66.24 260.802 67.36L256.482 66.52C256.936 64.6 257.989 63.0933 259.642 62C261.322 60.9067 263.349 60.36 265.722 60.36C268.682 60.36 270.869 60.96 272.282 62.16C273.696 63.36 274.402 64.96 274.402 66.96L274.402 77.56C274.402 78.8667 274.429 79.8267 274.482 80.44C274.562 81.0533 274.722 81.5733 274.962 82L270.362 82ZM269.722 71.32C269.402 71.6133 268.802 71.8667 267.922 72.08C267.042 72.2667 265.922 72.44 264.562 72.6C263.362 72.76 262.376 73.1333 261.602 73.72C260.829 74.28 260.442 75.0667 260.442 76.08C260.442 77.0133 260.736 77.7333 261.322 78.24C261.936 78.7467 262.776 79 263.842 79C264.776 79 265.682 78.8133 266.562 78.44C267.469 78.0667 268.216 77.4933 268.802 76.72C269.416 75.92 269.722 74.92 269.722 73.72L269.722 71.32ZM283.219 63.64C284.792 61.4533 287.005 60.36 289.859 60.36C291.965 60.36 293.725 61.0133 295.139 62.32C296.579 63.6 297.299 65.5067 297.299 68.04L297.299 82L292.619 82L292.619 69.32C292.619 67.5067 292.245 66.2133 291.499 65.44C290.779 64.64 289.685 64.24 288.219 64.24C287.339 64.24 286.525 64.48 285.779 64.96C285.032 65.44 284.432 66.1467 283.979 67.08C283.525 68.0133 283.299 69.1333 283.299 70.44L283.299 82L278.619 82L278.619 60.84L283.099 60.84L283.059 63.64L283.219 63.64ZM306.298 60.84L306.298 82L301.578 82L301.578 60.84L306.298 60.84ZM306.298 53.04L306.298 57.64L301.618 57.64L301.618 53.04L306.298 53.04ZM319.985 78.16C320.892 78.16 321.532 78.1467 321.905 78.12L321.905 82C321.265 82.0533 320.172 82.08 318.625 82.08C317.239 82.08 316.132 81.9467 315.305 81.68C314.505 81.4133 313.905 80.9333 313.505 80.24C313.105 79.5467 312.905 78.56 312.905 77.28L312.905 64.2L309.465 64.2L309.465 60.84L312.905 60.84L312.905 54.92L317.585 54.92L317.585 60.84L322.105 60.84L322.105 64.2L317.585 64.2L317.585 76.04C317.585 76.9467 317.759 77.5333 318.105 77.8C318.452 78.04 319.079 78.16 319.985 78.16ZM330.26 60.84L330.26 82L325.54 82L325.54 60.84L330.26 60.84ZM330.26 53.04L330.26 57.64L325.58 57.64L325.58 53.04L330.26 53.04ZM354.268 75.8C353.708 77.64 352.628 79.2133 351.028 80.52C349.428 81.8267 347.174 82.48 344.268 82.48C342.241 82.48 340.454 82.0267 338.908 81.12C337.361 80.1867 336.161 78.8933 335.308 77.24C334.481 75.5867 334.068 73.6667 334.068 71.48C334.068 69.24 334.481 67.2933 335.308 65.64C336.134 63.96 337.308 62.6667 338.828 61.76C340.374 60.8267 342.188 60.36 344.268 60.36C346.268 60.36 348.028 60.7867 349.548 61.64C351.094 62.4933 352.294 63.7467 353.148 65.4C354.028 67.0267 354.468 68.9733 354.468 71.24C354.468 71.5067 354.441 71.9333 354.388 72.52L338.828 72.52C338.881 74.4133 339.401 75.96 340.388 77.16C341.374 78.3333 342.668 78.92 344.268 78.92C345.788 78.92 346.961 78.56 347.788 77.84C348.614 77.0933 349.188 76.24 349.508 75.28L354.268 75.8ZM344.268 63.92C342.694 63.92 341.441 64.4267 340.508 65.44C339.601 66.4267 339.068 67.6667 338.908 69.16L349.668 69.16C349.508 67.6667 348.961 66.4267 348.028 65.44C347.121 64.4267 345.868 63.92 344.268 63.92ZM371.053 67.2C370.786 66.08 370.226 65.2267 369.373 64.64C368.519 64.0533 367.519 63.76 366.373 63.76C365.199 63.76 364.266 64.0133 363.573 64.52C362.879 65 362.533 65.6933 362.533 66.6C362.533 67.3733 362.853 67.9333 363.493 68.28C364.159 68.6267 365.159 68.9067 366.493 69.12L368.613 69.48C370.879 69.88 372.639 70.52 373.893 71.4C375.173 72.28 375.813 73.76 375.813 75.84C375.813 77.9733 374.959 79.6133 373.253 80.76C371.546 81.9067 369.319 82.48 366.573 82.48C363.906 82.48 361.719 81.88 360.013 80.68C358.306 79.48 357.266 77.88 356.893 75.88L361.213 75.08C361.506 76.4667 362.119 77.4933 363.053 78.16C363.986 78.8267 365.186 79.16 366.653 79.16C367.959 79.16 369.013 78.88 369.813 78.32C370.639 77.7333 371.053 76.96 371.053 76C371.053 75.1733 370.693 74.56 369.973 74.16C369.279 73.76 368.226 73.4533 366.813 73.24L364.613 72.84C362.559 72.52 360.906 71.92 359.653 71.04C358.399 70.16 357.773 68.7067 357.773 66.68C357.773 65.4533 358.146 64.36 358.893 63.4C359.639 62.44 360.666 61.6933 361.973 61.16C363.306 60.6267 364.786 60.36 366.413 60.36C367.959 60.36 369.373 60.6267 370.653 61.16C371.933 61.6933 372.973 62.4267 373.773 63.36C374.599 64.2933 375.119 65.32 375.333 66.44L371.053 67.2ZM198.56 126L193.76 126L193.76 104.2L193.6 104.2L186.04 126L182.12 126L174.56 104.2L174.4 104.2L174.4 126L169.72 126L169.72 97.44L177.08 97.44L184.08 118.56L184.24 118.56L191.24 97.44L198.56 97.44L198.56 126ZM217.025 126C216.838 125.787 216.678 125.427 216.545 124.92C216.438 124.413 216.385 123.827 216.385 123.16C215.771 124.227 214.798 125.053 213.465 125.64C212.158 126.2 210.785 126.48 209.345 126.48C208.091 126.48 206.918 126.227 205.825 125.72C204.758 125.213 203.905 124.48 203.265 123.52C202.651 122.56 202.345 121.453 202.345 120.2C202.345 118.013 203.078 116.4 204.545 115.36C206.038 114.32 208.278 113.653 211.265 113.36C213.238 113.147 214.585 112.867 215.305 112.52C216.025 112.147 216.385 111.613 216.385 110.92C216.385 109.987 216.038 109.267 215.345 108.76C214.678 108.253 213.638 108 212.225 108C211.131 108 210.145 108.28 209.265 108.84C208.411 109.4 207.811 110.24 207.465 111.36L203.145 110.52C203.598 108.6 204.651 107.093 206.305 106C207.985 104.907 210.011 104.36 212.385 104.36C215.345 104.36 217.531 104.96 218.945 106.16C220.358 107.36 221.065 108.96 221.065 110.96L221.065 121.56C221.065 122.867 221.091 123.827 221.145 124.44C221.225 125.053 221.385 125.573 221.625 126L217.025 126ZM216.385 115.32C216.065 115.613 215.465 115.867 214.585 116.08C213.705 116.267 212.585 116.44 211.225 116.6C210.025 116.76 209.038 117.133 208.265 117.72C207.491 118.28 207.105 119.067 207.105 120.08C207.105 121.013 207.398 121.733 207.985 122.24C208.598 122.747 209.438 123 210.505 123C211.438 123 212.345 122.813 213.225 122.44C214.131 122.067 214.878 121.493 215.465 120.72C216.078 119.92 216.385 118.92 216.385 117.72L216.385 115.32ZM234.121 104.36C235.561 104.36 236.828 104.627 237.921 105.16C239.041 105.667 239.881 106.373 240.441 107.28L240.601 107.28L240.601 97.04L245.281 97.04L245.281 126L240.841 126L240.841 123.28L240.681 123.28C240.095 124.293 239.228 125.08 238.081 125.64C236.935 126.2 235.628 126.48 234.161 126.48C232.321 126.48 230.681 126.027 229.241 125.12C227.801 124.187 226.668 122.893 225.841 121.24C225.041 119.56 224.641 117.627 224.641 115.44C224.641 113.227 225.041 111.293 225.841 109.64C226.668 107.96 227.801 106.667 229.241 105.76C230.681 104.827 232.308 104.36 234.121 104.36ZM235.201 122.8C236.935 122.8 238.308 122.147 239.321 120.84C240.361 119.533 240.881 117.733 240.881 115.44C240.881 113.147 240.361 111.347 239.321 110.04C238.308 108.733 236.935 108.08 235.201 108.08C233.415 108.08 232.001 108.733 230.961 110.04C229.948 111.347 229.441 113.147 229.441 115.44C229.441 117.733 229.948 119.533 230.961 120.84C232.001 122.147 233.415 122.8 235.201 122.8ZM269.088 119.8C268.528 121.64 267.448 123.213 265.848 124.52C264.248 125.827 261.995 126.48 259.088 126.48C257.061 126.48 255.275 126.027 253.728 125.12C252.181 124.187 250.981 122.893 250.128 121.24C249.301 119.587 248.888 117.667 248.888 115.48C248.888 113.24 249.301 111.293 250.128 109.64C250.955 107.96 252.128 106.667 253.648 105.76C255.195 104.827 257.008 104.36 259.088 104.36C261.088 104.36 262.848 104.787 264.368 105.64C265.915 106.493 267.115 107.747 267.968 109.4C268.848 111.027 269.288 112.973 269.288 115.24C269.288 115.507 269.261 115.933 269.208 116.52L253.648 116.52C253.701 118.413 254.221 119.96 255.208 121.16C256.195 122.333 257.488 122.92 259.088 122.92C260.608 122.92 261.781 122.56 262.608 121.84C263.435 121.093 264.008 120.24 264.328 119.28L269.088 119.8ZM259.088 107.92C257.515 107.92 256.261 108.427 255.328 109.44C254.421 110.427 253.888 111.667 253.728 113.16L264.488 113.16C264.328 111.667 263.781 110.427 262.848 109.44C261.941 108.427 260.688 107.92 259.088 107.92ZM286.61 104.84L286.61 126L281.89 126L281.89 104.84L286.61 104.84ZM286.61 97.04L286.61 101.64L281.93 101.64L281.93 97.04L286.61 97.04ZM295.658 107.64C297.231 105.453 299.444 104.36 302.298 104.36C304.404 104.36 306.164 105.013 307.578 106.32C309.018 107.6 309.738 109.507 309.738 112.04L309.738 126L305.058 126L305.058 113.32C305.058 111.507 304.684 110.213 303.938 109.44C303.218 108.64 302.124 108.24 300.658 108.24C299.778 108.24 298.964 108.48 298.218 108.96C297.471 109.44 296.871 110.147 296.418 111.08C295.964 112.013 295.738 113.133 295.738 114.44L295.738 126L291.058 126L291.058 104.84L295.538 104.84L295.498 107.64L295.658 107.64ZM335.994 97.44C338.794 97.44 340.967 98.1467 342.514 99.56C344.06 100.947 344.834 102.827 344.834 105.2C344.834 106.507 344.527 107.64 343.914 108.6C343.327 109.56 342.434 110.28 341.234 110.76L341.234 110.92C342.7 111.48 343.82 112.333 344.594 113.48C345.367 114.6 345.754 116.013 345.754 117.72C345.754 120.28 344.94 122.307 343.314 123.8C341.714 125.267 339.447 126 336.514 126L322.914 126L322.914 97.44L335.994 97.44ZM335.154 109.44C336.647 109.44 337.78 109.093 338.554 108.4C339.327 107.707 339.714 106.733 339.714 105.48C339.714 104.2 339.327 103.227 338.554 102.56C337.78 101.867 336.647 101.52 335.154 101.52L327.954 101.52L327.954 109.44L335.154 109.44ZM335.634 121.84C337.26 121.84 338.5 121.467 339.354 120.72C340.207 119.973 340.634 118.907 340.634 117.52C340.634 116.133 340.207 115.067 339.354 114.32C338.5 113.573 337.26 113.2 335.634 113.2L327.954 113.2L327.954 121.84L335.634 121.84ZM359.382 104.36C361.488 104.36 363.328 104.813 364.902 105.72C366.475 106.627 367.688 107.92 368.542 109.6C369.395 111.28 369.822 113.227 369.822 115.44C369.822 117.653 369.395 119.6 368.542 121.28C367.688 122.933 366.475 124.213 364.902 125.12C363.328 126.027 361.488 126.48 359.382 126.48C357.248 126.48 355.382 126.027 353.782 125.12C352.208 124.213 350.995 122.933 350.142 121.28C349.288 119.6 348.862 117.653 348.862 115.44C348.862 113.227 349.288 111.28 350.142 109.6C350.995 107.92 352.208 106.627 353.782 105.72C355.382 104.813 357.248 104.36 359.382 104.36ZM359.382 122.8C361.115 122.8 362.488 122.16 363.502 120.88C364.515 119.573 365.022 117.76 365.022 115.44C365.022 113.12 364.515 111.307 363.502 110C362.488 108.693 361.115 108.04 359.382 108.04C357.622 108.04 356.222 108.693 355.182 110C354.168 111.307 353.662 113.12 353.662 115.44C353.662 117.76 354.168 119.573 355.182 120.88C356.195 122.16 357.595 122.8 359.382 122.8ZM378.352 97.04L378.352 126L373.632 126L373.632 97.04L378.352 97.04ZM392.68 104.36C394.787 104.36 396.627 104.813 398.2 105.72C399.773 106.627 400.987 107.92 401.84 109.6C402.693 111.28 403.12 113.227 403.12 115.44C403.12 117.653 402.693 119.6 401.84 121.28C400.987 122.933 399.773 124.213 398.2 125.12C396.627 126.027 394.787 126.48 392.68 126.48C390.547 126.48 388.68 126.027 387.08 125.12C385.507 124.213 384.293 122.933 383.44 121.28C382.587 119.6 382.16 117.653 382.16 115.44C382.16 113.227 382.587 111.28 383.44 109.6C384.293 107.92 385.507 106.627 387.08 105.72C388.68 104.813 390.547 104.36 392.68 104.36ZM392.68 122.8C394.413 122.8 395.787 122.16 396.8 120.88C397.813 119.573 398.32 117.76 398.32 115.44C398.32 113.12 397.813 111.307 396.8 110C395.787 108.693 394.413 108.04 392.68 108.04C390.92 108.04 389.52 108.693 388.48 110C387.467 111.307 386.96 113.12 386.96 115.44C386.96 117.76 387.467 119.573 388.48 120.88C389.493 122.16 390.893 122.8 392.68 122.8ZM426.571 124.48C426.571 127.707 425.637 130.067 423.771 131.56C421.931 133.08 419.491 133.84 416.451 133.84C413.971 133.84 411.851 133.28 410.091 132.16C408.357 131.067 407.171 129.36 406.531 127.04L411.091 126.28C411.491 127.667 412.131 128.653 413.011 129.24C413.891 129.853 415.037 130.16 416.451 130.16C420.077 130.16 421.891 128.2 421.891 124.28L421.891 122.24L421.731 122.24C421.144 123.067 420.317 123.72 419.251 124.2C418.211 124.653 416.984 124.88 415.571 124.88C413.784 124.88 412.184 124.453 410.771 123.6C409.357 122.747 408.251 121.547 407.451 120C406.677 118.453 406.291 116.667 406.291 114.64C406.291 112.613 406.677 110.827 407.451 109.28C408.251 107.707 409.357 106.493 410.771 105.64C412.184 104.787 413.797 104.36 415.611 104.36C417.051 104.36 418.317 104.613 419.411 105.12C420.504 105.627 421.344 106.36 421.931 107.32L422.091 107.32L422.091 104.84L426.571 104.84L426.571 124.48ZM416.651 121.28C418.331 121.28 419.664 120.68 420.651 119.48C421.664 118.253 422.171 116.64 422.171 114.64C422.171 112.667 421.664 111.08 420.651 109.88C419.664 108.68 418.331 108.08 416.651 108.08C414.944 108.08 413.584 108.68 412.571 109.88C411.557 111.08 411.051 112.667 411.051 114.64C411.051 116.64 411.557 118.253 412.571 119.48C413.584 120.68 414.944 121.28 416.651 121.28ZM435.425 107.64C436.998 105.453 439.212 104.36 442.065 104.36C444.172 104.36 445.932 105.013 447.345 106.32C448.785 107.6 449.505 109.507 449.505 112.04L449.505 126L444.825 126L444.825 113.32C444.825 111.507 444.452 110.213 443.705 109.44C442.985 108.64 441.892 108.24 440.425 108.24C439.545 108.24 438.732 108.48 437.985 108.96C437.238 109.44 436.638 110.147 436.185 111.08C435.732 112.013 435.505 113.133 435.505 114.44L435.505 126L430.825 126L430.825 104.84L435.305 104.84L435.265 107.64L435.425 107.64ZM467.664 126C467.477 125.787 467.317 125.427 467.184 124.92C467.077 124.413 467.024 123.827 467.024 123.16C466.41 124.227 465.437 125.053 464.104 125.64C462.797 126.2 461.424 126.48 459.984 126.48C458.73 126.48 457.557 126.227 456.464 125.72C455.397 125.213 454.544 124.48 453.904 123.52C453.29 122.56 452.984 121.453 452.984 120.2C452.984 118.013 453.717 116.4 455.184 115.36C456.677 114.32 458.917 113.653 461.904 113.36C463.877 113.147 465.224 112.867 465.944 112.52C466.664 112.147 467.024 111.613 467.024 110.92C467.024 109.987 466.677 109.267 465.984 108.76C465.317 108.253 464.277 108 462.864 108C461.77 108 460.784 108.28 459.904 108.84C459.05 109.4 458.45 110.24 458.104 111.36L453.784 110.52C454.237 108.6 455.29 107.093 456.944 106C458.624 104.907 460.65 104.36 463.024 104.36C465.984 104.36 468.17 104.96 469.584 106.16C470.997 107.36 471.704 108.96 471.704 110.96L471.704 121.56C471.704 122.867 471.73 123.827 471.784 124.44C471.864 125.053 472.024 125.573 472.264 126L467.664 126ZM467.024 115.32C466.704 115.613 466.104 115.867 465.224 116.08C464.344 116.267 463.224 116.44 461.864 116.6C460.664 116.76 459.677 117.133 458.904 117.72C458.13 118.28 457.744 119.067 457.744 120.08C457.744 121.013 458.037 121.733 458.624 122.24C459.237 122.747 460.077 123 461.144 123C462.077 123 462.984 122.813 463.864 122.44C464.77 122.067 465.517 121.493 466.104 120.72C466.717 119.92 467.024 118.92 467.024 117.72L467.024 115.32Z" fill="#F2F2F2"/>
<defs>
<filter id="filter0_dd_483_8099" x="0" y="0" width="142" height="140" filterUnits="userSpaceOnUse" color-interpolation-filters="sRGB">
<feFlood flood-opacity="0" result="BackgroundImageFix"/>
<feColorMatrix in="SourceAlpha" type="matrix" values="0 0 0 0 0 0 0 0 0 0 0 0 0 0 0 0 0 0 127 0" result="hardAlpha"/>
<feOffset dy="4"/>
<feGaussianBlur stdDeviation="2"/>
<feComposite in2="hardAlpha" operator="out"/>
<feColorMatrix type="matrix" values="0 0 0 0 0 0 0 0 0 0 0 0 0 0 0 0 0 0 0.25 0"/>
<feBlend mode="normal" in2="BackgroundImageFix" result="effect1_dropShadow_483_8099"/>
<feColorMatrix in="SourceAlpha" type="matrix" values="0 0 0 0 0 0 0 0 0 0 0 0 0 0 0 0 0 0 127 0" result="hardAlpha"/>
<feOffset dx="2" dy="4"/>
<feGaussianBlur stdDeviation="2"/>
<feComposite in2="hardAlpha" operator="out"/>
<feColorMatrix type="matrix" values="0 0 0 0 0 0 0 0 0 0 0 0 0 0 0 0 0 0 0.25 0"/>
<feBlend mode="normal" in2="effect1_dropShadow_483_8099" result="effect2_dropShadow_483_8099"/>
<feBlend mode="normal" in="SourceGraphic" in2="effect2_dropShadow_483_8099" result="shape"/>
</filter>
</defs>
</svg>
