<svg width="301" height="300" viewBox="0 0 301 300" fill="none" xmlns="http://www.w3.org/2000/svg">
<path d="M238.12 185.085C234.712 172.703 229.573 160.865 222.854 149.921C213.914 164.792 203.153 178.49 190.821 190.696C178.598 203.01 164.903 213.769 150.046 222.729C160.975 229.455 172.803 234.595 185.178 237.995C205.391 223.128 223.241 205.29 238.12 185.085Z" fill="#F2F2F2"/>
<path d="M150.045 77.1078C139.104 70.4446 127.277 65.36 114.913 62.0046C104.825 69.3898 95.3256 77.5477 86.501 86.4046C77.61 95.2227 69.4091 104.71 61.9706 114.784C65.3936 127.15 70.5323 138.976 77.2369 149.916C86.19 135.054 96.9496 121.358 109.27 109.141C121.471 96.8026 135.169 86.0411 150.045 77.1078Z" fill="#F2F2F2"/>
<path d="M150.045 222.729C135.169 213.796 121.471 203.034 109.27 190.696C96.9378 178.49 86.1769 164.792 77.2369 149.921C70.5207 160.855 65.3813 172.682 61.9706 185.053C69.3877 195.115 77.5552 204.602 86.4032 213.432C95.2696 222.331 104.801 230.543 114.913 237.995C127.291 234.605 139.121 229.464 150.045 222.729Z" fill="#F2F2F2"/>
<path d="M222.855 149.919C213.901 135.056 203.142 121.36 190.821 109.143C178.599 96.8291 164.904 86.0701 150.046 77.11C135.17 86.0433 121.472 96.8048 109.271 109.143C96.9505 121.36 86.1909 135.056 77.2377 149.919C86.1778 164.79 96.9386 178.488 109.271 190.694C121.472 203.032 135.17 213.794 150.046 222.727C164.904 213.767 178.599 203.008 190.821 190.694C203.154 178.488 213.915 164.79 222.855 149.919Z" fill="#141414"/>
<path d="M238.12 114.784C230.715 104.722 222.558 95.2353 213.72 86.4046C204.884 77.5476 195.374 69.3897 185.275 62.0046C172.877 65.3467 161.015 70.4318 150.046 77.1078C164.903 86.0678 178.598 96.8268 190.821 109.141C203.141 121.358 213.901 135.054 222.854 149.916C229.585 138.99 234.726 127.16 238.12 114.784Z" fill="#F2F2F2"/>
</svg>
