<svg width="301" height="300" viewBox="0 0 301 300" fill="none" xmlns="http://www.w3.org/2000/svg">
<path d="M150.041 77.1758C160.95 70.5167 172.744 65.4321 185.075 62.0726C174.118 53.9138 162.383 46.8554 150.041 40.9999C137.681 46.8604 125.925 53.9184 114.942 62.0726C127.294 65.4309 139.11 70.5154 150.041 77.1758Z" fill="#141414"/>
<path d="M150.041 77.1758C160.95 70.5167 172.744 65.4321 185.075 62.0726C174.118 53.9138 162.383 46.8554 150.041 40.9999C137.681 46.8604 125.925 53.9184 114.942 62.0726C127.294 65.4309 139.11 70.5154 150.041 77.1758Z" fill="#141414"/>
<path d="M150.042 40.9987C108.027 21.1656 67.089 20.7415 43.9612 43.9019C20.8334 67.0623 21.127 107.968 41.058 149.983C46.877 137.625 53.8796 125.859 61.9676 114.851C57.1072 95.7682 59.1296 79.3276 69.1767 69.1827C79.2237 59.0378 95.6969 57.1132 114.845 62.0062C125.862 53.8691 137.651 46.8329 150.042 40.9987Z" fill="#F2F2F2"/>
<path d="M77.2326 149.98C70.528 139.039 65.3893 127.214 61.9664 114.848C53.8784 125.856 46.8758 137.621 41.0568 149.98C46.8758 162.338 53.8784 174.104 61.9664 185.112C65.377 172.741 70.5165 160.914 77.2326 149.98Z" fill="#141414"/>
<path d="M185.174 238.059C172.8 234.659 160.971 229.519 150.042 222.793C139.118 229.528 127.288 234.668 114.91 238.059C125.917 246.157 137.683 253.171 150.042 259.001C162.405 253.178 174.171 246.164 185.174 238.059Z" fill="#141414"/>
<path d="M259.059 149.984C253.235 162.347 246.221 174.113 238.117 185.116C242.977 204.199 240.987 220.64 230.907 230.785C220.828 240.93 204.42 242.854 185.239 237.994C174.218 246.125 162.43 253.161 150.042 259.001C192.057 278.834 232.995 279.258 256.156 256.098C279.316 232.938 278.892 191.999 259.059 149.984Z" fill="#F2F2F2"/>
<path d="M150.041 77.1758C160.95 70.5167 172.744 65.4321 185.075 62.0726C174.118 53.9138 162.383 46.8554 150.041 40.9999C137.681 46.8604 125.925 53.9184 114.942 62.0726C127.294 65.4309 139.11 70.5154 150.041 77.1758Z" fill="#141414"/>
<path d="M259.059 149.98C253.228 137.621 246.214 125.855 238.116 114.848C234.722 127.224 229.581 139.053 222.85 149.98C229.566 160.914 234.706 172.741 238.116 185.112C246.221 174.109 253.235 162.343 259.059 149.98Z" fill="#141414"/>
<path d="M238.116 185.146C223.246 205.349 205.408 223.187 185.206 238.056C204.289 242.917 220.729 240.927 230.874 230.847C241.019 220.768 242.846 204.229 238.116 185.146Z" fill="#141414"/>
<path d="M238.117 185.149C234.709 172.767 229.569 160.929 222.85 149.984C213.91 164.856 203.149 178.553 190.817 190.76C178.595 203.074 164.899 213.833 150.042 222.793C160.971 229.519 172.8 234.659 185.174 238.059C205.388 223.192 223.237 205.354 238.117 185.149Z" fill="#F2F2F2"/>
<path d="M150.042 77.1714C139.1 70.5082 127.273 65.4236 114.91 62.0682C104.821 69.4535 95.3219 77.6114 86.4974 86.4682C77.6063 95.2864 69.4054 104.774 61.9669 114.848C65.3899 127.214 70.5286 139.04 77.2332 149.98C86.1863 135.118 96.9459 121.422 109.266 109.205C121.467 96.8662 135.166 86.1047 150.042 77.1714Z" fill="#F2F2F2"/>
<path d="M114.942 62.0707C95.8266 57.1776 79.386 59.1675 69.2737 69.2471C59.1614 79.3268 57.2042 95.7675 62.0646 114.916C69.4718 104.845 77.6399 95.3577 86.4972 86.5359C95.3298 77.6552 104.84 69.4754 114.942 62.0707Z" fill="#141414"/>
<path d="M150.042 222.793C135.166 213.859 121.467 203.098 109.266 190.76C96.9341 178.553 86.1732 164.856 77.2332 149.984C70.517 160.918 65.3776 172.746 61.9669 185.116C69.384 195.179 77.5515 204.666 86.3995 213.496C95.266 222.395 104.797 230.607 114.91 238.059C127.287 234.668 139.117 229.528 150.042 222.793Z" fill="#F2F2F2"/>
<path d="M222.851 149.982C213.898 135.12 203.138 121.424 190.818 109.207C178.595 96.8927 164.9 86.1337 150.042 77.1737C135.167 86.107 121.468 96.8685 109.267 109.207C96.9468 121.424 86.1872 135.12 77.2341 149.982C86.1741 164.854 96.9349 178.551 109.267 190.758C121.468 203.096 135.167 213.857 150.042 222.791C164.9 213.831 178.595 203.072 190.818 190.758C203.15 178.551 213.911 164.854 222.851 149.982Z" fill="#141414"/>
<path d="M238.117 114.848C230.711 104.786 222.554 95.2989 213.717 86.4682C204.88 77.6112 195.37 69.4534 185.272 62.0682C172.873 65.4104 161.011 70.4955 150.042 77.1714C164.899 86.1315 178.595 96.8904 190.817 109.205C203.137 121.422 213.897 135.118 222.85 149.98C229.582 139.054 234.722 127.224 238.117 114.848Z" fill="#F2F2F2"/>
</svg>
