<svg width="301" height="300" viewBox="0 0 301 300" fill="none" xmlns="http://www.w3.org/2000/svg">
<path d="M150.029 77.1752C160.937 70.5161 172.732 65.4315 185.063 62.072C174.106 53.9132 162.371 46.8548 150.029 40.9993C137.669 46.8598 125.913 53.9178 114.929 62.072C127.281 65.4302 139.098 70.5148 150.029 77.1752Z" fill="#141414"/>
<path d="M150.029 77.1752C160.937 70.5161 172.732 65.4315 185.063 62.072C174.106 53.9132 162.371 46.8548 150.029 40.9993C137.669 46.8598 125.913 53.9178 114.929 62.072C127.281 65.4302 139.098 70.5148 150.029 77.1752Z" fill="#141414"/>
<path d="M77.2204 149.979C70.5157 139.039 65.377 127.213 61.9541 114.847C53.8661 125.855 46.8635 137.621 41.0445 149.979C46.8635 162.337 53.8661 174.103 61.9541 185.111C65.3648 172.74 70.5042 160.913 77.2204 149.979Z" fill="#141414"/>
<path d="M185.162 238.059C172.788 234.658 160.959 229.518 150.03 222.792C139.105 229.527 127.275 234.668 114.898 238.059C125.905 246.156 137.671 253.17 150.03 259.001C162.393 253.177 174.159 246.163 185.162 238.059Z" fill="#141414"/>
<path d="M150.029 77.1752C160.937 70.5161 172.732 65.4315 185.063 62.072C174.106 53.9132 162.371 46.8548 150.029 40.9993C137.669 46.8598 125.913 53.9178 114.929 62.072C127.281 65.4302 139.098 70.5148 150.029 77.1752Z" fill="#141414"/>
<path d="M259.046 149.979C253.215 137.62 246.202 125.854 238.104 114.847C234.71 127.223 229.569 139.053 222.838 149.979C229.554 160.913 234.693 172.74 238.104 185.111C246.209 174.108 253.223 162.342 259.046 149.979Z" fill="#141414"/>
<path d="M238.104 185.146C223.234 205.348 205.396 223.186 185.194 238.056C204.277 242.916 220.717 240.926 230.862 230.847C241.007 220.767 242.834 204.229 238.104 185.146Z" fill="#141414"/>
<path d="M238.104 185.148C234.696 172.766 229.557 160.928 222.838 149.984C213.898 164.855 203.137 178.553 190.805 190.759C178.582 203.073 164.887 213.832 150.03 222.792C160.959 229.518 172.787 234.658 185.162 238.058C205.375 223.191 223.225 205.353 238.104 185.148Z" fill="#F2F2F2"/>
<path d="M150.029 77.1708C139.088 70.5076 127.261 65.423 114.897 62.0676C104.809 69.4529 95.3097 77.6108 86.4851 86.4676C77.5941 95.2858 69.3931 104.774 61.9547 114.847C65.3776 127.214 70.5163 139.039 77.221 149.979C86.1741 135.117 96.9337 121.421 109.254 109.204C121.455 96.8656 135.153 86.1041 150.029 77.1708Z" fill="#F2F2F2"/>
<path d="M114.93 62.0701C95.8144 57.177 79.3738 59.1669 69.2615 69.2465C59.1492 79.3262 57.192 95.7668 62.0524 114.915C69.4596 104.845 77.6277 95.3571 86.485 86.5353C95.3175 77.6546 104.828 69.4748 114.93 62.0701Z" fill="#141414"/>
<path d="M150.029 222.792C135.153 213.859 121.455 203.097 109.254 190.759C96.9218 178.553 86.161 164.855 77.221 149.984C70.5048 160.918 65.3654 172.745 61.9547 185.116C69.3717 195.178 77.5392 204.665 86.3873 213.495C95.2537 222.394 104.785 230.606 114.897 238.058C127.275 234.668 139.105 229.527 150.029 222.792Z" fill="#F2F2F2"/>
<path d="M114.897 238.056C104.835 230.65 95.3485 222.494 86.5178 213.656C77.6196 204.789 69.4082 195.258 61.9547 185.146C57.0943 204.229 59.1167 220.669 69.1638 230.814C79.2108 240.959 95.8145 242.786 114.897 238.056Z" fill="#141414"/>
<path d="M222.839 149.982C213.886 135.119 203.126 121.423 190.806 109.206C178.583 96.8921 164.888 86.1331 150.03 77.1731C135.154 86.1064 121.456 96.8679 109.255 109.206C96.9345 121.423 86.1749 135.119 77.2218 149.982C86.1618 164.853 96.9227 178.551 109.255 190.757C121.456 203.095 135.154 213.857 150.03 222.79C164.888 213.83 178.583 203.071 190.806 190.757C203.138 178.551 213.899 164.853 222.839 149.982Z" fill="#141414"/>
<path d="M230.765 69.2464C220.685 59.1668 204.212 57.1769 185.097 62.07C195.195 69.4551 204.705 77.6129 213.541 86.47C222.435 95.2947 230.647 104.782 238.104 114.85C242.834 95.7667 240.845 79.3261 230.765 69.2464Z" fill="#141414"/>
<path d="M238.104 114.847C230.699 104.785 222.542 95.2983 213.704 86.4676C204.868 77.6106 195.358 69.4528 185.259 62.0676C172.861 65.4098 160.999 70.4949 150.03 77.1708C164.887 86.1308 178.582 96.8898 190.805 109.204C203.125 121.421 213.885 135.117 222.838 149.979C229.569 139.053 234.71 127.224 238.104 114.847Z" fill="#F2F2F2"/>
</svg>
