<svg width="301" height="300" viewBox="0 0 301 300" fill="none" xmlns="http://www.w3.org/2000/svg">
<path d="M150.041 77.1953C160.95 70.5363 172.744 65.4516 185.075 62.0921C174.118 53.9333 162.383 46.8749 150.041 41.0194C137.681 46.8799 125.925 53.9379 114.942 62.0921C127.294 65.4504 139.11 70.5349 150.041 77.1953Z" fill="#181616"/>
<path d="M150.042 259.021C137.683 253.19 125.917 246.177 114.91 238.079C95.8269 242.939 79.3863 240.949 69.2414 230.87C59.0965 220.79 57.1719 204.382 62.0323 185.201C53.9181 174.175 46.8936 162.387 41.0575 150.004C21.2244 192.019 20.8003 232.99 43.9607 256.118C67.1211 279.245 108.027 278.854 150.042 259.021Z" fill="#F2F2F2"/>
<path d="M256.156 43.9201C232.995 20.7597 192.057 21.0859 150.042 41.0169C162.395 46.8706 174.141 53.929 185.109 62.0897C204.191 57.1966 220.665 59.1864 230.777 69.2661C240.889 79.3458 242.846 95.7864 237.986 114.935C246.126 125.916 253.183 137.66 259.059 150.001C278.892 107.986 279.316 67.0479 256.156 43.9201Z" fill="#F2F2F2"/>
<path d="M150.041 77.1953C160.95 70.5363 172.744 65.4516 185.075 62.0921C174.118 53.9333 162.383 46.8749 150.041 41.0194C137.681 46.8799 125.925 53.9379 114.942 62.0921C127.294 65.4504 139.11 70.5349 150.041 77.1953Z" fill="#181616"/>
<path d="M150.042 41.0183C108.027 21.1851 67.089 20.761 43.9612 43.9215C20.8334 67.0819 21.127 107.988 41.058 150.003C46.877 137.644 53.8796 125.879 61.9676 114.871C57.1072 95.7877 59.1296 79.3471 69.1767 69.2022C79.2237 59.0573 95.6969 57.1327 114.845 62.0257C125.862 53.8886 137.651 46.8524 150.042 41.0183Z" fill="#F2F2F2"/>
<path d="M77.2326 149.999C70.528 139.059 65.3893 127.233 61.9664 114.867C53.8784 125.875 46.8758 137.641 41.0568 149.999C46.8758 162.358 53.8784 174.123 61.9664 185.131C65.377 172.761 70.5165 160.933 77.2326 149.999Z" fill="#181616"/>
<path d="M185.174 238.079C172.8 234.678 160.971 229.538 150.042 222.812C139.118 229.547 127.288 234.688 114.91 238.079C125.917 246.177 137.683 253.19 150.042 259.021C162.405 253.197 174.171 246.184 185.174 238.079Z" fill="#181616"/>
<path d="M259.059 150.004C253.235 162.367 246.221 174.133 238.117 185.136C242.977 204.219 240.987 220.659 230.907 230.804C220.828 240.949 204.42 242.874 185.239 238.013C174.218 246.145 162.43 253.18 150.042 259.021C192.057 278.854 232.995 279.278 256.156 256.118C279.316 232.957 278.892 192.019 259.059 150.004Z" fill="#F2F2F2"/>
<path d="M150.041 77.1953C160.95 70.5363 172.744 65.4516 185.075 62.0921C174.118 53.9333 162.383 46.8749 150.041 41.0194C137.681 46.8799 125.925 53.9379 114.942 62.0921C127.294 65.4504 139.11 70.5349 150.041 77.1953Z" fill="#181616"/>
<path d="M259.059 149.999C253.228 137.64 246.214 125.875 238.116 114.867C234.722 127.243 229.581 139.073 222.85 149.999C229.566 160.933 234.706 172.761 238.116 185.131C246.221 174.128 253.235 162.362 259.059 149.999Z" fill="#181616"/>
<path d="M238.116 185.166C223.246 205.368 205.408 223.206 185.206 238.076C204.289 242.936 220.729 240.947 230.874 230.867C241.019 220.787 242.846 204.249 238.116 185.166Z" fill="#181616"/>
<path d="M238.117 185.168C234.709 172.787 229.569 160.948 222.85 150.004C213.91 164.875 203.149 178.573 190.817 190.779C178.595 203.093 164.899 213.852 150.042 222.812C160.971 229.538 172.8 234.678 185.174 238.079C205.388 223.211 223.237 205.373 238.117 185.168Z" fill="#F2F2F2"/>
<path d="M150.042 77.191C139.1 70.5278 127.273 65.4431 114.91 62.0878C104.821 69.473 95.3219 77.6309 86.4974 86.4878C77.6063 95.3059 69.4054 104.794 61.9669 114.867C65.3899 127.234 70.5286 139.059 77.2332 149.999C86.1863 135.137 96.9459 121.441 109.266 109.224C121.467 96.8857 135.166 86.1243 150.042 77.191Z" fill="#F2F2F2"/>
<path d="M114.942 62.0902C95.8266 57.1972 79.386 59.187 69.2737 69.2667C59.1614 79.3463 57.2042 95.787 62.0646 114.935C69.4718 104.865 77.6399 95.3772 86.4972 86.5554C95.3298 77.6747 104.84 69.495 114.942 62.0902Z" fill="#181616"/>
<path d="M150.042 222.812C135.166 213.879 121.467 203.118 109.266 190.779C96.9341 178.573 86.1732 164.875 77.2332 150.004C70.517 160.938 65.3776 172.765 61.9669 185.136C69.384 195.198 77.5515 204.685 86.3995 213.516C95.266 222.415 104.797 230.626 114.91 238.079C127.287 234.688 139.117 229.547 150.042 222.812Z" fill="#F2F2F2"/>
<path d="M114.91 238.076C104.848 230.67 95.3607 222.514 86.53 213.676C77.6318 204.809 69.4205 195.278 61.9669 185.166C57.1065 204.249 59.129 220.689 69.176 230.834C79.223 240.979 95.8268 242.806 114.91 238.076Z" fill="#181616"/>
<path d="M222.851 150.002C213.898 135.139 203.138 121.443 190.818 109.226C178.595 96.9122 164.9 86.1532 150.042 77.1932C135.167 86.1265 121.468 96.888 109.267 109.226C96.9468 121.443 86.1872 135.139 77.2341 150.002C86.1741 164.873 96.9349 178.571 109.267 190.777C121.468 203.115 135.167 213.877 150.042 222.81C164.9 213.85 178.595 203.091 190.818 190.777C203.15 178.571 213.911 164.873 222.851 150.002Z" fill="#181616"/>
<path d="M230.777 69.2666C220.697 59.1869 204.224 57.1971 185.109 62.0901C195.207 69.4753 204.718 77.6331 213.554 86.4901C222.448 95.3149 230.659 104.802 238.117 114.87C242.847 95.7869 240.857 79.3463 230.777 69.2666Z" fill="#181616"/>
<path d="M238.117 114.867C230.711 104.805 222.554 95.3185 213.717 86.4878C204.88 77.6307 195.37 69.4729 185.272 62.0878C172.873 65.4299 161.011 70.515 150.042 77.191C164.899 86.151 178.595 96.91 190.817 109.224C203.137 121.441 213.897 135.137 222.85 149.999C229.582 139.073 234.722 127.244 238.117 114.867Z" fill="#F2F2F2"/>
</svg>
