<svg width="301" height="300" viewBox="0 0 301 300" fill="none" xmlns="http://www.w3.org/2000/svg">
<path d="M150.028 77.2012C160.937 70.5422 172.732 65.4575 185.063 62.098C174.106 53.9392 162.371 46.8809 150.028 41.0253C137.668 46.8858 125.912 53.9438 114.929 62.098C127.281 65.4563 139.097 70.5408 150.028 77.2012Z" fill="#181616"/>
<path d="M150.029 259.027C137.67 253.196 125.905 246.182 114.897 238.085C95.8142 242.945 79.3736 240.955 69.2287 230.875C59.0838 220.796 57.1592 204.388 62.0196 185.207C53.9054 174.181 46.8809 162.393 41.0448 150.01C21.2117 192.025 20.7876 232.996 43.948 256.124C67.1084 279.251 108.014 278.86 150.029 259.027Z" fill="#F2F2F2"/>
<path d="M256.143 43.9261C232.982 20.7657 192.044 21.0919 150.029 41.0229C162.383 46.8765 174.129 53.9349 185.096 62.0956C204.179 57.2025 220.652 59.1924 230.764 69.272C240.877 79.3517 242.834 95.7923 237.973 114.94C246.113 125.922 253.17 137.666 259.046 150.007C278.879 107.992 279.303 67.0539 256.143 43.9261Z" fill="#F2F2F2"/>
<path d="M150.028 77.2012C160.937 70.5422 172.732 65.4575 185.063 62.098C174.106 53.9392 162.371 46.8809 150.028 41.0253C137.668 46.8858 125.912 53.9438 114.929 62.098C127.281 65.4563 139.097 70.5408 150.028 77.2012Z" fill="#181616"/>
<path d="M77.2199 150.005C70.5153 139.065 65.3766 127.239 61.9536 114.873C53.8657 125.881 46.8631 137.647 41.044 150.005C46.8631 162.363 53.8657 174.129 61.9536 185.137C65.3643 172.767 70.5037 160.939 77.2199 150.005Z" fill="#181616"/>
<path d="M185.161 238.085C172.787 234.684 160.958 229.544 150.029 222.818C139.105 229.553 127.275 234.694 114.897 238.085C125.905 246.183 137.67 253.196 150.029 259.027C162.392 253.203 174.158 246.19 185.161 238.085Z" fill="#181616"/>
<path d="M150.028 77.2012C160.937 70.5422 172.732 65.4575 185.063 62.098C174.106 53.9392 162.371 46.8809 150.028 41.0253C137.668 46.8858 125.912 53.9438 114.929 62.098C127.281 65.4563 139.097 70.5408 150.028 77.2012Z" fill="#181616"/>
<path d="M259.046 150.005C253.215 137.646 246.202 125.881 238.104 114.873C234.709 127.249 229.569 139.079 222.837 150.005C229.554 160.939 234.693 172.767 238.104 185.137C246.209 174.134 253.222 162.368 259.046 150.005Z" fill="#181616"/>
<path d="M238.104 185.174C234.696 172.793 229.556 160.954 222.838 150.01C213.897 164.881 203.137 178.579 190.804 190.785C178.582 203.099 164.887 213.858 150.029 222.818C160.958 229.544 172.787 234.684 185.161 238.085C205.375 223.217 223.224 205.379 238.104 185.174Z" fill="#F2F2F2"/>
<path d="M150.029 77.1969C139.088 70.5337 127.26 65.4491 114.897 62.0937C104.809 69.4789 95.3092 77.6368 86.4847 86.4937C77.5936 95.3118 69.3927 104.8 61.9542 114.873C65.3772 127.24 70.5159 139.065 77.2205 150.005C86.1736 135.143 96.9332 121.447 109.254 109.23C121.455 96.8917 135.153 86.1302 150.029 77.1969Z" fill="#F2F2F2"/>
<path d="M150.029 222.818C135.153 213.885 121.455 203.123 109.254 190.785C96.9214 178.579 86.1605 164.881 77.2205 150.01C70.5043 160.944 65.3649 172.771 61.9542 185.142C69.3713 195.204 77.5388 204.691 86.3868 213.521C95.2533 222.421 104.784 230.632 114.897 238.085C127.274 234.694 139.105 229.553 150.029 222.818Z" fill="#F2F2F2"/>
<path d="M114.897 238.082C104.835 230.676 95.348 222.52 86.5173 213.682C77.6191 204.815 69.4078 195.284 61.9542 185.172C57.0938 204.255 59.1163 220.695 69.1633 230.84C79.2104 240.985 95.8141 242.812 114.897 238.082Z" fill="#181616"/>
<path d="M222.838 150.008C213.885 135.145 203.125 121.449 190.805 109.232C178.583 96.9182 164.887 86.1592 150.03 77.1992C135.154 86.1325 121.455 96.8939 109.254 109.232C96.9341 121.449 86.1745 135.145 77.2214 150.008C86.1614 164.879 96.9223 178.577 109.254 190.783C121.455 203.121 135.154 213.883 150.03 222.816C164.887 213.856 178.583 203.097 190.805 190.783C203.137 178.577 213.898 164.879 222.838 150.008Z" fill="#181616"/>
<path d="M230.764 69.2725C220.685 59.1928 204.212 57.203 185.096 62.096C195.195 69.4812 204.705 77.639 213.541 86.496C222.435 95.3208 230.646 104.808 238.104 114.876C242.834 95.7928 240.844 79.3522 230.764 69.2725Z" fill="#181616"/>
<path d="M238.104 114.873C230.698 104.811 222.542 95.3244 213.704 86.4937C204.868 77.6367 195.358 69.4788 185.259 62.0937C172.86 65.4358 160.999 70.5209 150.029 77.1969C164.887 86.1569 178.582 96.9159 190.804 109.23C203.125 121.447 213.884 135.143 222.838 150.005C229.569 139.079 234.709 127.25 238.104 114.873Z" fill="#F2F2F2"/>
</svg>
