<svg width="248" height="248" viewBox="0 0 248 248" fill="none" xmlns="http://www.w3.org/2000/svg">
<path d="M124.041 51.1953C134.95 44.5363 146.744 39.4516 159.075 36.0921C148.118 27.9333 136.383 20.8749 124.041 15.0194C111.681 20.8799 99.9248 27.9379 88.9417 36.0921C101.294 39.4504 113.11 44.5349 124.041 51.1953Z" fill="#141414"/>
<path d="M124.042 233.021C111.683 227.19 99.9173 220.177 88.9098 212.079C69.8269 216.939 53.3863 214.949 43.2414 204.87C33.0965 194.79 31.1719 178.382 36.0323 159.201C27.9181 148.175 20.8936 136.387 15.0575 124.004C-4.77563 166.019 -5.1997 206.99 17.9607 230.118C41.1211 253.245 82.0269 252.854 124.042 233.021Z" fill="#F2F2F2"/>
<path d="M230.156 17.9201C206.995 -5.24027 166.057 -4.91406 124.042 15.0169C136.395 20.8706 148.141 27.929 159.109 36.0897C178.191 31.1966 194.665 33.1864 204.777 43.2661C214.889 53.3458 216.846 69.7864 211.986 88.9345C220.126 99.916 227.183 111.66 233.059 124.001C252.892 81.9864 253.316 41.0479 230.156 17.9201Z" fill="#F2F2F2"/>
<path d="M124.041 51.1953C134.95 44.5363 146.744 39.4516 159.075 36.0921C148.118 27.9333 136.383 20.8749 124.041 15.0194C111.681 20.8799 99.9248 27.9379 88.9417 36.0921C101.294 39.4504 113.11 44.5349 124.041 51.1953Z" fill="#141414"/>
<path d="M124.042 15.0183C82.0274 -4.81488 41.089 -5.23895 17.9612 17.9215C-5.16658 41.0819 -4.87299 81.9877 15.058 124.003C20.877 111.644 27.8796 99.8786 35.9676 88.8706C31.1072 69.7877 33.1296 53.3471 43.1767 43.2022C53.2237 33.0573 69.6969 31.1327 88.845 36.0257C99.8619 27.8886 111.651 20.8524 124.042 15.0183Z" fill="#F2F2F2"/>
<path d="M51.2326 123.999C44.528 113.059 39.3893 101.233 35.9664 88.8671C27.8784 99.8751 20.8758 111.641 15.0568 123.999C20.8758 136.358 27.8784 148.123 35.9664 159.131C39.377 146.761 44.5165 134.933 51.2326 123.999Z" fill="#141414"/>
<path d="M159.174 212.079C146.8 208.678 134.971 203.538 124.042 196.812C113.118 203.547 101.288 208.688 88.9099 212.079C99.9175 220.177 111.683 227.19 124.042 233.021C136.405 227.197 148.171 220.184 159.174 212.079Z" fill="#141414"/>
<path d="M233.059 124.004C227.235 136.367 220.221 148.133 212.117 159.136C216.977 178.219 214.987 194.659 204.907 204.804C194.828 214.949 178.42 216.874 159.239 212.013C148.218 220.145 136.43 227.18 124.042 233.021C166.057 252.854 206.995 253.278 230.156 230.118C253.316 206.957 252.892 166.019 233.059 124.004Z" fill="#F2F2F2"/>
<path d="M124.041 51.1953C134.95 44.5363 146.744 39.4516 159.075 36.0921C148.118 27.9333 136.383 20.8749 124.041 15.0194C111.681 20.8799 99.9248 27.9379 88.9417 36.0921C101.294 39.4504 113.11 44.5349 124.041 51.1953Z" fill="#141414"/>
<path d="M233.059 123.999C227.228 111.64 220.214 99.8746 212.116 88.8671C208.722 101.243 203.581 113.073 196.85 123.999C203.566 134.933 208.706 146.761 212.116 159.131C220.221 148.128 227.235 136.362 233.059 123.999Z" fill="#141414"/>
<path d="M212.116 159.166C197.246 179.368 179.408 197.206 159.206 212.076C178.289 216.936 194.729 214.947 204.874 204.867C215.019 194.787 216.846 178.249 212.116 159.166Z" fill="#141414"/>
<path d="M212.117 159.168C208.709 146.787 203.569 134.948 196.85 124.004C187.91 138.875 177.149 152.573 164.817 164.779C152.595 177.093 138.899 187.852 124.042 196.812C134.971 203.538 146.8 208.678 159.174 212.079C179.388 197.211 197.237 179.373 212.117 159.168Z" fill="#F2F2F2"/>
<path d="M124.042 51.191C113.1 44.5278 101.273 39.4431 88.9096 36.0878C78.8213 43.473 69.3219 51.6309 60.4974 60.4878C51.6063 69.3059 43.4054 78.7937 35.9669 88.8674C39.3899 101.234 44.5286 113.059 51.2332 123.999C60.1863 109.137 70.9459 95.4411 83.2663 83.2241C95.4673 70.8857 109.166 60.1243 124.042 51.191Z" fill="#F2F2F2"/>
<path d="M88.9421 36.0902C69.8266 31.1972 53.386 33.187 43.2737 43.2667C33.1614 53.3463 31.2042 69.787 36.0646 88.9351C43.4718 78.8649 51.6399 69.3772 60.4972 60.5554C69.3298 51.6747 78.8401 43.495 88.9421 36.0902Z" fill="#141414"/>
<path d="M124.042 196.812C109.166 187.879 95.4673 177.118 83.2663 164.779C70.9341 152.573 60.1732 138.875 51.2332 124.004C44.517 134.938 39.3776 146.765 35.9669 159.136C43.384 169.198 51.5515 178.685 60.3995 187.516C69.266 196.415 78.7968 204.626 88.9096 212.079C101.287 208.688 113.117 203.547 124.042 196.812Z" fill="#F2F2F2"/>
<path d="M88.9096 212.076C78.8477 204.67 69.3607 196.514 60.53 187.676C51.6318 178.809 43.4205 169.278 35.9669 159.166C31.1065 178.249 33.129 194.689 43.176 204.834C53.223 214.979 69.8268 216.806 88.9096 212.076Z" fill="#141414"/>
<path d="M196.851 124.002C187.898 109.139 177.138 95.4434 164.818 83.2264C152.595 70.9122 138.9 60.1532 124.042 51.1932C109.167 60.1265 95.4681 70.888 83.2672 83.2264C70.9468 95.4434 60.1872 109.139 51.2341 124.002C60.1741 138.873 70.9349 152.571 83.2672 164.777C95.4681 177.115 109.167 187.877 124.042 196.81C138.9 187.85 152.595 177.091 164.818 164.777C177.15 152.571 187.911 138.873 196.851 124.002Z" fill="#141414"/>
<path d="M204.777 43.2666C194.697 33.1869 178.224 31.1971 159.109 36.0901C169.207 43.4753 178.718 51.6331 187.554 60.4901C196.448 69.3149 204.659 78.802 212.117 88.8698C216.847 69.7869 214.857 53.3463 204.777 43.2666Z" fill="#141414"/>
<path d="M212.117 88.8674C204.711 78.8055 196.554 69.3185 187.717 60.4878C178.88 51.6307 169.37 43.4729 159.272 36.0878C146.873 39.4299 135.011 44.515 124.042 51.191C138.899 60.151 152.595 70.91 164.817 83.2241C177.137 95.4411 187.897 109.137 196.85 123.999C203.582 113.073 208.722 101.244 212.117 88.8674Z" fill="#F2F2F2"/>
</svg>
