<svg width="301" height="300" viewBox="0 0 301 300" fill="none" xmlns="http://www.w3.org/2000/svg">
<path d="M256.184 256.057C233.023 279.217 192.085 278.891 150.07 258.96C108.055 278.793 67.1165 279.217 43.9888 256.057C72.1287 284.193 110.293 300 150.086 300C189.88 300 228.044 284.193 256.184 256.057Z" fill="#181616"/>
<path d="M43.9887 43.8594C15.8521 71.9993 0.0454102 110.163 0.0454102 149.957C0.0454102 189.75 15.8521 227.914 43.9887 256.054C20.8284 232.927 21.1546 191.956 41.0855 149.941C21.2524 107.926 20.8284 66.9872 43.9887 43.8594Z" fill="#181616"/>
<path d="M256.183 43.8619C228.05 15.7751 189.921 0 150.167 0C110.414 0 72.2845 15.7751 44.1512 43.8619C67.279 20.7015 108.217 21.0277 150.232 40.9587C192.084 21.1256 233.023 20.7015 256.183 43.8619Z" fill="#181616"/>
<path d="M150.069 77.1369C160.978 70.4778 172.773 65.3931 185.104 62.0336C174.147 53.8749 162.412 46.8165 150.069 40.9609C137.709 46.8214 125.953 53.8794 114.97 62.0336C127.322 65.3919 139.138 70.4764 150.069 77.1369Z" fill="#181616"/>
<path d="M256.184 43.8594C279.344 66.9872 279.018 107.926 259.087 149.941C278.92 191.956 279.344 232.927 256.184 256.054C284.27 227.921 300.045 189.792 300.045 150.038C300.045 110.285 284.27 72.1558 256.184 44.0225V43.8594Z" fill="#181616"/>
<path d="M150.07 258.962C137.711 253.131 125.946 246.118 114.938 238.02C95.8552 242.881 79.4146 240.891 69.2697 230.811C59.1247 220.731 57.2002 204.323 62.0606 185.143C53.9464 174.117 46.9218 162.329 41.0857 149.945C21.2526 191.96 20.8286 232.931 43.9889 256.059C67.1493 279.187 108.055 278.796 150.07 258.962Z" fill="#F2F2F2"/>
<path d="M256.184 43.8617C233.023 20.7013 192.085 21.0275 150.07 40.9585C162.424 46.8121 174.17 53.8705 185.137 62.0312C204.22 57.1381 220.693 59.128 230.805 69.2076C240.918 79.2873 242.875 95.728 238.014 114.876C246.154 125.858 253.211 137.601 259.087 149.943C278.92 107.928 279.344 66.9895 256.184 43.8617Z" fill="#F2F2F2"/>
<path d="M150.069 77.1369C160.978 70.4778 172.773 65.3931 185.104 62.0336C174.147 53.8749 162.412 46.8165 150.069 40.9609C137.709 46.8214 125.953 53.8794 114.97 62.0336C127.322 65.3919 139.138 70.4764 150.069 77.1369Z" fill="#181616"/>
<path d="M150.071 40.9598C108.056 21.1266 67.1172 20.7026 43.9894 43.863C20.8617 67.0234 21.1553 107.929 41.0862 149.944C46.9053 137.586 53.9079 125.82 61.9958 114.812C57.1354 95.7293 59.1579 79.2886 69.2049 69.1437C79.252 58.9988 95.7252 57.0742 114.873 61.9673C125.89 53.8301 137.679 46.7939 150.071 40.9598Z" fill="#F2F2F2"/>
<path d="M77.261 149.941C70.5563 139 65.4176 127.175 61.9947 114.809C53.9067 125.817 46.9041 137.582 41.0851 149.941C46.9041 162.299 53.9067 174.065 61.9947 185.073C65.4054 172.702 70.5448 160.875 77.261 149.941Z" fill="#181616"/>
<path d="M185.202 238.02C172.828 234.62 160.999 229.48 150.07 222.754C139.146 229.489 127.316 234.63 114.938 238.02C125.946 246.118 137.711 253.132 150.07 258.962C162.433 253.139 174.199 246.125 185.202 238.02Z" fill="#181616"/>
<path d="M259.087 149.945C253.264 162.308 246.25 174.074 238.145 185.077C243.005 204.16 241.015 220.601 230.936 230.746C220.856 240.891 204.448 242.815 185.267 237.955C174.246 246.086 162.458 253.122 150.07 258.962C192.085 278.796 233.023 279.22 256.184 256.059C279.344 232.899 278.92 191.96 259.087 149.945Z" fill="#F2F2F2"/>
<path d="M150.069 77.1369C160.978 70.4778 172.773 65.3931 185.104 62.0336C174.147 53.8749 162.412 46.8165 150.069 40.9609C137.709 46.8214 125.953 53.8794 114.97 62.0336C127.322 65.3919 139.138 70.4764 150.069 77.1369Z" fill="#181616"/>
<path d="M259.087 149.941C253.256 137.582 246.243 125.816 238.145 114.809C234.75 127.185 229.61 139.014 222.878 149.941C229.595 160.875 234.734 172.702 238.145 185.073C246.25 174.07 253.263 162.304 259.087 149.941Z" fill="#181616"/>
<path d="M238.144 185.107C223.275 205.31 205.436 223.148 185.234 238.018C204.317 242.878 220.758 240.888 230.903 230.808C241.048 220.729 242.874 204.19 238.144 185.107Z" fill="#181616"/>
<path d="M238.145 185.11C234.737 172.728 229.597 160.89 222.878 149.945C213.938 164.817 203.178 178.514 190.845 190.721C178.623 203.035 164.928 213.794 150.07 222.754C160.999 229.48 172.828 234.62 185.202 238.02C205.416 223.153 223.265 205.315 238.145 185.11Z" fill="#F2F2F2"/>
<path d="M150.07 77.1325C139.129 70.4693 127.301 65.3847 114.938 62.0293C104.85 69.4146 95.3502 77.5724 86.5257 86.4293C77.6346 95.2474 69.4337 104.735 61.9952 114.809C65.4182 127.175 70.5569 139.001 77.2615 149.941C86.2146 135.079 96.9743 121.383 109.295 109.166C121.496 96.8273 135.194 86.0658 150.07 77.1325Z" fill="#F2F2F2"/>
<path d="M114.97 62.0317C95.8549 57.1387 79.4143 59.1285 69.302 69.2082C59.1898 79.2879 57.2325 95.7285 62.093 114.877C69.5001 104.806 77.6683 95.3187 86.5255 86.497C95.3581 77.6163 104.868 69.4365 114.97 62.0317Z" fill="#181616"/>
<path d="M150.07 222.754C135.194 213.821 121.496 203.059 109.295 190.721C96.9624 178.514 86.2016 164.817 77.2615 149.945C70.5454 160.88 65.4059 172.707 61.9952 185.077C69.4123 195.14 77.5798 204.627 86.4278 213.457C95.2943 222.356 104.825 230.568 114.938 238.02C127.316 234.629 139.146 229.489 150.07 222.754Z" fill="#F2F2F2"/>
<path d="M114.938 238.018C104.876 230.612 95.389 222.455 86.5583 213.618C77.6601 204.75 69.4488 195.219 61.9953 185.107C57.1348 204.19 59.1573 220.631 69.2043 230.776C79.2514 240.921 95.8551 242.748 114.938 238.018Z" fill="#181616"/>
<path d="M222.879 149.943C213.926 135.081 203.166 121.385 190.846 109.168C178.624 96.8538 164.928 86.0948 150.071 77.1348C135.195 86.0681 121.496 96.8295 109.295 109.168C96.9751 121.385 86.2155 135.081 77.2623 149.943C86.2024 164.815 96.9632 178.512 109.295 190.719C121.496 203.057 135.195 213.818 150.071 222.752C164.928 213.792 178.624 203.033 190.846 190.719C203.178 178.512 213.939 164.815 222.879 149.943Z" fill="#181616"/>
<path d="M230.805 69.2081C220.726 59.1284 204.253 57.1386 185.137 62.0316C195.236 69.4168 204.746 77.5746 213.582 86.4316C222.476 95.2564 230.687 104.744 238.145 114.811C242.875 95.7284 240.885 79.2878 230.805 69.2081Z" fill="#181616"/>
<path d="M238.145 114.809C230.739 104.747 222.583 95.26 213.745 86.4293C204.909 77.5723 195.399 69.4144 185.3 62.0293C172.901 65.3714 161.04 70.4566 150.07 77.1325C164.928 86.0925 178.623 96.8515 190.845 109.166C203.166 121.383 213.925 135.079 222.878 149.941C229.61 139.015 234.75 127.185 238.145 114.809Z" fill="#F2F2F2"/>
</svg>
